<?xml version="1.0" encoding="UTF-8"?>
<svg id="_レイヤー_1" data-name="レイヤー 1" xmlns="http://www.w3.org/2000/svg" version="1.1" viewBox="0 0 1920 1080">
  <defs>
    <style>
      .cls-1 {
        fill: none;
      }

      .cls-1, .cls-2 {
        stroke-width: 0px;
      }

      .cls-2 {
        fill: #fff;
      }
    </style>
  </defs>
  <path class="cls-2" d="M859.135,307.817c-1.36,11.188-3.086,18.345-2.944,25.464.54,26.9-13.305,37.079-39.047,40.732-32.971,4.68-65.137,14.771-97.97,20.779-22.843,4.18-35.457-7.061-36.004-30.76-.085-3.701.903-9.811-.81-10.74-39.573-21.456-15.175-55.305-16.512-83.998-.341-7.314.79-14.696,1.333-23.476-4.08-1.487-8.605-4.931-12.316-4.207-32.452,6.329-29.196-32.311-50.554-39.586,5.243-7.542,9.116-19.928,15.945-21.858,52.622-14.869,105.176-31.811,158.985-40.208,77.76-12.135,82.88-4.535,78.999,75.111-.948,19.465.603,39.052,1.077,62.082,21.761-9.357,40.288-19.858,60.197-25.33,35.815-9.844,72.113-19.538,108.852-23.971,38.249-4.615,52.015,16.738,47.403,54.634-4.722,38.803-4.514,78.291-4.979,117.497-.301,25.399-6.596,38.909-36.673,39.308-27.457.364-54.776,10.049-82.184,15.484-32.143,6.374-25.68-22.978-32.338-38.162-1.372-3.13,14.591-17.116,24.566-21.148,12.669-5.121,27.452-4.816,41.193-7.515,35.699-7.012,36.306-8.13,27.626-49.716-22.031,5.332-44.483,9.238-65.907,16.272-43.67,14.337-46.92,13.595-68.799-28.218-1.713-3.273-3.649-6.602-6.186-9.223-2.51-2.593-5.913-4.32-12.953-9.247ZM700.278,335.673c20.658-4.442,41.674-7.786,61.92-13.743,12.737-3.748,32.829-9.4,34.794-17.706,5.454-23.053,3.534-47.946,3.283-72.099-.024-2.273-9-6.659-13.544-6.324-30.984,2.283-61.894,5.567-91.237,8.376,19.718,34.893-2.684,67.983,4.785,101.496Z"/>
  <path class="cls-2" d="M1436.483,304.017c-48.874,14.45-93.087,27.833-137.501,40.507-18.87,5.385-39.321,18.982-56.292-2.708-19.543-24.976-16.321-49.492-2.902-77.149,12.268-25.285,31.495-35.289,55.532-40.807,60.791-13.954,121.652-27.644,182.706-40.38,10.346-2.158,21.79.952,34.26,1.724.018-9.419-1.297-18.731.338-27.494,3.089-16.557,6.358-34.138,29.305-34.072,22.714.065,40.515,15.58,40.002,37.328-.946,40.129-2.05,80.357-6.081,120.241-1.032,10.208-13.26,19.284-20.344,28.881-7.578-8.081-18.403-14.924-22.058-24.502-7.554-19.797-11.29-41.05-18.379-68.641-8.726,46.169-16.386,86.04-23.766,125.963-5.257,28.438-7.913,57.62-16.25,85.099-3.482,11.478-17.106,24.189-28.847,28.053-36.618,12.052-75.133,18.351-111.721,30.474-20.585,6.821-37.381,10.013-46.362-12.836-8.544-21.738,5.353-46.647,26.854-52.33,21.637-5.718,43.204-12.426,65.247-15.706,31.126-4.631,48.624-20.214,51.043-52.07,1.113-14.651,3.045-29.24,5.216-49.574Z"/>
  <path class="cls-2" d="M372.821,160.685c-.626,10.129-.864,19.129-1.787,28.058-5.633,54.502-10.649,109.092-17.923,163.378-1.207,9.007-10.86,20.84-19.423,24.201-32.882,12.907-66.609,24.004-100.707,33.247-9.252,2.508-22.016-1.76-31.245-6.591-21.101-11.046-22.171-23.973-3.068-37.659,15.844-11.351,32.492-23.16,50.633-29.325,22.989-7.813,37.591-18.685,35.264-48.969-28.041,12.598-55.381,24.994-82.814,37.177-29.726,13.201-46.391,8.717-64.664-17.163-2.688-3.807-4.771-8.087-7.738-11.645-30.387-36.448-31.37-38.318,12.407-60.166,71.546-35.706,143.617-71.23,231.065-74.543Z"/>
  <path class="cls-2" d="M540.265,365.673c-35.843,11.822-69.39,22.352-102.536,34.021-19.778,6.963-33.775,8.017-31.082-19.728.505-5.199-1.202-10.953-3.107-15.991-14.002-37.038-9.801-50.556,27.707-63.834,42.027-14.877,85.371-26.074,128.27-38.429,15.382-4.43,27.076,1.88,28.786,17.653,2.887,26.629,4.448,53.536,4.32,80.316-.11,23.225-4.694,46.431-4.778,69.654-.076,21.004-8.89,33.447-28.281,39.447-34.709,10.739-69.632,20.845-104.056,32.431-18.589,6.257-34.097.518-38.984-15.654-3.006-9.946,3.525-30.33,11.766-34.683,23.461-12.391,49.659-20.125,75.397-27.552,36.644-10.573,39.246-13.081,36.577-57.653Z"/>
  <path class="cls-2" d="M444.505,192.466c-2.625,12.339-4.344,28.246-9.802,42.745-2.702,7.176-14.312,17.647-18.333,16.266-7.873-2.704-17.171-11.832-18.88-19.802-4.05-18.887-4.767-38.626-5.397-58.068-.571-17.627-1.41-35.756,2.065-52.809,2.065-10.132,10.811-24.596,19.073-26.571,16.484-3.94,28.035,7.132,28.905,25.307,1.109,23.149,1.538,46.331,2.368,72.932Z"/>
  <path class="cls-2" d="M497.49,194.954c-1.094,17.688-1.075,35.551-3.834,52.975-1.09,6.884-7.66,17.081-13.018,17.961-5.624.923-18.282-7.335-18.427-11.882-1.555-48.858-1.646-97.784-.578-146.658.075-3.455,14.996-11.084,18.582-9.032,7.559,4.327,16.469,13.386,17.208,21.222,2.356,24.968,1.225,50.265,1.441,75.436-.458-.007-.916-.015-1.375-.023Z"/>
  <path class="cls-2" d="M1190.078,260.431c-2.707,18.895-3.714,34.759-7.721,49.825-1.763,6.627-10.149,16.681-14.61,16.224-7.27-.745-19.154-8.264-19.755-13.918-4.084-38.382-6.684-77.009-7.306-115.596-.12-7.414,10.634-15.003,16.371-22.512,8.072,6.723,21.069,12.142,23.263,20.422,5.854,22.098,7.065,45.426,9.759,65.555Z"/>
  <path class="cls-2" d="M1603.457,299.32c-2.575-9.318-7.545-18.701-7.293-27.942.884-32.395,1.874-64.992,6.626-96.948,1.377-9.255,15.501-16.615,23.782-24.844,5.214,9.517,14.675,18.962,14.837,28.564.469,27.771-.848,55.932-5.405,83.283-2.402,14.417-13.022,27.464-19.932,41.13-4.205-1.081-8.41-2.163-12.615-3.244Z"/>
  <path class="cls-2" d="M1680.587,420.217c2.262-30.943,15.184-46.266,38.898-43.354,18.931,2.325,38.477,8.066,36.88,32.65-1.995,30.713-20.629,54.177-39.08,53.245-25.06-1.265-38.571-16.928-36.698-42.542Z"/>
  <path class="cls-2" d="M916.882,171.747c-1.126,18.212-.441,28.8-2.849,38.631-1.671,6.821-7.599,12.6-11.625,18.845-6.156-4.871-15.796-8.624-17.786-14.83-5.061-15.786-7.852-32.562-9.385-49.141-1.544-16.69-2.209-33.869.141-50.349,1.277-8.956,9.625-16.905,14.784-25.308,7.811,7.627,20.689,14.253,22.431,23.078,4.297,21.764,3.483,44.537,4.289,59.074Z"/>
  <path class="cls-2" d="M1649.002,387.321c-12.152,32.829-21.777,59.911-32.472,86.564-1.611,4.014-8.46,8.627-12.442,8.251-4.223-.398-9.967-5.693-11.514-10.092-11.296-32.124-9.872-64.52,6.59-93.965,4.019-7.189,21.089-11.058,31.153-9.585,7.555,1.106,13.499,13.214,18.685,18.827Z"/>
  <path class="cls-2" d="M939.409,144.258c.688-11.118-.484-22.797,2.649-33.176,2.523-8.358,10.249-15.146,15.667-22.631,8.507,7.223,24.092,14.288,24.258,21.699.618,27.562-2.943,55.374-7.157,82.75-.811,5.267-13.887,13.993-17.416,12.416-8.157-3.643-18.166-11.785-19.719-19.628-2.612-13.187.766-27.56,1.624-41.434l.094.005Z"/>
  <path class="cls-2" d="M650.632,311.482c-.745,12.049-.336,24.331-2.703,36.053-1.257,6.225-7.33,11.478-11.229,17.17-5.773-4.031-13.412-6.833-17.011-12.297-20.292-30.802-7.212-62.976-1.536-94.485.569-3.16,12.276-8.045,15.497-6.233,7.062,3.972,15.935,11.145,16.96,18.063,1.998,13.491-.883,27.705-1.743,41.62.588.036,1.176.073,1.764.109Z"/>
  <path class="cls-2" d="M1869.044,401.879c-12.094,21.899-21.358,41.146-33.244,58.608-3.329,4.89-16.247,8.169-21.374,5.549-5.229-2.672-10.021-14.458-8.469-20.603,4.755-18.825,11.003-37.752,20.236-54.697,3.105-5.698,17.424-8.569,25.635-7.129,6.207,1.088,10.852,11.084,17.216,18.271Z"/>
  <path class="cls-2" d="M1129.708,262.794c-6.519,10.935-12.072,20.25-17.624,29.565-7.816-9.854-19.489-18.659-22.521-29.813-4.271-15.714-2.76-33.184-2.342-49.869.115-4.595,4.837-12.551,7.975-12.822,5.387-.465,14.648,2.524,16.226,6.479,7.054,17.674,11.965,36.202,18.287,56.46Z"/>
  <rect class="cls-1" width="1920" height="1080"/>
</svg>