<?xml version="1.0" encoding="UTF-8"?>
<svg id="_レイヤー_1" data-name="レイヤー 1" xmlns="http://www.w3.org/2000/svg" version="1.1" xmlns:xlink="http://www.w3.org/1999/xlink" viewBox="0 0 1920 1080">
  <defs>
    <style>
      .cls-1 {
        fill: #25122a;
      }

      .cls-1, .cls-2, .cls-3, .cls-4, .cls-5, .cls-6, .cls-7, .cls-8, .cls-9, .cls-10, .cls-11, .cls-12, .cls-13, .cls-14, .cls-15, .cls-16, .cls-17, .cls-18, .cls-19, .cls-20, .cls-21, .cls-22, .cls-23, .cls-24, .cls-25, .cls-26, .cls-27, .cls-28, .cls-29, .cls-30, .cls-31, .cls-32, .cls-33, .cls-34, .cls-35, .cls-36, .cls-37, .cls-38, .cls-39 {
        stroke-width: 0px;
      }

      .cls-2 {
        fill: #6c3b6c;
      }

      .cls-3 {
        fill: #503d58;
      }

      .cls-4 {
        fill: #954b7f;
      }

      .cls-5 {
        fill: #b7a9af;
      }

      .cls-6 {
        fill: #d0a0c1;
      }

      .cls-7 {
        fill: #c7c0c7;
      }

      .cls-8 {
        fill: #8a7995;
      }

      .cls-9 {
        fill: #433c52;
      }

      .cls-10 {
        fill: #762266;
      }

      .cls-11 {
        fill: #decdc6;
      }

      .cls-12 {
        fill: #571c48;
      }

      .cls-13 {
        fill: #7f6286;
      }

      .cls-14 {
        fill: #766b7f;
      }

      .cls-15 {
        fill: #eddbe1;
      }

      .cls-16 {
        fill: #9fa0a3;
      }

      .cls-17 {
        fill: none;
      }

      .cls-18 {
        fill: #b57ba9;
      }

      .cls-19 {
        fill: #4a4c4f;
      }

      .cls-20 {
        fill: #411539;
      }

      .cls-21 {
        fill: #62738c;
      }

      .cls-22 {
        fill: #dcdfdf;
      }

      .cls-23 {
        fill: #b15b8b;
      }

      .cls-24 {
        fill: #c3c5c7;
      }

      .cls-25 {
        fill: #2d2330;
      }

      .cls-26 {
        fill: #b1b2b9;
      }

      .cls-27 {
        fill: #9676a0;
      }

      .cls-28 {
        fill: #0d060b;
      }

      .cls-29 {
        fill: #688eb3;
      }

      .cls-40 {
        clip-path: url(#clippath);
      }

      .cls-30 {
        fill: #afc7dc;
      }

      .cls-31 {
        fill: #9e98aa;
      }

      .cls-32 {
        fill: #a75d9a;
      }

      .cls-33 {
        fill: #757f83;
      }

      .cls-34 {
        fill: #938797;
      }

      .cls-35 {
        fill: #b4a9c1;
      }

      .cls-36 {
        fill: #a5b0c8;
      }

      .cls-37 {
        fill: #180f18;
      }

      .cls-38 {
        fill: #8493bc;
      }

      .cls-39 {
        fill: #eccc46;
      }
    </style>
    <clipPath id="clippath">
      <rect class="cls-17" width="1920" height="1080"/>
    </clipPath>
  </defs>
  <g class="cls-40">
    <g>
      <path class="cls-17" d="M516.367,634.237c-5.148-11.099,13.815-19.125,11.613-29.678-1.803-8.639-44.995-36.297-52.904-45.162,40.255,14.142,86.787,33.84,41.291,74.84ZM534.431,657.464c-2.365-.426-3.292-39.997,5.161-43.872,3.837,15.24.578,29.802-5.161,43.872ZM555.077,732.304h2.581c50.726,22.991,34.054,27.794-2.581,0ZM569.271,718.11c48.165-5.937-11.3,11.199-12.903,7.742q22.581-16.129,45.162-32.259c15.649-.585-32.359,22.019-32.259,24.517ZM1135.734,636.818c7.189-32.711-23.712-33.595-12.903-41.291,45.717,19.13,52.251,17.349,12.903,41.291ZM1370.577,848.435c.402-14.052,14.499-21.352,23.226-30.968,6.494,2.059-18.194,32.798-23.226,30.968ZM1500.902,974.889c-31.986,29.081-19.536,5.972-2.581-10.323,19.627-18.862,25.632-10.635,2.581,10.323Z"/>
      <path class="cls-22" d="M1528,789.079c-37.297,21.111-33.842,37.803-11.613-15.484-.195-.308-4.688-1.097-5.161-5.161-1.751,2.779-40.863,41.382-46.453,46.453,28.735-.446,22.183,11.788,23.226,12.903.394.421,3.96-.611,10.323,5.161,14.012-35.678,43.217-38.535,72.943-55.665v-4.41c-7.718-3.432-36.661,12.465-43.265,16.203Z"/>
      <path class="cls-25" d="M1547.355,768.434c-1.524.886,1.462,9.84-27.097,20.646-2.849-2.036.896-7.942-3.871-15.484-22.229,53.287-25.684,36.596,11.613,15.484,6.604-3.738,35.547-19.635,43.265-16.203v-8.223c-5.373-2.273-13.432-2.313-23.91,3.781Z"/>
      <path class="cls-19" d="M1500.902,974.889c23.052-20.958,17.046-29.185-2.581-10.323-16.955,16.295-29.405,39.404,2.581,10.323Z"/>
      <path class="cls-10" d="M1426.062,845.854q-14.839,40.001-29.678,80.002c7.238-7.648,64.356-28.894,65.808-32.259,4.795-11.113-14.766-33.677,25.807-65.808-1.043-1.116,5.509-13.35-23.226-12.903-1.156,1.048-7.124-.705-27.097,15.484-5.685,4.608-7.643,12.139-11.613,15.484Z"/>
      <path class="cls-12" d="M1404.126,840.693c-18.63-32.406-.782,7.783-9.032,16.775.783,15.933,25.735-7.204,30.968-11.613,3.97-3.345,5.928-10.876,11.613-15.484,19.973-16.189,25.942-14.436,27.097-15.484,5.59-5.071,44.702-43.673,46.453-46.453,37.252-59.138-94.331,76.713-107.099,72.259Z"/>
      <path class="cls-9" d="M1393.803,817.467c-8.727,9.616-22.825,16.917-23.226,30.968,5.032,1.829,29.721-28.909,23.226-30.968Z"/>
      <path class="cls-12" d="M475.075,559.397c7.909,8.865,51.101,36.523,52.904,45.162,2.202,10.553-16.762,18.579-11.613,29.678,45.495-41.001-1.036-60.698-41.291-74.84Z"/>
      <path class="cls-28" d="M561.529,1071.665c-.057.284-.109.556-.164.835h.38c-.072-.279-.141-.548-.215-.835Z"/>
      <path class="cls-33" d="M601.53,693.593q-22.581,16.129-45.162,32.259c1.603,3.457,61.069-13.679,12.903-7.742-.101-2.498,47.907-25.102,32.259-24.517Z"/>
      <path class="cls-12" d="M534.431,657.464c5.739-14.07,8.999-28.632,5.161-43.872-8.454,3.875-7.526,43.446-5.161,43.872Z"/>
      <path class="cls-33" d="M557.658,732.304h-2.581c36.635,27.794,53.307,22.991,2.581,0Z"/>
      <path class="cls-10" d="M1217.026,999.406c-.417-2.031-13.295,5.073-41.291-3.871v6.452c-51.671-12.036-73.585-45.853-87.744-94.195-.232-.793.226-1.786,0-2.581-22.245-30.612,18.596,44.96-5.161,54.195,20.299,59.392,19.888,64.971,23.785,113.095h89.414c-2.229-5.68-12.542-21.292,20.997-73.094Z"/>
      <path class="cls-23" d="M1087.991,887.146c4.122,5.232,9.04,10.09,12.903,15.484,12.241-9.163,40.036,40.85,60.646,54.195,28.091,18.188,47.481,12.304,78.711,10.323,13.886-25.971-18.828,8.47-61.937-18.065-13.6-8.371-21.392-24.011-30.968-36.13q-49.678-51.614-99.357-103.228h-11.613c1.691,27.624.598,27.005,33.549,59.356,10.044,9.861,11.835-6.748,18.065,18.065Z"/>
      <path class="cls-1" d="M1096.824,1072.5h4.981c-1.284-7.781-2.463-11.757-4.981,0Z"/>
      <path class="cls-6" d="M1247.755,1072.5h37.774c.394-2.318.786-4.736,1.176-7.287-2.728-3.454-6.831-3.315-7.742-7.742-8.426,5.703-21.222,9.675-30.968,12.903-.089.701-.168,1.41-.239,2.125Z"/>
      <path class="cls-23" d="M1087.991,905.211c-.247-.869,2.544-7.932,0-18.065-6.23-24.812-8.021-8.203-18.065-18.065q-11.613-1.29-23.226-2.581c9.718,32.025,25.504,61.815,36.13,92.905,23.757-9.235-17.084-84.806,5.161-54.195Z"/>
      <path class="cls-6" d="M1015.731,675.529c-.929-11.47.67-23.325,0-34.839-2.055-3.639-17.299,3.027-20.646,3.871q5.161,51.614,10.323,103.228c21.922,15.003,15.966-2.61,10.323-72.259Z"/>
      <path class="cls-32" d="M995.086,644.56c-4.073,1.027-15.863-1.818-18.065,1.29-4.291,49.054,20.627,88.914,23.226,99.357,1.691.42,3.798,1.648,5.161,2.581q-5.161-51.614-10.323-103.228Z"/>
      <path class="cls-16" d="M1258.317,980.051c.27,3.147-2.14,2.319-2.581,2.581-.504,2.842-1.611,7.961-2.581,10.323q7.742,28.388,15.484,56.775c.648-.236,9.794-2.519,10.323-2.581,3.59-10.313-9.405-45.195-15.484-61.937-.125-.343-5.011-4.829-5.161-5.161Z"/>
      <path class="cls-4" d="M1247.994,1005.858c-8.072,27.205-5.498,57.278-28.388,63.227,1.338,2.758,15.126-.45,18.065-1.29,1.555-.445,15.581-9.389,18.065-10.323q-3.871-25.807-7.742-51.614Z"/>
      <path class="cls-10" d="M1247.994,1070.375c-2.367.784-5.118,1.578-7.753,2.125h7.514c.071-.715.151-1.424.239-2.125Z"/>
      <path class="cls-7" d="M1268.64,1049.73q-7.742-28.388-15.484-56.775c-1.892,4.61-3.694,7.956-5.161,12.904q3.871,25.807,7.742,51.614c12.91-4.851,12.197-7.484,12.903-7.742Z"/>
      <path class="cls-37" d="M1255.736,1057.472c-2.484.933-16.51,9.878-18.065,10.323,4.486.426,1.386,1.598.162,4.706h2.407c2.635-.548,5.386-1.341,7.753-2.125,9.746-3.229,22.542-7.2,30.968-12.903,15.995-10.827,16.135-12.209,0-10.323-.528.062-9.675,2.344-10.323,2.581-.707.258.006,2.891-12.903,7.742Z"/>
      <path class="cls-28" d="M817.018,376.168c3.247-7.953,4.894-18.064,12.903-23.226,1.2-9.223,3.088-18.516,5.559-27.829-.965,2.799-1.954,5.622-2.978,8.473-10.406,28.991-46.047,65.524-33.549,130.325q6.452,1.29,12.903,2.581c-19.911-33.254-8.585-56.651,5.161-90.324Z"/>
      <path class="cls-28" d="M1013.151,220.035c17.557,21.645,48.696,95.965,59.356,125.164h2.581c-59.43-150.832-50.994-106.243-123.873-201.294-1.673-2.182-5.486-12.665-6.452-12.903-5.685,6.807-12.996,12.033-19.355,18.065-50.124,47.544-63.193,92.67-80.263,146.56,21.865-56.491,61.545-111.727,97.037-154.303,16.786,54.347,47.228,49.441,70.969,78.711Z"/>
      <path class="cls-37" d="M1081.446,537.413c11.314-10.396,37.118,25.293,55.578,41.339-.946,3.254-15.482-6.659-36.13-3.871q1.29,3.871,2.581,7.742c10.341-3.715,18.288-3.066,28.388,0,17.078,5.184,118.913,127.86,69.679,58.066-21.824-30.938-77.637-90.541-110.97-109.68-.421.59-.02-3.638-9.126,6.404Z"/>
      <path class="cls-12" d="M1077.668,399.394c-5.229.43,2.306,7.676,5.161,12.903,19.119,35,17.382,44.675,15.484,82.582-.027.531,2.828,2.133,2.581,10.323,12.502-18.445,12.192-41.683,5.161-61.937-1.519-4.376-16.091-26.667-20.646-33.549-2.411-3.644-5.258-6.823-7.742-10.323Z"/>
      <path class="cls-6" d="M1122.83,595.527c-10.809,7.696,20.092,8.58,12.903,41.291,39.347-23.942,32.813-22.161-12.903-41.291Z"/>
      <path class="cls-24" d="M1085.41,409.717c4.555,6.882,19.127,29.173,20.646,33.549,12.716,1.136-18.653-66.811-30.968-98.066h-2.581c13.332,36.518,29.948,77.661,12.903,64.517Z"/>
      <path class="cls-18" d="M1103.475,582.623c-.272.098-2.34,5.002-2.581,5.161,10.631,2.782,25.663,7.072,30.968-5.161-10.099-3.066-18.046-3.715-28.388,0Z"/>
      <path class="cls-1" d="M835.083,561.978c-15.619-15.039-23.902-13.553-1.29-51.614,2.247,3.377,6.201,5.185,9.032,7.742,12.035,8.345,2.145-10.936,20.646-7.742-8.45-9.097-7.457-23.428-21.936-33.549-4.714-.384-3.242,15.528,6.452,19.355,2.305,14.161-24.143-17.461-25.807-19.355-2.459-2.799-9.948-9.697-10.323-10.323q-6.452-1.29-12.903-2.581c6.84,35.466,25.051,21.561,0,65.808-38.048,19.626,15.299-57.896-30.968-20.646,1.349,4.715,25.975-15.672,1.29,32.259-102.026,45.368-79.091,45.465,10.323,5.161,10.215-.765,13.466,7.389,14.194,7.742,8.286,4.018,18.516,10.071,25.807,15.484,8.983.755.067-10.513,15.484-7.742Z"/>
      <path class="cls-12" d="M819.598,569.72c-7.291-5.414-17.521-11.466-25.807-15.484-18.129,4.75-53.752,29.822-56.775,30.968q58.711,16.775,117.422,33.549c17.753-6.667-27.625-43.677-34.839-49.033Z"/>
      <path class="cls-12" d="M622.206,1072.5h24.651c-7.041-30.774-2.204-72.268-38.875-53.739-1.286,8.134-4.72,20.607-7.742,28.388.82,13.786,10.575,19.025,21.966,25.352Z"/>
      <path class="cls-1" d="M817.018,791.66q2.581.645,5.161,1.29-21.936,52.259-43.872,104.518c-4.209,13.154-6.851,33.293-7.742,34.839-3.751,6.508-121.835,67.882-123.873,74.84-.917,3.131,6.274,37.111,12.493,65.352h169.681c.44-3.703.798-6.625,1.055-8.577,10.611-80.724,41.014-179.243,36.13-259.36-.612-10.035-14.859-89.162-19.355-90.324-6.441-1.665-31.963,67.397-87.744,98.066-16.531-7.544-6.268-8.995-3.871-15.484,4.601-12.456,27.592-48.411,36.13-56.775-8.89-15.191-87.621,33.139-110.97,49.033-22.774,37.824-32.074,108.309-43.872,136.777q1.936,3.871,3.871,7.742c19.607,3.796,138.222-125.222,176.778-141.938Z"/>
      <path class="cls-32" d="M1147.347,912.953c-10.196-12.902-64.663-93.564-67.098-101.938-6.876-23.643.616-24.294,15.484-6.452.365-4.051,5.663-3.312,7.742-1.29,15.908,15.465,71.728,108.925,92.905,135.487.421.199,1.315,3.522,7.742,5.161,59.151-59.071-98.156-241.079-167.745-234.843,2.104,29.921-1.71,72.715,0,100.647h11.613q49.678,51.614,99.357,103.228Z"/>
      <path class="cls-22" d="M832.502,422.62c26.008,44.284,67.209,111.931,118.712,123.873-.482-17.853-179.941-91.168-74.84-281.296,12.493-22.601,30.239-43.089,47.743-61.937-3.808,53.234-.66,37.13,9.032,38.71,17.455-.706,57.378-34.405,72.26-19.355,10.514,46.656,48.937,114.964,56.775,158.713,7.653,3.797,10.885,11.585,15.484,18.065,2.484,3.5,5.331,6.679,7.742,10.323,17.045,13.143.428-27.999-12.903-64.517-10.66-29.199-41.8-103.519-59.356-125.164-23.741-29.27-54.183-24.364-70.969-78.711-35.493,42.575-75.173,97.812-97.037,154.303-3.02,9.533-6.167,19.342-9.664,29.486-2.471,9.313-4.358,18.606-5.559,27.829-2.528,19.425.127,49.704,2.581,69.679Z"/>
      <path class="cls-22" d="M835.48,325.113c3.497-10.144,6.645-19.953,9.664-29.486-3.797,9.811-7.057,19.659-9.664,29.486Z"/>
      <path class="cls-22" d="M1204.122,943.921c65.495,16.704,29.921-41.625,33.549-83.873.405-4.722,17.477-21.975,0-12.904-24.496-78.132-121.122-130.057-197.423-143.229l-3.871,5.161c69.59-6.235,226.896,175.772,167.745,234.843Z"/>
      <path class="cls-2" d="M832.502,422.62c5.033,40.979,21.531,54.462-2.581,38.71.037.865-3.508,15.855-7.742,15.484,1.664,1.894,28.112,33.516,25.807,19.355-9.694-3.827-11.165-19.74-6.452-19.355,14.479,10.121,13.486,24.452,21.936,33.549,10.536,11.343,89.81,79.829,87.744,36.13-51.503-11.942-92.704-79.589-118.712-123.873Z"/>
      <path class="cls-4" d="M1058.313,489.718q-1.935-6.452-3.871-12.903c-5.064,9.832-49.066,61.941-64.517,61.937-3.234,8.169-5.819,30.196-9.032,41.291,24.198-4.446,41.522-20.173,60.646-33.549,13.181-20.322,18.777-44.336,25.807-67.098q-4.516,5.161-9.032,10.323Z"/>
      <path class="cls-15" d="M1082.83,412.297c1.322,30.941-8.52,44.549-15.484,67.098-7.03,22.762-12.626,46.776-25.807,67.098,21.004-14.69,43.39-28.712,56.775-51.614,1.897-37.907,3.635-47.582-15.484-82.582Z"/>
      <path class="cls-32" d="M1069.926,551.655c-28.332,25.505-112.315,48.043-81.292,67.098,45.036-10.226,47.533-15.638,69.679-54.195-8.468,43.722-29.921,43.292,6.452,25.807.583-12.464,13.984-26.686,5.161-38.71Z"/>
      <path class="cls-10" d="M924.117,203.261c-17.504,18.848-35.249,39.336-47.743,61.937,21.363,8.891,78.832-5.004,92.905-27.097-1.743-4.004-18.032,6.822-36.13,3.871-9.692-1.58-12.84,14.524-9.032-38.71Z"/>
      <path class="cls-22" d="M1137.024,578.752c-18.46-16.046-44.264-51.735-55.578-41.339-.384.423-.779.863-1.197,1.338-3.314,3.767-6.692,9.635-10.323,12.904,8.823,12.024-4.578,26.247-5.161,38.71,6.419-3.086,31.979-14.924,36.13-15.484,20.648-2.788,35.184,7.125,36.13,3.871Z"/>
      <path class="cls-4" d="M1054.442,476.815q1.936,6.452,3.871,12.903,4.516-5.161,9.032-10.323c6.965-22.549,16.806-36.157,15.484-67.098-2.855-5.227-10.391-12.473-5.161-12.903-4.599-6.48-7.832-14.268-15.484-18.065,2.279,12.721,3.833,28.521,2.581,41.291,7.754,8.05-5.572,44.972-10.323,54.195Z"/>
      <path class="cls-6" d="M1054.442,476.815c4.751-9.222,18.076-46.145,10.323-54.195-5.786,58.985-59.523,77.433-74.84,116.131,15.452.005,59.453-52.105,64.517-61.937Z"/>
      <path class="cls-22" d="M829.921,461.331c-.1-2.346-11.751-34.12-12.903-45.162-1.947-18.654,5.518-34.965,0-40.001-13.747,33.674-25.072,57.07-5.161,90.324.375.626,7.863,7.523,10.323,10.323,4.234.37,7.779-14.619,7.742-15.484Z"/>
      <path class="cls-23" d="M817.018,416.168c1.153,11.042,12.803,42.816,12.903,45.162,24.112,15.752,7.614,2.268,2.581-38.71-2.453-19.975-5.108-50.254-2.581-69.679-8.01,5.162-9.657,15.273-12.903,23.226,5.518,5.036-1.947,21.347,0,40.001Z"/>
      <path class="cls-28" d="M600.239,1047.149c-2.651,6.824,1.477,18.333-18.065-1.29,16.959-58.562-1.857-37.621-2.581,5.161h-23.226c9.729,9.671,26.981,11.428,35.732,21.481h30.106c-11.392-6.327-21.147-11.565-21.966-25.352Z"/>
      <path class="cls-1" d="M646.857,1072.5h12.329c-6.22-28.242-13.411-62.222-12.493-65.352,2.038-6.958,120.122-68.332,123.873-74.84.891-1.546,3.533-21.685,7.742-34.839,11.494-35.922,18.593-73.101,38.71-105.809-38.556,16.717-157.17,145.735-176.778,141.938q-1.936-3.871-3.871-7.742c-5.469,13.197-13.279,26.76-18.065,14.194,3.275-32.053,19.908-176.191-9.032-78.711,24.28-22.055,12.767,22.146,2.581,61.937-4.481-61.481-2.428,17.175-9.032,40.001h-5.161c-13.412-35.707-2.762-4.763-5.161,28.388,27.429-24.683,18.132,10.345,15.484,27.097,36.672-18.528,31.834,22.966,38.875,53.739ZM770.565,853.597c5.359-4.325,12.493-12.605,2.581,0-3.863,8.429-11.01,15.084-15.484,23.226-.482.878-1.414,13.591-5.161,19.355-12.116,18.634-46.612,46.48-49.033,29.678-5.391,3.784-67.107,40.1-69.679,32.259,57.26-20.339,91.845-68.255,136.777-104.518ZM602.82,971.018q3.226-4.516,6.452-9.032c21.124,3.445-5.867,24.34-6.452,9.032Z"/>
      <path class="cls-27" d="M817.018,791.66c-20.117,32.707-27.216,69.886-38.71,105.809q21.936-52.259,43.872-104.518-2.581-.645-5.161-1.29Z"/>
      <path class="cls-6" d="M703.467,925.856c20.17-14.158,35.506-33.284,54.195-49.033,4.474-8.142,11.622-14.797,15.484-23.226h-2.581c-44.931,36.263-79.517,84.179-136.777,104.518,2.571,7.841,64.288-28.475,69.679-32.259Z"/>
      <path class="cls-20" d="M752.5,896.178c3.748-5.764,4.679-18.478,5.161-19.355-18.688,15.75-34.025,34.875-54.195,49.033,2.421,16.802,36.918-11.044,49.033-29.678Z"/>
      <path class="cls-22" d="M609.272,961.986q-3.226,4.516-6.452,9.032c.584,15.308,27.575-5.588,6.452-9.032Z"/>
      <path class="cls-19" d="M770.565,853.597h2.581c9.912-12.605,2.778-4.325-2.581,0Z"/>
      <path class="cls-28" d="M791.211,740.046c2.6-2.547,32.852-26.778,30.968-16.775q-33.549,36.775-67.098,73.55c-2.397,6.489-12.66,7.94,3.871,15.484,55.781-30.669,81.303-99.732,87.744-98.066,4.496,1.163,18.743,80.289,19.355,90.324,3.875-2.95,7.408-2.346,7.742-2.581.052-26.84,15.117-45.001,36.13-61.937,17.958-14.473,33.05-37.327,64.517-6.452q-2.581.645-5.161,1.29c3.509,1.827,18.622,7.001,19.355,7.742,5.734,5.797-15.019,3.683,11.613,15.484.161-1.551.156-12.277,0-12.904-2.599-10.442-27.517-50.303-23.226-99.357,2.202-3.108,13.992-.264,18.065-1.29,3.347-.844,18.591-7.511,20.646-3.871.67,11.515-.929,23.369,0,34.839,11.144,1.606-.719-21.589,10.323-16.775-.045,31.409,7.577,39.121,7.742,41.291,1.484,19.487-4.238,117.837-2.581,129.035,3.213,21.714,49.118,39.931,14.194,32.259-8.222,6.793,1.134,4.645,1.29,5.161q11.613,1.29,23.226,2.581c-32.951-32.351-31.858-31.732-33.549-59.356-1.71-27.933,2.104-70.727,0-100.647l3.871-5.161c76.301,13.171,172.927,65.096,197.423,143.229,17.477-9.071.405,8.182,0,12.904-3.628,42.248,31.946,100.577-33.549,83.873-6.427-1.639-7.321-4.963-7.742-5.161-42.955-20.313-70.719-98.282-100.647-134.196-14.868-17.842-22.36-17.192-15.484,6.452,2.435,8.373,56.902,89.035,67.098,101.938,9.576,12.119,17.368,27.759,30.968,36.13,26.341,5.849,37.704,11.915,65.808,2.581,9.045,26.454.267-7.097,11.613-5.161-24.422-86.467,2.296-102.084,0-107.099-1.351-2.953-34.275-7.883-18.065-54.195,6.884-19.668,16.431-6.35,18.065-10.323,2.421-5.886-47.251-101.53-56.775-113.551-13.829-8.287,9.685,21.839,12.903,28.388,14.071,28.634,41.926,84.006,24.517,83.873-74.381-95.647-198.009-68.405-202.585-78.711-1.153-2.597-3.675-54.153-2.581-56.775,2.592-6.212,83.671-29.485,76.131-37.42-8.11-8.535-32.151,4.086-6.452-12.904.241-.159,2.309-5.064,2.581-5.161q-1.29-3.871-2.581-7.742c-4.151.56-29.711,12.398-36.13,15.484-36.372,17.485-14.92,17.915-6.452-25.807-22.146,38.556-24.643,43.969-69.679,54.195-31.023-19.055,52.96-41.593,81.292-67.098,3.631-3.268,7.009-9.137,10.323-12.904.378-.514.779-.954,1.197-1.338,9.105-10.042,8.705-5.814,9.126-6.404.807-1.131-5.78.043,10.323-25.807.247-8.19-2.607-9.791-2.581-10.323-13.386,22.902-35.772,36.924-56.775,51.614-19.124,13.376-36.449,29.103-60.646,33.549,3.214-11.096,5.799-33.122,9.032-41.291,15.317-38.698,69.054-57.146,74.84-116.131,1.253-12.77-.302-28.57-2.581-41.291-7.838-43.748-46.262-112.057-56.775-158.713-14.881-15.05-54.805,18.65-72.26,19.355,18.098,2.951,34.387-7.875,36.13-3.871-14.073,22.093-71.543,35.988-92.905,27.097-105.1,190.128,74.358,263.443,74.84,281.296,2.066,43.699-77.208-24.787-87.744-36.13-18.501-3.194-8.611,16.087-20.646,7.742,29.828,26.94,51.689,67.458,82.582,94.195-8.084,11.623-80.595-40.955-90.324-50.324-15.417-2.771-6.501,8.497-15.484,7.742,7.215,5.357,52.592,42.366,34.839,49.033q-58.711-16.774-117.422-33.549c-44.579,16.899-32.669-2.878-34.839-2.581-2.602.357-23.779,39.706-34.839,34.839-.552-.243,7.304-11.016-2.581-2.581-16.068,34.257-16.883,73.011-28.388,108.389-.723,2.223-18.055,5.355-15.484,41.291,1.029,14.382,16.423,35.957,11.613,68.388,5.401-23.444,29.518-31.465,47.743-43.872,23.349-15.894,102.08-64.224,110.97-49.033ZM939.601,680.69q3.226,5.807,6.452,11.613c-26.547,20.049-17.589,9.114-6.452-11.613ZM955.085,685.851q5.807.645,11.613,1.29c9.046,27.571-2.852,19.853-11.613-1.29ZM962.827,618.753q3.226,3.226,6.452,6.452c-7.52,55.419-19.617,37.859-6.452-6.452ZM965.408,497.46h15.484c7.333,15.226-22.839,4.19-15.484,0ZM967.989,476.815q3.226.645,6.452,1.29c-3.486,24.437-42.77,1.069-6.452-1.29ZM970.569,430.362c-21.786,5.381-78.597-16.255-20.646-15.484,1.56.021,5.512,10.393,28.388-2.581,14.005-1.193,3.222,15.357-7.742,18.065ZM969.279,244.552c5.15-4.87,9.151-22.145,18.065-7.742,16.1.278,41.006,46.228,34.839,49.033-59.555-44.636-87.192-8.866-52.904-41.291ZM935.73,288.424c29.567-16.956,62.727-24.258,72.26,16.775,16.526,71.133-36.694,103.11-98.067,73.55-43.642-21.02-4.215-73.108,25.807-90.324ZM916.375,476.815c13.657,14.879,39.363,21.85,41.291,23.226,36.777,26.258-20.65,7.552-41.291-23.226ZM935.73,669.077q.645-.645,1.29-1.29c15.759-6.632,49.015,19.292-1.29,1.29ZM921.536,567.139c22.66,2.311,26.155-.28,15.484,20.646q-7.742-10.323-15.484-20.646ZM904.761,638.108q4.516-3.226,9.032-6.452c2.358,7.564-11.921,18.487-9.032,6.452ZM899.6,649.721c31.169,20.052,10.693,10.901,0,28.388-9.945,16.263-2.439,22.066-2.581,23.226l3.871,2.581c43.289-65.162,12.207,4.772-3.871,28.388-1.569,12.773-8.299,24.152-23.226,19.355q-1.29-51.614-2.581-103.228c24.132-15.784,21.974-2.836,28.388,1.29ZM651.853,768.434c-4.798,3.552-9.935,21.772-15.484,16.775-19.631-47.036,1.593-52.394,5.161-64.517,4.145-14.081,20.831-88.759,23.226-92.905,2.959-5.122,60.216-34.165,56.775-14.194,15.33-2.06,132.074,34.749,138.067,38.71,5.053,3.34,3.422,5.932,3.871,10.323.106,1.035-3.345,3.324-2.581,20.646.207,4.695,6.362,31.026,1.29,33.549-10.565-23.603-27.892-9.549-37.42-30.968-.189-.425-3.046-1.185-5.161-7.742-10.615,5.395-11.372,12.767-16.775,15.484-47.928,24.105-107.866,42.93-150.971,74.84Z"/>
      <path class="cls-28" d="M1080.249,538.752c.418-.476.813-.915,1.197-1.338-.418.384-.819.825-1.197,1.338Z"/>
      <path class="cls-22" d="M891.858,764.563c8.391-13.888,26.288-23.015,18.065-24.517-21.012,16.935-36.078,35.097-36.13,61.937,7.313-5.134,12.765-28.649,18.065-37.42Z"/>
      <path class="cls-27" d="M791.211,740.046c-8.537,8.364-31.529,44.32-36.13,56.775q33.549-36.775,67.098-73.55c1.884-10.004-28.368,14.227-30.968,16.775Z"/>
      <path class="cls-12" d="M833.792,510.364c-22.611,38.061-14.328,36.575,1.29,51.614,9.729,9.368,82.24,61.946,90.324,50.324-30.893-26.737-52.754-67.256-82.582-94.195-2.832-2.557-6.786-4.365-9.032-7.742Z"/>
      <path class="cls-22" d="M721.532,613.592c3.44-19.971-53.816,9.072-56.775,14.194-2.396,4.146-19.081,78.824-23.226,92.905-3.569,12.123-24.793,17.481-5.161,64.517,5.549,4.998,10.686-13.223,15.484-16.775-26.017-19.065,22.539-148.508,69.679-154.842Z"/>
      <path class="cls-2" d="M897.019,732.304c.189-1.537-3.526-2.014,0-30.968.141-1.16-7.364-6.963,2.581-23.226v-28.388c-6.414-4.126-4.255-17.074-28.388-1.29q1.29,51.614,2.581,103.228c14.927,4.797,21.657-6.582,23.226-19.355Z"/>
      <path class="cls-6" d="M1095.733,804.563c29.928,35.914,57.693,113.883,100.647,134.196-21.177-26.561-76.997-120.021-92.905-135.487-2.079-2.022-7.377-2.76-7.742,1.29Z"/>
      <path class="cls-10" d="M862.18,716.82c5.072-2.523-1.083-28.854-1.29-33.549q-18.065,1.29-36.13,2.581c9.528,21.419,26.855,7.365,37.42,30.968Z"/>
      <path class="cls-30" d="M897.019,732.304c16.078-23.616,47.16-93.55,3.871-28.388l-3.871-2.581c-3.526,28.954.189,29.432,0,30.968Z"/>
      <path class="cls-4" d="M824.76,685.851q18.065-1.29,36.13-2.581c-.764-17.321,2.687-19.611,2.581-20.646-15.238,9.994-37.164,12.075-43.872,15.484,2.115,6.557,4.972,7.317,5.161,7.742Z"/>
      <path class="cls-29" d="M899.6,649.721v28.388c10.693-17.486,31.169-8.335,0-28.388Z"/>
      <path class="cls-35" d="M969.279,625.205q-3.226-3.226-6.452-6.452c-13.165,44.311-1.069,61.871,6.452,6.452Z"/>
      <path class="cls-6" d="M921.536,567.139q7.742,10.323,15.484,20.646c10.671-20.925,7.176-18.334-15.484-20.646Z"/>
      <path class="cls-35" d="M946.053,692.303q-3.226-5.807-6.452-11.613c-11.137,20.727-20.096,31.662,6.452,11.613Z"/>
      <path class="cls-31" d="M955.085,685.851c8.761,21.144,20.659,28.862,11.613,1.29q-5.807-.645-11.613-1.29Z"/>
      <path class="cls-22" d="M935.73,669.077c50.305,18.001,17.049-7.922,1.29-1.29q-.645.645-1.29,1.29Z"/>
      <path class="cls-3" d="M913.794,631.657q-4.516,3.226-9.032,6.452c-2.889,12.036,11.391,1.112,9.032-6.452Z"/>
      <path class="cls-10" d="M819.598,678.109c6.708-3.409,28.634-5.49,43.872-15.484-.45-4.391,1.182-6.983-3.871-10.323-5.993-3.962-122.738-40.77-138.067-38.71-47.14,6.334-95.696,135.777-69.679,154.842,43.105-31.91,103.043-50.736,150.971-74.84,5.402-2.717,6.159-10.09,16.775-15.484ZM706.048,638.108c-65.743,136.677-56.224,67.783,1.29-11.613q-.645,5.807-1.29,11.613Z"/>
      <path class="cls-1" d="M706.048,638.108q.645-5.807,1.29-11.613c-57.515,79.396-67.033,148.291-1.29,11.613Z"/>
      <path class="cls-7" d="M1022.183,285.843c6.167-2.805-18.739-48.755-34.839-49.033,19.925,18.707,6.403,18.546-18.065,7.742-34.287,32.425-6.651-3.345,52.904,41.291Z"/>
      <path class="cls-39" d="M987.344,236.81c-8.914-14.403-12.915,2.872-18.065,7.742,24.468,10.804,37.99,10.965,18.065-7.742Z"/>
      <path class="cls-22" d="M978.311,412.297c-22.876,12.974-26.828,2.601-28.388,2.581-57.951-.771-1.141,20.866,20.646,15.484,10.964-2.708,21.747-19.257,7.742-18.065Z"/>
      <path class="cls-35" d="M957.666,500.041c-1.928-1.376-27.635-8.347-41.291-23.226,20.641,30.778,78.068,49.484,41.291,23.226Z"/>
      <path class="cls-38" d="M974.44,478.105q-3.226-.645-6.452-1.29c-36.318,2.359,2.966,25.727,6.452,1.29Z"/>
      <path class="cls-34" d="M965.408,497.46c-7.355,4.19,22.818,15.226,15.484,0h-15.484Z"/>
      <path class="cls-21" d="M940.891,342.619c-9.071-18.958-23.219-5.78-5.161-54.195-30.022,17.217-69.449,69.304-25.807,90.324q10.323-3.226,20.646-6.452c-48.447-21.293-.406-52.19,10.323-29.678Z"/>
      <path class="cls-22" d="M1007.989,305.198c-9.533-41.033-42.693-33.73-72.26-16.775-18.058,48.414-3.91,35.237,5.161,54.195,3.469,7.249,5.935,10.014,1.29,18.065-3.206-.608.089-15.171-1.29-18.065-10.729-22.512-58.77,8.385-10.323,29.678q-10.323,3.226-20.646,6.452c61.372,29.56,114.593-2.417,98.067-73.55ZM987.344,363.264c7.264-12.048-4.619-1.779-2.581-10.323.602-2.524,2.574-2.964,2.581-5.161.092-7.565,15.707-9.548,15.484-2.581-2.128,6.813-5.13,8.85-10.323,12.903-.367.286,1.397,5.949-5.161,7.742-11.904,2.064-14.079-10.572,0-2.581ZM915.084,354.232q3.226-5.807,6.452-11.613c14.642-4.183,12.601,36.576-6.452,11.613Z"/>
      <path class="cls-28" d="M921.536,342.619q-3.226,5.807-6.452,11.613c19.053,24.963,21.094-15.796,6.452-11.613Z"/>
      <path class="cls-33" d="M992.505,358.103c-.927-8.769.287-14.094,10.323-12.903.222-6.967-15.392-4.984-15.484,2.581,5.636,1.827,2.107,6.574-2.581,5.161-2.038,8.544,9.845-1.726,2.581,10.323v2.581c6.558-1.793,4.795-7.456,5.161-7.742Z"/>
      <path class="cls-28" d="M992.505,358.103c5.193-4.053,8.195-6.09,10.323-12.903-10.036-1.19-11.25,4.134-10.323,12.903Z"/>
      <path class="cls-19" d="M942.182,360.683c4.644-8.051,2.178-10.816-1.29-18.065,1.379,2.894-1.916,17.457,1.29,18.065Z"/>
      <path class="cls-28" d="M987.344,365.845v-2.581c-14.079-7.992-11.904,4.645,0,2.581Z"/>
      <path class="cls-28" d="M987.344,347.78c-.007,2.197-1.979,2.638-2.581,5.161,4.687,1.413,8.216-3.335,2.581-5.161Z"/>
      <path class="cls-28" d="M1244.123,951.663c-28.104,9.335-39.466,3.268-65.808-2.581,43.109,26.535,75.822-7.906,61.937,18.065-53.531,54.724-109.549-22.907-139.358-64.517-3.864-5.394-8.781-10.252-12.903-15.484,2.544,10.133-.247,17.196,0,18.065.226.795-.232,1.788,0,2.581,21.928,28.656,51.934,76.304,87.744,87.744,27.997,8.944,40.874,1.84,41.291,3.871-33.539,51.803-23.226,67.414-20.997,73.094h41.805c1.224-3.108,4.323-4.28-.162-4.706-2.939.841-16.727,4.048-18.065,1.29,22.89-5.949,20.316-36.022,28.388-63.227,1.468-4.947,3.269-8.294,5.161-12.904.969-2.361,2.077-7.481,2.581-10.323-9.93,5.901-28.046,30.416-24.517,10.323q14.194-11.613,28.388-23.226c4.222,4.943-1.871,9.035-1.29,10.323.15.333,5.037,4.818,5.161,5.161,15.634-27.022-3.492-19.585-7.742-24.517-3.402-3.948,1.07-10.405,0-14.194-11.346-1.936-2.569,31.616-11.613,5.161Z"/>
      <path class="cls-28" d="M1101.805,1072.5h4.809c-3.897-48.124-3.486-53.703-23.785-113.095-10.626-31.09-26.412-60.88-36.13-92.905-.157-.517-9.513,1.631-1.29-5.161,34.924,7.673-10.98-10.545-14.194-32.259-1.657-11.198,4.064-109.548,2.581-129.035-.165-2.17-7.787-9.882-7.742-41.291-11.042-4.814.822,18.381-10.323,16.775,5.643,69.65,11.6,87.262-10.323,72.259-1.363-.933-3.47-2.16-5.161-2.581.156.626.161,11.352,0,12.904-3.623,34.862-9.054,7.532-21.936,2.581-15.254,47.917-41.068-1.693-14.194-21.936-23.89,11.267-15.894,3.865-19.355,3.871-35.231.065-14.849-28.237,24.517-7.742q2.581-.645,5.161-1.29c-31.467-30.875-46.56-8.021-64.517,6.452,8.223,1.502-9.674,10.629-18.065,24.517-5.299,8.771-10.752,32.286-18.065,37.42-.334.234-3.868-.369-7.742,2.581,4.884,80.117-25.519,178.636-36.13,259.36-.257,1.952-.615,4.874-1.055,8.577h267.958c2.518-11.757,3.698-7.781,4.981,0ZM1004.118,776.176c22.686,20.754-20.024,1.47-1.29,24.517-11.448,10.894-13.869-18.908,1.29-24.517ZM986.053,809.725l2.581-7.742c7.727-1.591,1.972,9.853-2.581,7.742ZM980.892,773.595c-8.151,38.328,12.571,7.261,9.032,21.936-43.572,19.357-26.565,2.238-9.032-21.936ZM955.085,822.628c13.679-20.049-2.984,10.259,2.581,12.903-.436-12.536,29.083-4.756,29.678-1.29-22.038,31.146-.357,9.002,18.065,16.775,8.99-.899,10.42,2.82,2.581,2.581-22.971,12.123-69.624,37.08-47.743,67.098,12.825-16.875,14.578-4.547,15.484-5.161,14.746-10.004,22.42-43.925,9.032,1.29,23.47-.424-15.247,9.153-15.484,12.903-.213,3.364,24.912,5.644-28.388,15.484,21.129-10.54-23.211-18.263-15.484-30.968,8.006,1.741,18.385-.515,21.936,9.032,23.973-44.725-41.6-44.617-11.613-63.227-2.013-24.461-28.591,21.346-12.903-18.065,20.543-1.393,4.181-4.895,5.161-7.742.568-1.651,27.417-21.699,27.097-11.613ZM1009.28,889.726q.645.645,1.29,1.29c2.193,7.001-20.992,16.141-1.29-1.29ZM997.666,952.953q3.226-3.226,6.452-6.452c4.041,1.892-5.146,28.915-6.452,6.452ZM995.086,955.534c-6.361,30.17-7.168-1.849-1.29-1.29q.645.645,1.29,1.29ZM978.311,892.307c1.614-.221,3.398-.307,3.871,1.29,2.204,7.444-15.555.312-3.871-1.29ZM971.86,960.696q5.807-1.935,11.613-3.871c4.464,1.044-5.168,32.89-11.613,3.871ZM957.666,995.535c16.67-1.038,4.664,5.877-5.161,5.161q2.581-2.581,5.161-5.161ZM955.085,969.728q3.226,7.097,6.452,14.194c-19.236,6.527-17.363.4-6.452-14.194ZM965.408,967.147q.645.645,1.29,1.29c6.417,24.268-6.692,27.513-1.29-1.29ZM911.213,928.437q10.968,4.516,21.936,9.032c-.626,3.168-23.05-2.464-21.936-9.032ZM917.665,963.276q4.516-3.226,9.032-6.452c2.505,9.046-12.588,19.22-9.032,6.452ZM918.955,915.533c12.517,15.519-7.387,7.475-12.903,0h12.903ZM906.052,876.823c1.965,0,1.965,7.742,0,7.742s-1.965-7.742,0-7.742ZM918.955,866.5q.645.645,1.29,1.29c3.01,7.705-11.198,14.844-1.29-1.29ZM909.923,823.919q1.936-1.936,3.871-3.871c6.728,1.05,6.96,22.363-3.871,3.871ZM902.181,834.241q.645-.645,1.29-1.29c18.913,2.01,12.373,14.357-1.29,1.29ZM903.471,845.854c-.287.033-5.214-3.768-2.581-5.161,6.641-3.514,7.455,4.597,2.581,5.161ZM906.052,851.016q3.226,1.935,6.452,3.871c-10.567,12.189-17.604,12.691-6.452-3.871ZM891.858,952.953q3.226-1.935,6.452-3.871c10.564-1.143-10.506,20.674-6.452,3.871ZM906.052,964.567c4.456-2.653,11.864,2.538,0,7.742-2.088-1.243-2.088-6.499,0-7.742ZM931.859,985.212q.645-.645,1.29-1.29l1.29-1.29q.645.645,1.29,1.29v2.581q-.645.645-1.29,1.29h-2.581q-.645-.645-1.29-1.29.645-.645,1.29-1.29ZM924.117,745.207c29.694,8.717,18.955,18.839,15.575,45.729-.017.248-.043.491-.09.723.029-.243.06-.482.09-.723.716-10.695-26.576-35.627-31.059-17.342-10.287-32.052,21.752-6.327,15.484-28.388ZM907.342,796.821c.384-2.183-11.512-18.559,9.032-15.484,8.459,26.373,1.21,13.051-9.032,15.484-.981,5.581-5.319,8.937-10.323,6.452.721-8.298,6.795-5.613,10.323-6.452ZM890.568,876.823c-2.513-.051,1.011-3.855,2.581-7.742,2.801,1.219,2.056,9.483-2.581,7.742ZM894.439,847.145c-2.871,5.905-8.852,2.292-9.032-3.871q4.516,1.935,9.032,3.871ZM885.406,851.016c12.003,8.73,1.138,10.192-1.29,6.452-.619-.953-.421-5.472,1.29-6.452ZM887.987,863.919q1.936.645,3.871,1.29c-6.756,12.496-11.121,11.366-3.871-1.29ZM890.568,1003.277l14.194,9.032c-13.482,17.831-22.466-7.977-14.194-9.032ZM900.89,1026.503q.645,3.226,1.29,6.452c-16.924,19.671-17.395,8.828-1.29-6.452ZM899.6,1051.02q4.516-7.097,9.032-14.194c3.348,1.157-2.59,25.415-9.032,14.194ZM993.795,1052.31c-3.217,1.129-2.118,21.745-16.775-2.581-4.335-7.195-10.223-35.616-12.903-21.936,9.608,17.33,2.929,34.182-11.613,40.001-7.022-18.98,13.088-47.635-11.613-21.936q-1.936-13.549-3.871-27.097c-5.911,16.992-4.531,2.284-5.161,2.581-4.221,1.988-27.028,46.365-16.775,11.613.4-1.356,12.789-18.759,9.386-18.915-.093.007-.187.013-.28.02-1.732.294-6.263,3.658-15.557,12.443q.645-5.807,1.29-11.613c5.132-.221,9.875-.514,14.267-.83.103-.017.196-.024.28-.02,38.637-2.803,49.558-7.452,51.261,17.625-2.742-39.549,17.752-6.592,33.549-30.968q1.936,3.871,3.871,7.742c4.215,61.65-10.27,40.683-19.355,43.872ZM1015.731,764.563q.645-.645,1.29-1.29c5.456,42.325-5.271,36.709-1.29,1.29Z"/>
      <path class="cls-28" d="M1285.529,1072.5h5.45c-1.01-2.468-2.382-4.892-4.274-7.287-.39,2.551-.782,4.969-1.176,7.287Z"/>
      <path class="cls-22" d="M927.988,834.241c-.981,2.847,15.382,6.35-5.161,7.742-15.687,39.411,10.891-6.396,12.903,18.065-29.987,18.61,35.586,18.502,11.613,63.227-3.551-9.547-13.93-7.292-21.936-9.032-7.727,12.705,36.613,20.428,15.484,30.968,53.3-9.84,28.175-12.12,28.388-15.484.238-3.75,38.954-13.328,15.484-12.903,13.388-45.215,5.714-11.294-9.032-1.29-.906.615-2.659-11.713-15.484,5.161-21.881-30.018,24.772-54.975,47.743-67.098q-1.29-1.29-2.581-2.581c-18.422-7.773-40.103,14.371-18.065-16.775-.595-3.466-30.115-11.246-29.678,1.29-5.565-2.644,11.099-32.953-2.581-12.903.319-10.085-26.529,9.962-27.097,11.613Z"/>
      <path class="cls-2" d="M1161.541,956.824c-20.61-13.344-48.405-63.357-60.646-54.195,29.808,41.611,85.826,119.242,139.358,64.517-31.23,1.981-50.62,7.865-78.711-10.323Z"/>
      <path class="cls-22" d="M944.762,742.627c3.461-.006-4.535,7.396,19.355-3.871-26.874,20.243-1.06,69.853,14.194,21.936,12.882,4.951,18.313,32.282,21.936-2.581-26.632-11.802-5.879-9.688-11.613-15.484-.733-.741-15.846-5.915-19.355-7.742-39.366-20.495-59.747,7.807-24.517,7.742Z"/>
      <path class="cls-32" d="M1175.735,1001.987v-6.452c-35.81-11.44-65.816-59.088-87.744-87.744,14.158,48.342,36.073,82.159,87.744,94.195Z"/>
      <path class="cls-22" d="M939.691,790.937c3.38-26.89,14.12-37.013-15.575-45.729,6.268,22.06-25.771-3.664-15.484,28.388,4.483-18.285,31.774,6.646,31.059,17.342Z"/>
      <path class="cls-22" d="M939.691,790.937c-.03.241-.061.48-.09.723.047-.232.074-.475.09-.723Z"/>
      <path class="cls-22" d="M989.924,795.531c3.539-14.675-17.183,16.392-9.032-21.936-17.533,24.174-34.539,41.293,9.032,21.936Z"/>
      <path class="cls-13" d="M1258.317,980.051c-.58-1.287,5.512-5.38,1.29-10.323q-14.194,11.613-28.388,23.226c-3.529,20.093,14.586-4.421,24.517-10.323.441-.262,2.851.567,2.581-2.581Z"/>
      <path class="cls-22" d="M1002.828,800.692c-18.733-23.046,23.976-3.762,1.29-24.517-15.159,5.608-12.739,35.41-1.29,24.517Z"/>
      <path class="cls-22" d="M916.375,781.337c-20.545-3.075-8.649,13.301-9.032,15.484,10.242-2.434,17.492,10.889,9.032-15.484Z"/>
      <path class="cls-22" d="M955.085,969.728c-10.911,14.594-12.784,20.721,6.452,14.194q-3.226-7.097-6.452-14.194Z"/>
      <path class="cls-22" d="M971.86,960.696c6.445,29.019,16.077-2.827,11.613-3.871q-5.807,1.936-11.613,3.871Z"/>
      <path class="cls-11" d="M1015.731,764.563c-3.981,35.419,6.746,41.035,1.29-1.29q-.645.645-1.29,1.29Z"/>
      <path class="cls-22" d="M918.955,915.533h-12.903c5.517,7.475,25.42,15.519,12.903,0Z"/>
      <path class="cls-22" d="M908.632,1026.503c9.295-8.786,13.826-12.149,15.557-12.443-4.392.317-9.135.609-14.267.83q-.645,5.807-1.29,11.613Z"/>
      <path class="cls-22" d="M988.634,1034.245c-.304-17.99,14.455-14.866,24.517-25.807q-1.935-3.871-3.871-7.742c-15.797,24.377-36.291-8.581-33.549,30.968-1.703-25.077-12.624-20.428-51.261-17.625,3.404.156-8.985,17.559-9.386,18.915-10.253,34.752,12.554-9.625,16.775-11.613.63-.297-.75,14.411,5.161-2.581q1.936,13.549,3.871,27.097c24.701-25.699,4.592,2.956,11.613,21.936,14.542-5.819,21.221-22.671,11.613-40.001,2.68-13.68,8.568,14.741,12.903,21.936,1.385-1.419,7.634-8.447,7.742-9.032,2.892-15.7-1.867-40.402,3.871-6.452Z"/>
      <path class="cls-22" d="M924.19,1014.06c.093-.007.187-.013.28-.02-.084-.004-.177.003-.28.02Z"/>
      <path class="cls-9" d="M988.634,1034.245c-5.738-33.95-.979-9.248-3.871,6.452-.108.585-6.357,7.613-7.742,9.032,14.656,24.326,13.557,3.71,16.775,2.581,9.086-3.189,23.57,17.778,19.355-43.872-10.062,10.941-24.821,7.817-24.517,25.807Z"/>
      <path class="cls-24" d="M904.761,1012.309l-14.194-9.032c-8.272,1.056.712,26.863,14.194,9.032Z"/>
      <path class="cls-24" d="M900.89,1026.503c-16.105,15.28-15.634,26.123,1.29,6.452q-.645-3.226-1.29-6.452Z"/>
      <path class="cls-22" d="M908.632,1036.826q-4.516,7.097-9.032,14.194c6.443,11.221,12.381-13.037,9.032-14.194Z"/>
      <path class="cls-33" d="M933.149,937.469q-10.968-4.516-21.936-9.032c-1.114,6.568,21.31,12.201,21.936,9.032Z"/>
      <path class="cls-26" d="M912.504,854.887q-3.226-1.935-6.452-3.871c-11.152,16.562-4.116,16.06,6.452,3.871Z"/>
      <path class="cls-22" d="M966.698,968.438q-.645-.645-1.29-1.29c-5.402,28.803,7.707,25.558,1.29,1.29Z"/>
      <path class="cls-7" d="M997.666,952.953c1.306,22.463,10.493-4.559,6.452-6.452q-3.226,3.226-6.452,6.452Z"/>
      <path class="cls-24" d="M926.697,956.824q-4.516,3.226-9.032,6.452c-3.555,12.768,11.537,2.594,9.032-6.452Z"/>
      <path class="cls-36" d="M898.31,949.082q-3.226,1.936-6.452,3.871c-4.054,16.803,17.016-5.014,6.452-3.871Z"/>
      <path class="cls-22" d="M913.794,820.048q-1.936,1.935-3.871,3.871c10.831,18.492,10.599-2.821,3.871-3.871Z"/>
      <path class="cls-22" d="M907.342,796.821c-3.528.838-9.601-1.846-10.323,6.452,5.004,2.485,9.342-.87,10.323-6.452Z"/>
      <path class="cls-22" d="M902.181,834.241c13.663,13.066,20.204.719,1.29-1.29q-.645.645-1.29,1.29Z"/>
      <path class="cls-8" d="M957.666,995.535q-2.581,2.581-5.161,5.161c9.826.716,21.832-6.199,5.161-5.161Z"/>
      <path class="cls-14" d="M1010.57,891.017q-.645-.645-1.29-1.29c-19.701,17.432,3.483,8.291,1.29,1.29Z"/>
      <path class="cls-35" d="M995.086,955.534q-.645-.645-1.29-1.29c-5.877-.558-5.07,31.46,1.29,1.29Z"/>
      <path class="cls-16" d="M906.052,972.309c11.864-5.204,4.456-10.395,0-7.742-2.088,1.243-2.088,6.499,0,7.742Z"/>
      <path class="cls-22" d="M988.634,801.983l-2.581,7.742c4.553,2.111,10.308-9.333,2.581-7.742Z"/>
      <path class="cls-24" d="M887.987,863.919c-7.25,12.656-2.885,13.786,3.871,1.29q-1.936-.645-3.871-1.29Z"/>
      <path class="cls-22" d="M885.406,851.016c-1.711.979-1.909,5.499-1.29,6.452,2.429,3.741,13.294,2.278,1.29-6.452Z"/>
      <path class="cls-22" d="M894.439,847.145q-4.516-1.935-9.032-3.871c.18,6.163,6.162,9.776,9.032,3.871Z"/>
      <path class="cls-16" d="M918.955,866.5c-9.907,16.134,4.3,8.995,1.29,1.29q-.645-.645-1.29-1.29Z"/>
      <path class="cls-34" d="M893.148,869.081c-1.569,3.887-5.094,7.691-2.581,7.742,4.637,1.741,5.382-6.523,2.581-7.742Z"/>
      <path class="cls-22" d="M978.311,892.307c-11.684,1.602,6.075,8.734,3.871,1.29-.473-1.597-2.257-1.512-3.871-1.29Z"/>
      <path class="cls-22" d="M903.471,845.854c4.874-.564,4.061-8.675-2.581-5.161-2.633,1.393,2.294,5.195,2.581,5.161Z"/>
      <path class="cls-7" d="M906.052,876.823c-1.965,0-1.965,7.742,0,7.742s1.965-7.742,0-7.742Z"/>
      <path class="cls-16" d="M1005.409,851.016q1.29,1.29,2.581,2.581c7.839.239,6.41-3.48-2.581-2.581Z"/>
      <path class="cls-5" d="M931.859,987.793h2.581q.645-.645,1.29-1.29v-2.581q-.645-.645-1.29-1.29l-1.29,1.29q-.645.645-1.29,1.29t-1.29,1.29q.645.645,1.29,1.29Z"/>
      <path class="cls-22" d="M592.497,1072.956c-.128-.156-.265-.303-.397-.455h-30.356"/>
      <path class="cls-22" d="M1571.265,772.876v4.41c.632-.364,1.265-.733,1.897-1.11.043-1.692-.652-2.746-1.897-3.3Z"/>
      <path class="cls-22" d="M1571.265,764.652v8.223c1.245.554,1.94,1.608,1.897,3.3,8.688,3.399,7.559-7.523-1.897-11.523Z"/>
      <line class="cls-22" x1="561.744" y1="1072.5" x2="561.365" y2="1072.5"/>
      <path class="cls-22" d="M1196.38,1074.246c.087-.456-.067-1.021-.351-1.746h-89.414"/>
      <line class="cls-22" x1="1101.805" y1="1072.5" x2="1096.824" y2="1072.5"/>
      <line class="cls-22" x1="1285.529" y1="1072.5" x2="1247.755" y2="1072.5"/>
      <path class="cls-22" d="M1247.755,1072.5h-7.514c-.875.182-1.738.337-2.57.455"/>
      <path class="cls-22" d="M1237.834,1072.5c-.058.148-.114.299-.162.455.831-.118,1.694-.273,2.57-.455h-2.407Z"/>
      <line class="cls-22" x1="646.857" y1="1072.5" x2="622.206" y2="1072.5"/>
      <path class="cls-22" d="M828.866,1072.5h-169.681"/>
      <path class="cls-22" d="M622.206,1072.5h-30.106c.132.152.269.3.397.455"/>
      <path class="cls-22" d="M592.497,1072.956"/>
      <line class="cls-22" x1="659.185" y1="1072.5" x2="646.857" y2="1072.5"/>
      <path class="cls-22" d="M1290.979,1072.5h-5.45M1096.824,1072.5h-267.958M1237.671,1072.956c.049-.157.104-.308.162-.455h-41.805c.284.725.438,1.29.351,1.746"/>
      <line class="cls-22" x1="1106.614" y1="1072.5" x2="1101.805" y2="1072.5"/>
    </g>
  </g>
</svg>