<?xml version="1.0" encoding="UTF-8"?>
<svg id="_レイヤー_1" data-name="レイヤー 1" xmlns="http://www.w3.org/2000/svg" version="1.1" viewBox="0 0 1920 1080">
  <defs>
    <style>
      .cls-1 {
        fill: #231815;
      }

      .cls-1, .cls-2 {
        stroke: #231815;
        stroke-linecap: round;
        stroke-linejoin: round;
        stroke-width: 3px;
      }

      .cls-2 {
        fill: #c6e2c1;
      }

      .cls-3 {
        fill: none;
        stroke-width: 0px;
      }
    </style>
  </defs>
  <polygon class="cls-1" points="1204.409 712.687 1205.57 767.384 1204.315 822.413 1205.57 877.441 1204.315 932.472 1205.476 987.833 1099.346 986.876 1014.973 988.13 949.172 986.876 826.463 988.13 736.684 987.125 735.556 942.367 736.811 897.229 735.556 852.093 736.811 806.954 735.561 761.894 729.654 757.51 721.118 754.151 712.703 749.634 703.051 745.961 697.775 741.341 703.372 740.504 713.005 740.92 721.439 740.083 729.958 740.499 735.757 739.829 736.183 734.704 735.556 729.118 736.183 723.531 734.929 717.944 736.285 712.975 826.461 711.729 949.167 712.984 1014.969 711.729 1099.341 712.984 1204.409 712.687"/>
  <polygon class="cls-2" points="1201.065 709.342 1202.225 764.039 1200.971 819.068 1202.225 874.097 1200.971 929.127 1202.131 984.488 1096.001 983.531 1011.629 984.785 945.827 983.531 823.118 984.785 733.339 983.78 732.211 939.022 733.466 893.885 732.211 848.748 733.466 803.609 732.216 758.549 724.08 754.165 715.544 750.806 706.013 746.289 699.706 742.616 694.43 737.996 700.027 737.159 709.66 737.575 715.864 736.738 724.383 737.154 732.412 736.484 732.839 731.359 732.211 725.773 732.839 720.186 731.584 714.599 732.94 709.63 823.116 708.384 945.823 709.639 1011.624 708.384 1095.996 709.639 1201.065 709.342"/>
  <rect class="cls-3" width="1920" height="1080"/>
</svg>