<?xml version="1.0" encoding="UTF-8"?>
<svg id="_レイヤー_1" data-name="レイヤー 1" xmlns="http://www.w3.org/2000/svg" version="1.1" viewBox="0 0 1920 1080">
  <defs>
    <style>
      .cls-1 {
        fill: #1b1f28;
      }

      .cls-1, .cls-2, .cls-3, .cls-4 {
        stroke-linecap: round;
        stroke-linejoin: round;
        stroke-width: 3px;
      }

      .cls-1, .cls-4 {
        stroke: #fff;
      }

      .cls-2 {
        fill: #231815;
      }

      .cls-2, .cls-3 {
        stroke: #231815;
      }

      .cls-3 {
        fill: #c6e2c1;
      }

      .cls-5 {
        fill: none;
        stroke-width: 0px;
      }

      .cls-4 {
        fill: #fff;
      }
    </style>
  </defs>
  <rect class="cls-5" width="1920" height="1080"/>
  <polygon class="cls-4" points="1165.685 98.86 1074.966 96.935 983.697 99.016 892.43 96.935 801.159 99.016 709.339 97.091 710.927 154.494 708.847 211.013 710.927 267.532 708.847 324.055 710.514 379.747 784.748 381.618 859.611 379.537 934.473 381.618 1009.338 379.537 1084.072 381.609 1091.344 391.406 1096.915 401.865 1104.405 412.124 1110.498 422.586 1118.16 431.336 1119.549 422.052 1118.859 411.623 1120.247 401.334 1119.557 390.903 1120.668 381.285 1129.168 380.577 1138.433 381.618 1147.699 380.577 1156.966 382.658 1165.206 380.409 1167.273 324.058 1165.192 267.54 1167.273 211.02 1165.192 154.503 1165.685 98.86"/>
  <polygon class="cls-1" points="1162.34 95.515 1071.621 93.59 980.353 95.671 889.085 93.59 797.814 95.671 705.994 93.746 707.582 151.15 705.502 207.668 707.582 264.188 705.502 320.71 707.169 376.402 781.403 378.273 856.266 376.192 931.128 378.273 1005.993 376.192 1080.727 378.265 1087.999 388.061 1093.57 398.521 1101.061 408.78 1107.153 419.241 1114.815 427.991 1116.204 418.707 1115.514 408.278 1116.902 397.989 1116.212 387.558 1117.324 377.94 1125.823 377.232 1135.088 378.273 1144.354 377.232 1153.621 379.313 1161.861 377.064 1163.928 320.713 1161.848 264.195 1163.928 207.676 1161.848 151.158 1162.34 95.515"/>
  <polygon class="cls-2" points="1170.973 712.687 1172.133 767.384 1170.879 822.413 1172.133 877.441 1170.879 932.472 1172.039 987.833 1065.909 986.876 981.537 988.13 915.735 986.876 793.026 988.13 703.247 987.125 702.119 942.367 703.374 897.229 702.119 852.093 703.374 806.954 702.124 761.894 696.218 757.51 687.681 754.151 679.266 749.634 669.614 745.961 664.338 741.341 669.935 740.504 679.568 740.92 688.002 740.083 696.521 740.499 702.32 739.829 702.747 734.704 702.119 729.118 702.747 723.531 701.492 717.944 702.848 712.975 793.024 711.729 915.731 712.984 981.532 711.729 1065.904 712.984 1170.973 712.687"/>
  <polygon class="cls-3" points="1167.628 709.342 1168.788 764.039 1167.534 819.068 1168.788 874.097 1167.534 929.127 1168.694 984.488 1062.564 983.531 978.192 984.785 912.39 983.531 789.681 984.785 699.902 983.78 698.775 939.022 700.029 893.885 698.775 848.748 700.029 803.609 698.78 758.549 690.643 754.165 682.107 750.806 672.576 746.289 666.269 742.616 660.993 737.996 666.591 737.159 676.223 737.575 682.427 736.738 690.946 737.154 698.975 736.484 699.402 731.359 698.775 725.773 699.402 720.186 698.147 714.599 699.503 709.63 789.679 708.384 912.386 709.639 978.187 708.384 1062.559 709.639 1167.628 709.342"/>
</svg>