<?xml version="1.0" encoding="UTF-8"?>
<svg id="_レイヤー_1" data-name="レイヤー 1" xmlns="http://www.w3.org/2000/svg" version="1.1" viewBox="0 0 1920 1080">
  <defs>
    <style>
      .cls-1 {
        fill: none;
      }

      .cls-1, .cls-2 {
        stroke-width: 0px;
      }

      .cls-2 {
        fill: #fff;
      }
    </style>
  </defs>
  <rect class="cls-1" width="1920" height="1080"/>
  <g>
    <path class="cls-2" d="M859.749,230.968c0,1.589-1.301,2.89-2.89,2.89s-2.891-1.301-2.891-2.89c0-1.638,1.301-2.891,2.891-2.891s2.89,1.252,2.89,2.891ZM875.79,230.968c0,1.589-1.3,2.89-2.89,2.89s-2.89-1.301-2.89-2.89c0-1.638,1.3-2.891,2.89-2.891s2.89,1.252,2.89,2.891ZM891.831,230.968c0,1.589-1.252,2.89-2.89,2.89-1.59,0-2.891-1.301-2.891-2.89,0-1.638,1.349-2.891,2.891-2.891,1.589,0,2.89,1.252,2.89,2.891Z"/>
    <path class="cls-2" d="M914.285,216.275c-7.274,5.974-13.199,7.804-13.44,7.804-.337,0-.771-.337-.771-.867,0-.578.289-.723,1.06-1.108,4.673-2.264,9.538-6.021,13.296-11.754.433-.626,1.06-1.542,2.264-1.542s2.168,1.012,2.168,2.167c0,.916-.482,1.686-2.553,3.565h19.317c1.252,0,2.409.578,2.409,1.782,0,1.927-9.394,11.513-20.184,17.438h18.546c4.287,0,5.203,1.156,5.203,4.48v8.912c0,3.565-1.156,4.528-5.203,4.528h-19.75c-4.239,0-5.154-1.205-5.154-4.528v-10.261c-6.407,2.746-10.598,3.806-11.08,3.806-.578,0-.867-.481-.867-.867,0-.626.53-.771.915-.915,3.372-1.06,10.212-3.324,17.101-7.948q-.723-.289-2.023-2.553c-1.975-3.42-3.806-5.443-4.673-6.455-.241-.241-.385-.482-.385-.771,0-.578.481-.867.867-.867.771,0,4.046,2.649,4.914,3.372,1.782,1.445,4.383,3.564,4.432,5.106,7.515-5.443,11.754-11.417,11.754-11.898,0-.53-.482-.626-.819-.626h-17.342ZM937.745,238.579c0-2.553-.481-3.083-3.083-3.083h-16.282c-2.601,0-3.083.482-3.083,3.083v8.238c0,2.601.434,3.131,3.083,3.131h16.282c2.553,0,3.083-.53,3.083-3.131v-8.238Z"/>
    <path class="cls-2" d="M990.017,216.613c.386,0,1.06.145,1.06.867,0,.819-.722.867-1.06.867h-41.668c-.337,0-1.06-.097-1.06-.819,0-.819.723-.916,1.06-.916h41.668ZM954.081,241.662v8.96c0,.626-.145,2.12-1.734,2.12-1.734,0-1.734-1.734-1.734-2.12v-23.459c0-3.468.723-4.384,5.058-4.384h6.07c4.527,0,5.105,1.108,5.105,4.384v21.099c0,2.264,0,4.288-4.335,4.288h-3.035c-.482,0-1.301,0-1.301-.867s.819-.867,1.301-.867h1.204c2.457,0,2.746-.578,2.746-2.746v-6.407h-9.345ZM963.426,230.968v-3.709c0-2.167-.289-2.746-2.746-2.746h-3.854c-2.36,0-2.746.481-2.746,2.746v3.709h9.345ZM963.426,239.928v-7.226h-9.345v7.226h9.345ZM963.378,214.012c0,1.108-.915,1.927-1.927,1.927-1.156,0-1.397-.482-2.457-2.602-.722-1.493-.915-1.83-1.734-3.179-.145-.241-.289-.481-.289-.674,0-.434.337-.867.867-.867.578,0,5.54,3.709,5.54,5.396ZM977.203,243.926c0,.434,0,2.168-1.782,2.168s-1.782-1.734-1.782-2.168v-16.86c0-.433,0-2.167,1.782-2.167s1.782,1.686,1.782,2.167v16.86ZM981.683,210.591c0,1.975-4.913,5.588-5.636,5.588-.434,0-.867-.385-.867-.867,0-.289,1.253-2.312,1.493-2.746.338-.674,1.108-2.698,1.35-3.083.385-.626,1.011-.867,1.686-.867,1.06,0,1.975.867,1.975,1.975ZM980.961,250.959c2.601,0,3.083-.53,3.083-3.131v-23.17c0-.434,0-2.072,1.782-2.072s1.782,1.638,1.782,2.072v23.845c0,3.613-1.927,4.191-5.203,4.191h-3.372c-.481,0-1.3,0-1.3-.867s.771-.867,1.3-.867h1.928Z"/>
    <path class="cls-2" d="M999.85,248.599c-.097-.723-.867-6.744-.867-13.922,0-9.394,1.397-19.461,1.542-20.329.145-1.156.385-2.601,2.022-2.601.964,0,1.976.674,1.976,1.782,0,.53-.771,4.528-.915,5.396-1.012,7.033-1.205,12.669-1.205,15.174,0,1.975.145,7.082,1.061,13.392.048.337.096.723.096,1.012,0,1.108-1.107,1.686-1.878,1.686-1.108,0-1.687-.722-1.831-1.589ZM1013.819,223.598c-.963,0-2.505,0-2.986-.048-.626-.048-.964-.578-.964-1.108,0-.481.386-1.108,1.253-1.108,3.564,0,9.008,0,13.729-.192,0-.771.049-4.191.049-4.914,0-.53-.049-3.083-.049-3.565,0-1.734,1.156-2.264,1.927-2.264,1.061,0,1.928.867,1.928,2.072,0,.53-.193,2.89-.241,3.372-.048.819-.145,4.383-.145,5.106,3.083-.145,3.564-.145,5.588-.337.337-.048,1.83-.241,2.119-.241.578,0,1.061.53,1.061,1.108,0,1.108-.675,1.205-8.815,1.734-.049,1.397-.145,8.526.529,14.981,3.998,1.542,8.768,4.384,8.768,6.166,0,.916-.771,1.782-1.879,1.782-.771,0-1.06-.337-2.408-1.589-1.687-1.542-3.132-2.457-4.336-3.18.049.482.145,2.794.145,2.987,0,4.962-5.106,6.07-8.285,6.07-1.59,0-9.827-.145-9.827-6.503,0-4.769,5.636-7.081,10.694-7.081,1.733,0,2.89.241,3.661.385-.482-4.962-.53-13.151-.482-13.874-2.408.048-8.719.241-11.031.241ZM1021.238,238.917c-3.758,0-7.033,2.264-7.033,5.154,0,2.794,2.794,4.143,5.685,4.143,2.601,0,5.684-.916,5.684-5.347,0-.771-.048-2.072-.096-3.18-.916-.289-2.265-.771-4.239-.771Z"/>
    <path class="cls-2" d="M1063.298,238.676c0-7.852,3.131-10.935,5.059-12.862,1.782-1.782,3.516-3.468,3.516-6.744,0-1.397-.433-6.118-6.358-6.118-1.06,0-5.396,0-5.877,4.817-.145,1.542-.337,3.324-2.312,3.324-.867,0-2.264-.626-2.264-2.409,0-3.42,3.372-7.755,10.646-7.755,5.011,0,10.453,1.927,10.453,8.189,0,4.046-2.36,6.214-5.539,9.249-3.228,3.035-3.228,6.359-3.228,9.297,0,1.493,0,3.468-2.071,3.468-.386,0-2.023,0-2.023-2.457ZM1068.212,247.105c0,1.59-1.301,2.891-2.891,2.891s-2.891-1.301-2.891-2.891c0-1.638,1.301-2.89,2.891-2.89s2.891,1.252,2.891,2.89Z"/>
  </g>
</svg>