<?xml version="1.0" encoding="UTF-8"?>
<svg id="_レイヤー_1" data-name="レイヤー 1" xmlns="http://www.w3.org/2000/svg" version="1.1" viewBox="0 0 1920 1080">
  <defs>
    <style>
      .cls-1 {
        fill: none;
      }

      .cls-1, .cls-2 {
        stroke-width: 0px;
      }

      .cls-2 {
        fill: #fff;
      }
    </style>
  </defs>
  <rect class="cls-1" width="1920" height="1080"/>
  <g>
    <path class="cls-2" d="M895.882,230.968c0,1.589-1.301,2.89-2.89,2.89s-2.891-1.301-2.891-2.89c0-1.638,1.301-2.891,2.891-2.891s2.89,1.252,2.89,2.891ZM911.923,230.968c0,1.589-1.301,2.89-2.891,2.89s-2.89-1.301-2.89-2.89c0-1.638,1.3-2.891,2.89-2.891s2.891,1.252,2.891,2.891ZM927.964,230.968c0,1.589-1.252,2.89-2.89,2.89-1.59,0-2.891-1.301-2.891-2.89,0-1.638,1.349-2.891,2.891-2.891,1.589,0,2.89,1.252,2.89,2.891Z"/>
    <path class="cls-2" d="M978.068,250.285c.338,0,1.061.096,1.061.867,0,.819-.771.867-1.061.867h-24.422c-6.985,0-9.008-2.553-10.743-5.106-1.252,1.252-4.961,4.865-6.069,4.865-.723,0-1.494-.626-1.494-1.542,0-.626.289-1.012.916-1.349,2.794-1.542,3.179-1.783,4.528-2.891v-11.898c0-2.264-.385-2.794-2.746-2.794h-1.686c-.385,0-1.108-.096-1.108-.819,0-.819.771-.915,1.108-.915h3.661c3.95,0,4.528,1.397,4.528,3.998v10.068c.626,3.228,2.408,6.648,11.127,6.648h22.399ZM940.158,213.096c2.023,1.975,3.854,3.806,3.854,5.106,0,1.011-.867,1.975-2.071,1.975s-1.493-.53-2.457-2.553c-1.445-3.035-2.168-3.999-3.709-6.118-.193-.289-.289-.482-.289-.723,0-.337.289-.867.916-.867.385,0,1.542,1.06,3.757,3.179ZM968.964,238.049h8.431c.385,0,1.06.096,1.06.867s-.723.867-1.06.867h-29.529c-.385,0-1.06-.097-1.06-.867s.723-.867,1.06-.867h7.37v-5.25h-4.914c-.385,0-1.06-.097-1.06-.867,0-.819.723-.867,1.06-.867h4.914v-1.686c0-.626.097-2.071,1.686-2.071,1.686,0,1.686,1.734,1.686,2.071v1.686h6.889v-1.638c0-.723.192-2.12,1.734-2.12,1.589,0,1.733,1.445,1.733,2.12v1.638h5.01c.386,0,1.061.096,1.061.867s-.723.867-1.061.867h-5.01v5.25ZM954.898,217.287c2.023,0,2.408-.241,2.408-1.397v-1.975c0-1.156-.481-1.397-2.408-1.397h-5.685c-.337,0-1.06-.096-1.06-.867s.771-.867,1.06-.867h7.418c2.746,0,3.999.578,3.999,3.324v1.59c0,2.842-1.397,3.324-3.999,3.324h-2.649c-1.301,0-2.409,0-2.409,2.023,0,2.891,0,3.372,2.409,3.372h1.975c1.156,0,1.638-.145,2.264-1.252.674-1.108.819-1.445,1.59-1.445.819,0,1.445.722,1.445,1.397,0,.578-.53,1.831-1.493,2.457-.723.482-1.301.578-2.649.578h-4.962c-2.746,0-3.998-.578-3.998-3.324v-2.216c0-2.842,1.397-3.324,3.998-3.324h2.746ZM957.692,242.722c0,1.927-6.792,5.54-7.371,5.54-.385,0-.867-.337-.867-.867,0-.337.289-.626.675-.915,2.457-1.782,3.228-2.89,4.335-4.576.481-.723.915-.916,1.542-.916.771,0,1.686.626,1.686,1.734ZM965.496,232.799h-6.889v5.25h6.889v-5.25ZM970.169,217.287c1.975,0,2.36-.289,2.36-1.397v-1.975c0-1.156-.434-1.397-2.36-1.397h-5.059c-.337,0-1.06-.096-1.06-.867s.723-.867,1.06-.867h6.985c2.745,0,3.95.578,3.95,3.324v1.59c0,2.842-1.35,3.324-3.95,3.324h-1.927c-1.301,0-2.409,0-2.409,2.023,0,2.891,0,3.372,2.409,3.372h1.204c1.301,0,2.023-.481,2.649-1.589.771-1.349.963-1.59,1.686-1.59.819,0,1.445.674,1.445,1.349,0,1.301-1.349,3.565-4.287,3.565h-4.432c-2.746,0-3.998-.578-3.998-3.324v-2.216c0-2.842,1.396-3.324,3.998-3.324h1.734ZM968.916,241.951c1.734,1.59,3.324,2.891,5.877,4.335.241.145.626.434.626.819,0,.434-.385.867-.867.867-1.107,0-8.815-3.131-8.815-5.299,0-.915.771-1.638,1.639-1.638.626,0,1.107.481,1.541.915Z"/>
    <path class="cls-2" d="M989.154,233.521c-1.445,2.168-1.638,2.505-2.746,2.505-1.012,0-1.879-.771-1.879-1.927,0-.674,0-1.108,6.744-8.767,2.602-2.938,8.334-9.394,9.635-10.165.145-.096.626-.385,1.445-.385,1.012,0,1.83,0,9.008,9.153,3.469,4.432,8.141,10.501,12.429,16.764,2.167,3.179,2.312,3.372,2.312,4.191,0,1.108-.963,2.12-2.167,2.12s-1.494-.481-2.649-2.601c-1.783-3.18-5.155-9.153-14.163-21.389-.963-1.3-3.854-5.25-4.913-5.25-1.879,0-10.936,12.524-13.055,15.752ZM1022.826,218.925c0,.915-.818,1.589-1.541,1.589-.627,0-.819-.241-2.265-2.264-.963-1.3-1.638-1.975-2.023-2.36-.24-.241-.578-.578-.578-1.06,0-.53.434-1.108,1.205-.963.674.096,5.202,3.806,5.202,5.058ZM1027.21,216.324c0,.771-.675,1.397-1.397,1.397-.578,0-.722-.192-2.071-1.782-.337-.434-2.022-2.071-2.312-2.409-.145-.145-.338-.482-.338-.819,0-.145.097-.963,1.108-.963.529,0,5.01,3.179,5.01,4.576Z"/>
    <path class="cls-2" d="M1047.593,245.083c0,4.046-3.276,7.322-7.322,7.322-4.095,0-7.37-3.276-7.37-7.322,0-4.095,3.323-7.322,7.37-7.322,3.998,0,7.322,3.228,7.322,7.322ZM1034.683,245.083c0,3.083,2.505,5.54,5.588,5.54,3.034,0,5.539-2.457,5.539-5.54s-2.553-5.54-5.539-5.54c-3.035,0-5.588,2.457-5.588,5.54Z"/>
  </g>
</svg>