<?xml version="1.0" encoding="UTF-8"?>
<svg id="_レイヤー_1" data-name="レイヤー 1" xmlns="http://www.w3.org/2000/svg" version="1.1" viewBox="0 0 1920 1080">
  <defs>
    <style>
      .cls-1 {
        fill: #1b1f28;
      }

      .cls-1, .cls-2 {
        stroke: #fff;
        stroke-linecap: round;
        stroke-linejoin: round;
        stroke-width: 3px;
      }

      .cls-3 {
        fill: none;
        stroke-width: 0px;
      }

      .cls-2 {
        fill: #fff;
      }
    </style>
  </defs>
  <polygon class="cls-2" points="1199.122 98.86 1108.403 96.935 1017.134 99.016 925.867 96.935 834.595 99.016 742.776 97.091 744.364 154.494 742.283 211.013 744.364 267.532 742.283 324.055 743.951 379.747 818.185 381.618 893.048 379.537 967.909 381.618 1042.775 379.537 1117.509 381.609 1124.781 391.406 1130.351 401.865 1137.842 412.124 1143.935 422.586 1151.597 431.336 1152.986 422.052 1152.296 411.623 1153.684 401.334 1152.994 390.903 1154.105 381.285 1162.605 380.577 1171.87 381.618 1181.136 380.577 1190.403 382.658 1198.643 380.409 1200.71 324.058 1198.629 267.54 1200.71 211.02 1198.629 154.503 1199.122 98.86"/>
  <polygon class="cls-1" points="1195.777 95.515 1105.058 93.59 1013.79 95.671 922.522 93.59 831.251 95.671 739.431 93.746 741.019 151.15 738.939 207.668 741.019 264.188 738.939 320.71 740.606 376.402 814.84 378.273 889.703 376.192 964.565 378.273 1039.43 376.192 1114.164 378.265 1121.436 388.061 1127.007 398.521 1134.497 408.78 1140.59 419.241 1148.252 427.991 1149.641 418.707 1148.951 408.278 1150.339 397.989 1149.649 387.558 1150.76 377.94 1159.26 377.232 1168.525 378.273 1177.791 377.232 1187.058 379.313 1195.298 377.064 1197.365 320.713 1195.284 264.195 1197.365 207.676 1195.284 151.158 1195.777 95.515"/>
  <rect class="cls-3" width="1920" height="1080"/>
</svg>