<?xml version="1.0" encoding="UTF-8"?>
<svg id="_レイヤー_1" data-name="レイヤー 1" xmlns="http://www.w3.org/2000/svg" version="1.1" viewBox="0 0 1920 1080">
  <defs>
    <style>
      .cls-1 {
        fill: #242324;
      }

      .cls-1, .cls-2, .cls-3, .cls-4, .cls-5, .cls-6, .cls-7, .cls-8, .cls-9, .cls-10, .cls-11, .cls-12, .cls-13, .cls-14, .cls-15, .cls-16, .cls-17, .cls-18, .cls-19, .cls-20, .cls-21, .cls-22, .cls-23, .cls-24, .cls-25, .cls-26, .cls-27, .cls-28, .cls-29, .cls-30, .cls-31, .cls-32, .cls-33, .cls-34, .cls-35, .cls-36, .cls-37, .cls-38, .cls-39, .cls-40, .cls-41, .cls-42, .cls-43, .cls-44, .cls-45, .cls-46, .cls-47, .cls-48, .cls-49, .cls-50, .cls-51, .cls-52, .cls-53, .cls-54, .cls-55, .cls-56, .cls-57, .cls-58, .cls-59, .cls-60, .cls-61, .cls-62, .cls-63, .cls-64, .cls-65, .cls-66, .cls-67, .cls-68, .cls-69, .cls-70, .cls-71, .cls-72, .cls-73, .cls-74, .cls-75, .cls-76, .cls-77, .cls-78, .cls-79, .cls-80, .cls-81, .cls-82, .cls-83, .cls-84, .cls-85, .cls-86, .cls-87, .cls-88, .cls-89, .cls-90, .cls-91, .cls-92, .cls-93, .cls-94, .cls-95, .cls-96, .cls-97, .cls-98, .cls-99, .cls-100, .cls-101, .cls-102, .cls-103, .cls-104, .cls-105, .cls-106, .cls-107, .cls-108, .cls-109, .cls-110, .cls-111, .cls-112, .cls-113, .cls-114, .cls-115, .cls-116, .cls-117, .cls-118, .cls-119, .cls-120, .cls-121, .cls-122, .cls-123, .cls-124, .cls-125, .cls-126, .cls-127, .cls-128, .cls-129, .cls-130, .cls-131, .cls-132, .cls-133, .cls-134, .cls-135, .cls-136, .cls-137, .cls-138, .cls-139, .cls-140, .cls-141, .cls-142, .cls-143, .cls-144, .cls-145 {
        stroke-width: 0px;
      }

      .cls-2 {
        fill: #94abba;
      }

      .cls-3 {
        fill: #7c7871;
      }

      .cls-4 {
        fill: #263242;
      }

      .cls-5 {
        fill: #2c374a;
      }

      .cls-6 {
        fill: #242424;
      }

      .cls-7 {
        fill: #59749c;
      }

      .cls-8 {
        fill: #223543;
      }

      .cls-9 {
        fill: #39272d;
      }

      .cls-10 {
        fill: #494d4d;
      }

      .cls-11 {
        fill: #213748;
      }

      .cls-12 {
        fill: #6c85a5;
      }

      .cls-13 {
        fill: #191c23;
      }

      .cls-14 {
        fill: #82706f;
      }

      .cls-15 {
        fill: #403845;
      }

      .cls-16 {
        fill: #3f3c3a;
      }

      .cls-17 {
        fill: #576779;
      }

      .cls-18 {
        fill: #434451;
      }

      .cls-19 {
        fill: #6e86a5;
      }

      .cls-20 {
        fill: #8097af;
      }

      .cls-21 {
        fill: #84868d;
      }

      .cls-22 {
        fill: #674d4e;
      }

      .cls-23 {
        fill: #75706a;
      }

      .cls-24 {
        fill: #98afbe;
      }

      .cls-25 {
        fill: #13181e;
      }

      .cls-26 {
        fill: #34363a;
      }

      .cls-27 {
        fill: #323d4e;
      }

      .cls-28 {
        fill: #899fb3;
      }

      .cls-29 {
        fill: #1a1d21;
      }

      .cls-30 {
        fill: #7e96ae;
      }

      .cls-31 {
        fill: #abc1ca;
      }

      .cls-32 {
        fill: #323131;
      }

      .cls-33 {
        fill: #7a6f75;
      }

      .cls-34 {
        fill: #96adbc;
      }

      .cls-35 {
        fill: #5c3533;
      }

      .cls-36 {
        fill: #36232b;
      }

      .cls-37 {
        fill: #46282b;
      }

      .cls-38 {
        fill: #1a1f28;
      }

      .cls-39 {
        fill: #633c38;
      }

      .cls-40 {
        fill: #282a2d;
      }

      .cls-41 {
        fill: #1b293f;
      }

      .cls-42 {
        fill: #3c3643;
      }

      .cls-43 {
        fill: #1b2b41;
      }

      .cls-44 {
        fill: #4d5e78;
      }

      .cls-45 {
        fill: #718aa8;
      }

      .cls-46 {
        fill: #423c36;
      }

      .cls-47 {
        fill: #27292c;
      }

      .cls-48 {
        fill: #12151a;
      }

      .cls-49 {
        fill: none;
      }

      .cls-50 {
        fill: #485b76;
      }

      .cls-51 {
        fill: #a6b9be;
      }

      .cls-52 {
        fill: #5d3835;
      }

      .cls-53 {
        fill: #353638;
      }

      .cls-54 {
        fill: #657481;
      }

      .cls-55 {
        fill: #898072;
      }

      .cls-56 {
        fill: #607a9f;
      }

      .cls-57 {
        fill: #536377;
      }

      .cls-58 {
        fill: #566271;
      }

      .cls-59 {
        fill: #3b2e3b;
      }

      .cls-60 {
        fill: #6d86a5;
      }

      .cls-61 {
        fill: #282a2e;
      }

      .cls-62 {
        fill: #93a7b5;
      }

      .cls-63 {
        fill: #4c453e;
      }

      .cls-64 {
        fill: #232221;
      }

      .cls-65 {
        fill: #768ea9;
      }

      .cls-66 {
        fill: #493339;
      }

      .cls-67 {
        fill: #58739b;
      }

      .cls-68 {
        fill: #918775;
      }

      .cls-69 {
        fill: #988d78;
      }

      .cls-70 {
        fill: #564d42;
      }

      .cls-71 {
        fill: #54566b;
      }

      .cls-72 {
        fill: #252b35;
      }

      .cls-73 {
        fill: #492e30;
      }

      .cls-74 {
        fill: #303031;
      }

      .cls-75 {
        fill: #8f8474;
      }

      .cls-76 {
        fill: #2d2e30;
      }

      .cls-77 {
        fill: #6d6a67;
      }

      .cls-78 {
        fill: #7b93ad;
      }

      .cls-79 {
        fill: #45536a;
      }

      .cls-80 {
        fill: #613b39;
      }

      .cls-81 {
        fill: #363c44;
      }

      .cls-82 {
        fill: #34222a;
      }

      .cls-83 {
        fill: #393241;
      }

      .cls-84 {
        fill: #232322;
      }

      .cls-85 {
        fill: #67433d;
      }

      .cls-86 {
        fill: #303336;
      }

      .cls-87 {
        fill: #3e424d;
      }

      .cls-88 {
        fill: #696765;
      }

      .cls-89 {
        fill: #32363a;
      }

      .cls-90 {
        fill: #382d3a;
      }

      .cls-91 {
        fill: #4b2b2c;
      }

      .cls-92 {
        fill: #778faa;
      }

      .cls-93 {
        fill: #24333e;
      }

      .cls-94 {
        fill: #543638;
      }

      .cls-95 {
        fill: #91a8b8;
      }

      .cls-96 {
        fill: #83776b;
      }

      .cls-97 {
        fill: #181e28;
      }

      .cls-98 {
        fill: #9db4c0;
      }

      .cls-99 {
        fill: #57729b;
      }

      .cls-100 {
        fill: #222833;
      }

      .cls-101 {
        fill: #3f343e;
      }

      .cls-102 {
        fill: #463b48;
      }

      .cls-103 {
        fill: #332629;
      }

      .cls-104 {
        fill: #232323;
      }

      .cls-105 {
        fill: #6680a2;
      }

      .cls-106 {
        fill: #a1b8c3;
      }

      .cls-107 {
        fill: #1b2a3f;
      }

      .cls-108 {
        fill: #abc2ca;
      }

      .cls-109 {
        fill: #756c74;
      }

      .cls-110 {
        fill: #8e8475;
      }

      .cls-111 {
        fill: #6d443e;
      }

      .cls-112 {
        fill: #303337;
      }

      .cls-113 {
        fill: #849cb2;
      }

      .cls-114 {
        fill: #51555e;
      }

      .cls-115 {
        fill: #b4cbd0;
      }

      .cls-116 {
        fill: #111417;
      }

      .cls-117 {
        fill: #37262b;
      }

      .cls-118 {
        fill: #454f5d;
      }

      .cls-119 {
        fill: #fff;
      }

      .cls-120 {
        fill: #424f63;
      }

      .cls-121 {
        fill: #9eb5c1;
      }

      .cls-122 {
        fill: #382a34;
      }

      .cls-123 {
        fill: #748ca9;
      }

      .cls-124 {
        fill: #546b8f;
      }

      .cls-125 {
        fill: #8ca3b7;
      }

      .cls-126 {
        fill: #35252e;
      }

      .cls-127 {
        fill: #93a8b6;
      }

      .cls-128 {
        fill: #6a3f39;
      }

      .cls-129 {
        fill: #aec5cc;
      }

      .cls-130 {
        fill: #b1c8ce;
      }

      .cls-131 {
        fill: #656464;
      }

      .cls-132 {
        fill: #342126;
      }

      .cls-133 {
        fill: #623a36;
      }

      .cls-134 {
        fill: #4b2d2f;
      }

      .cls-135 {
        fill: #5b5045;
      }

      .cls-136 {
        fill: #566474;
      }

      .cls-137 {
        fill: #593430;
      }

      .cls-138 {
        fill: #1e3545;
      }

      .cls-139 {
        fill: #6982a3;
      }

      .cls-140 {
        fill: #181d25;
      }

      .cls-141 {
        fill: #4a4e60;
      }

      .cls-142 {
        fill: #8da3b6;
      }

      .cls-143 {
        fill: #293547;
      }

      .cls-144 {
        fill: #3b313d;
      }

      .cls-145 {
        fill: #522f2d;
      }
    </style>
  </defs>
  <g>
    <path class="cls-1" d="M966.922,718.725c-7.569.016-15.138.032-22.706.048-1.483,1.694-3.486,1.26-5.296,1.091-1.72-.16-3.39-.134-5.086.078-1.813.227-2.179.587-2.241,2.471-.052,1.56.187,3.16-.667,4.438.2-.631.547-.362.911.051,1.047,2.282,1.021,4.746,1.197,7.169.035.476.005,1.072-.56,1.373-.467-.579-.5-1.427-1.403-2.21,0,1.412.023,2.506-.005,3.599-.039,1.534-.233,1.713-1.753,1.775-.118.005-.237.004-.355.003-2.935-.041-2.862.004-2.862,2.996,0,7.211.519,14.41.44,21.622-.005.413-.019.826-.056,1.237-.062.685-.428,1.103-1.136,1.111-1.715.018-3.429.021-5.144.011-.796-.005-1.184-.458-1.191-1.234-.017-1.891-.427-3.749-.375-5.655.194-7.035-.317-14.06-.458-21.09-.085-4.248-.058-8.508-.273-12.754-.719-14.184-.003-28.381-.396-42.562-.198-7.152-.225-14.299-.285-21.449.104-.155.245-.263.421-.325.27-.071.532-.048.788.061,2.194,1.49,4.488,2.831,6.662,4.355.92.645,1.726,1.319,2.274,2.391.75,1.469,2.395,2.043,3.645,3.012.798.618,1.486,1.242.724,2.334-1.844.49-2.436,1.742-2.295,3.557.21,2.712-.463,5.498.701,8.133.04,1.407.237,2.831-.509,4.14-1.303,1.368-2.165,1.498-3.981.605-.577-2.086-.324-4.227-.211-6.318.179-3.305.027-6.604.177-9.904-.35,9.415-.029,18.83-.05,28.246-.003,1.299.001,2.598.015,3.896.009.86.186,1.637.832,2.252.884.586,1.884.646,2.897.642,16.601-.068,33.199-.445,49.802-.445,4.001,0,8.023-.224,12.038-.257,3.91-.031,4.331-.438,4.358-4.39-.178-6.408.344-12.804.468-19.207.077-4.005.135-8.021.266-12.026.009-.195.018-.394.027-.589.021-.184.077-.362.164-.526.049-.073.099-.149.148-.222.094-.142.195-.284.299-.42.047-.068.096-.137.142-.207.081-.143.156-.291.21-.447-.189-1.31.382-2.281,1.463-2.908.65-.377.861-1.082,1.404-1.511.794-.48,1.406-1.175,2.096-1.778.488-.426.983-.842,1.671-.369.38.588.409,1.25.268,1.887-.324,1.463-.272,2.942-.277,4.419-.019,5.143-.309,10.281-.463,15.419-.11,3.661.001,7.338-.306,10.982-.329,3.902-.05,7.813-.355,11.694-.567,7.214-.459,14.44-.199,21.635.364,10.057.09,20.108.286,30.16.023,1.177.262,2.35.3,3.528.065,1.994-.118,2.163-2.039,2.191-1.065.016-2.131.034-3.195-.008-1.231-.048-1.541-.331-1.746-1.556-.087-.521-.091-1.061-.094-1.592-.012-2.308.071-4.619-.025-6.923-.473-11.292-.31-22.589-.355-33.884-.002-.55.126-1.154-.514-1.886-.272,1.538-.294,2.838-.098,4.07.376,2.361.241,4.721.277,7.083.031,2.012.034,4.024,0,6.036-.025,1.429-.246,1.629-1.664,1.687-.768.031-1.539.031-2.307.004-1.444-.052-1.595-.251-1.724-1.645-.41-4.424-.325-8.859-.332-13.292-.002-.888.025-1.777-.014-2.663-.059-1.309-.278-1.519-1.589-1.578-.649-.029-1.301,0-1.952.004-.257.235-.534.438-.883.517-3.661.647-7.342.314-11.018.226-.612-.015-1.052-.483-1.584-.716-.128-.003-.256-.006-.384-.009-1.633.431-3.33-.143-4.961.317Z"/>
    <path class="cls-67" d="M917.6,661c-.126-.053-.252-.106-.378-.159-4.205-3.062-8.588-5.861-12.936-8.708-1.069-.7-1.558-1.576-2.048-2.706-1.166-2.687-.637-5.342-.206-8.003.83-5.13,1.832-10.232,2.611-15.369.547-3.608,2.027-6.906,3.088-10.342.836-2.707,1.876-5.35,2.765-8.041.452-1.37,1.007-2.649,2.104-3.63.473-1.046,2.081-1.375,1.821-2.884.404-1.237,1.131-2.248,2.133-3.069,1.203-1.857,2.661-3.536,3.819-5.426.121-.197.372-.279.6-.351,5.309-1.672,10.194-4.399,15.442-6.227,1.763-.411,3.485-1.038,5.333-.992.196.033.375.108.538.222,1.009,1.75.726,3.715.936,5.596-.128.862.381.922,1.057.914,2.296-.03,4.592-.03,6.888,0,.876.011,1.789-.037,2.409.789.053.182.04.358-.037.53-.111.153-.252.266-.423.343-2.072.734-4.219.32-6.333.406-2.192.089-2.436.316-2.318,2.5-.062,3.783-.787,7.52-.737,11.308-.07,2.88.043,5.763-.163,8.64-.127.325-.333.561-.7.612-1.163-.289-.89-1.252-.961-2.052.134-1.714-.238-3.391-.382-5.086-.091-1.067-.598-1.228-1.548-1.003-4.135.98-8.263,1.994-12.416,2.896-1.03.224-1.512.615-1.5,1.825.017,1.647.115,3.286.171,4.932-.067.917.157,1.894-.558,2.673-1.034.498-1.331-.089-1.54-.975-.398-1.687-.291-3.399-.376-5.103-.098-1.964-.327-2.182-2.263-2.159-.882.011-1.766.016-2.648.026-2.289.028-2.282.011-2.322,2.365-.021,1.24.071,2.475.128,3.713-.14,3.874.541,7.719.402,11.594-.025.708.127,1.4.421,2.051.286,1.76-.864,2.407-2.243,2.851-2.303.742-4.681,1.229-6.979,1.99-1.916.634-3.125,2.128-4.052,3.762-.885,1.56-.29,3.247,1.251,4.294,1.857,1.261,3.762,2.486,5.835,3.328,3.506,1.425,6.857,3.164,10.267,4.783,2.737,2.618,6.501,2.216,9.756,3.304,1.653-.177,2.747-1.534,4.267-2.012.717-.225,1.344-.722,2.107-.872.97.029,1.523.823,2.277,1.249.488.276.894.944,1.535.57.59-.345.418-1.05.422-1.621.024-3.349-.026-6.698.033-10.047.015-.846-.164-1.812.804-2.362.433-.114.79.039,1.113.312.635.821.455,1.797.487,2.721.128,3.762-.04,7.523.265,11.295.181,2.235.91,3.815,2.757,4.966.649.404,1.219.926,1.859,1.347,1.894,1.337,2.242,3.022,1.139,5.038-1.169.982-1.887,2.415-3.069,3.342-2.428,1.904-4.002,4.653-6.535,6.433-.975.598-1.917.39-2.848-.11-1.754-1.067-3.438-2.235-5.071-3.48-.538-.41-.999-.825-.925-1.576-1.353-1.234-2.949-2.133-4.409-3.22-.645-.481-1.433-.835-1.329-1.892.044-.45-.452-.652-.79-.875-2.502-1.655-5.009-3.304-7.515-4.955-.055-.12-.148-.191-.279-.212Z"/>
    <path class="cls-99" d="M1003.87,662.617c-1.083.986-2.165,1.972-3.248,2.957-1.849.367-3.269,1.239-3.763,3.2-.498.765-1.561,1.183-1.433,2.332.071.412.102.825.039,1.241-.58,1.521-1.671,2.615-2.954,3.55-1.296.858-2.222,2.113-3.359,3.142-1.037.939-1.987.911-2.94-.07-.866-.891-1.576-1.912-2.39-2.847-1.54-1.98-3.561-3.565-4.63-5.945-.441-.983-2.196-1.084-1.994-2.641.505-1.217,1.159-2.308,2.44-2.861.343-.093.698-.091,1.047-.132,1.283.104,2.378,1.032,3.674.805-.87-.889-2.341-1.197-2.925-2.533-.085-.167-.134-.34-.156-.525-.015-.29.055-.558.198-.807.958-1.178,1.815-2.441,2.865-3.544.783-.822,1.583-.974,2.297.112.037.283-.025.593.224.823,2.4,2.222,4.047,5.208,6.401,6.498-2.306-1.607-4.503-4.266-6.55-7.067,1.594-2.157,3.931-3.471,5.917-5.182,1.287-1.109,2.663-2.116,3.92-3.266.553-.207,1.055-.5,1.5-.891,1.771-1.495,3.114-3.372,4.56-5.153.47-.579.592-1.319.216-2.006-.41-.747-.438-1.592-.721-2.36-.543-1.475-.299-2.617,1.091-3.51,1.188-.763,1.672-1.931,1.582-3.351-.121-1.899.415-3.752.421-5.646.002-.533.116-1.068.655-1.375.18-.075.364-.09.555-.05,1.03.677,1.136,1.906,1.71,2.857-.023.855.29,1.584.722,2.321,1.884,3.221,3.137,6.732,4.551,10.167.112.273.129.574.078.871-.308,1.003-1.085,1.5-2.018,1.785-.675.207-1.355.395-2.029.607-2.535.799-3.067,2.957-1.212,4.943,1.946.3,3.937.153,5.85.673.831.226,1.735.34,2.18,1.248.021.097.041.195.062.292-2.944,2.644-5.896,5.278-8.828,7.936-1.223,1.109-2.403,2.266-3.603,3.401Z"/>
    <path class="cls-114" d="M931.411,584.505c.014-3.361-.491-6.705-.343-10.072.02-.461-.106-.937-.219-1.393-.975-3.954-1.981-7.9-2.935-11.859-.251-1.041-.742-1.829-1.67-2.377-.608-.359-1.215-.747-1.738-1.216-1.155-1.034-.97-1.992.391-2.69,3.725-1.911,7.437-3.847,11.146-5.788.79-.414,1.568-.824,2.491-.815.39.295.861.4,1.318.458,1.044.133,1.476.767,1.704,1.724.737,3.085,1.33,6.199,1.653,9.35.101.985.335,1.813.981,2.534.484,2.002,1.233,3.925,1.852,5.888.326,1.033.542,2.034-.053,3.062-.589,1.017.628,2.034.061,3.076-.219.532-.691.833-1.084,1.208-.991.267-1.747.859-2.452,1.603-2.542,2.686-5.65,4.726-8.357,7.233-.725.671-1.804,1.254-2.748.074Z"/>
    <path class="cls-69" d="M973.339,558.225c2.561.906,5.131,1.787,7.678,2.73,1.332.493,1.437.788.834,2.129-.824,1.832-1.7,3.641-2.56,5.457-.304.642-.64,1.271-.599,2.013.231.604.205,1.121-.371,1.56-.433.33-.668.809-.666,1.378.004,1.399-.822,1.699-1.994,1.461-1.531-.311-3.217-.335-4.069-2.025-.051-.101-.152-.191-.257-.236-3.266-1.396-3.058-3.917-2.18-6.669.048-.15-.069-.34-.129-.507-.07-.156-.133-.312-.196-.47-.135-.331-.391-.592-.529-.921-.274-1.402-.22-2.633,1.562-2.94.832-.515,1.133-1.199.931-2.196-.176-.865-.003-1.635,1.186-1.523.113.018.214.063.302.136.126.081.246.168.361.265l-.024-.019c.176.248.525.166.721.377Z"/>
    <path class="cls-43" d="M931.43,726.909c-.733.403-.067,1.236-.693,1.896,0-2.974-.01-5.777.007-8.58.004-.703.428-1.135,1.124-1.098,2.296.121,4.548-.678,6.883-.148,1.797.408,3.645-.027,5.465-.206.05,1.941-.183,3.89.196,5.82.07.357.098.805-.231.975-1.386.717-.957,2-1.052,3.124-.055.022-.144.078-.159.063-1.416-1.447-3.043-.906-4.661-.49-.793-.345-1.607-.219-2.433-.189-1.585.058-3.225.21-4.446-1.166Z"/>
    <path class="cls-7" d="M931.411,584.505c1.224-.073,2.154-.641,3.086-1.451,3.136-2.724,6.366-5.34,9.566-7.99.13-.107.318-.144.478-.214.784.738.251,1.395-.145,2.039-.63,1.025-.84,2.064-.23,3.175.51.929.325,1.863-.163,2.697-.314.537-.432,1.069-.471,1.655-.246.583-.813.619-1.312.772-.264.027-.529.029-.793.038-.369-.009-.685.175-1.021.286-1.63.168-3.192.632-4.758,1.081-3.383.877-6.494,2.489-9.785,3.622-1.785.615-3.577,1.204-5.375,1.777-.947.302-1.759.345-2.125-.818.336-.622.697-1.231,1.001-1.868.555-1.162,1.493-1.698,2.717-2.033,3.128-.857,6.222-1.837,9.33-2.768Z"/>
    <path class="cls-43" d="M972.268,718.417c4.259-.007,8.519-.013,12.778-.02.892,2.448.905,4.935.338,7.45-.336.485-.858.593-1.39.675-2.482.246-4.95.874-7.468.186-1.092-.298-1.811.129-2.01,1.316-.113.675-.158,1.458-1.18,1.372-.09-1.806.144-3.612-.59-5.396-.356-.865-.111-1.978-.128-2.979-.014-.882.06-1.775-.35-2.603Z"/>
    <path class="cls-129" d="M1007.307,628.564c-.527-.86-1.019-1.732-.997-2.788-.955-1.949-.399-3.092,1.646-3.382.234-.033-.059.013.176-.016,3.324-.409,3.957-1.841,1.947-4.599-.904-1.24-1.801-2.48-2.612-3.782-.639-1.027-1.004-2.013.285-2.903.683-.472.376-1.226.121-1.78-.405-.882-.216-1.749-.087-2.598.105-.697.535-.929,1.03-.193.073.077.09.164.049.262.249.347,0,.834.328,1.158l-.002-.006c.316.293.036.766.321,1.068.078.076.099.165.062.268.247.346.013.82.307,1.154.073.074.09.159.052.255.129.255.112.557.26.805.076.096.1.204.072.323.294.313.026.788.317,1.102.069.089.084.186.048.292.16.232.121.534.271.769.034.198.068.396.102.594.115.268.103.577.267.829.072.091.094.192.067.305.162.225.137.511.244.753.039.215.079.429.118.644.151.24.114.546.275.783.697,2.497,1.69,4.957,2.009,7.502.347,2.762,1.139,5.402,1.595,8.121.393.405-.052,1.026.366,1.425l-.004-.013c.374.414-.053,1.028.358,1.433l-.003-.011c.283.538.289,1.05-.302,1.352-.549.28-1.03-.002-1.446-.371-1.906-1.692-3.509-3.657-5.046-5.676-.764-1.003-1.348-2.136-2.196-3.079Z"/>
    <path class="cls-31" d="M1008.817,606.523c-.251-.054-.487-.045-.508.28-.061.938.031,1.831.323,2.758.256.813.961,1.934-.635,2.439-.638.202-.283.809-.03,1.187.849,1.27,1.641,2.594,2.626,3.752,1.272,1.496,1.335,3.347,1.783,5.089.126.489-.205.747-.696.806-.932.111-1.861.259-2.795.355-2.419.249-2.42.241-2.574,2.586-.082-.016-.165-.029-.248-.037-1.365-.841-.966-2.218-.833-3.355.303-2.596.234-5.186.209-7.777.039-1.004-.427-1.464-1.45-1.529-.899-.057-1.904.17-2.626-.655-1.514-2.481-1.588-5.422-2.575-8.072-.177-.476-.042-.933.335-1.298,2.754-1.107,5.24-.447,7.582,1.145.036.98-.542,1.272-1.412,1.296-.49.013-1.167-.416-1.43.172-.274.613.443.986.764,1.443.573.551.49,1.762,1.683,1.658.738-1.267-.094-2.644.313-3.918.272-.425.568-.814,1.144-.808.165.185.33.371.495.556l.045.044c.097.214.193.427.29.641l.048.087c.058.385.115.77.173,1.155Z"/>
    <path class="cls-48" d="M973.336,729.396c.458-.747.28-1.594.379-2.398.184-1.494.466-1.713,1.927-1.45,1.205.217,2.364.695,3.618.63,1.458-.075,2.891-.467,4.364-.34.799.394.892,1.069.884,1.885-.016,1.747.044,3.493-.162,5.234-.165,1.505-.164,1.49-1.473,1.467-2.181-.038-4.362-.049-6.543-.082-.529-.008-1.067-.007-1.585-.102-1.108-.202-1.374-.512-1.411-1.66-.034-1.06-.001-2.122.002-3.184Z"/>
    <path class="cls-24" d="M980.786,582.369c.39.611.898.942,1.653,1.117,1.465.341,2.995.414,4.401,1.008-.686,1.076-1.301,2.22-2.667,2.605-.795.224-.949.784-.758,1.512.195.741.531,1.428.81,2.136.856,2.173,1.026,2.268,3.35,2.179.825-.032,1.699-.093,2.402.365,1.106.721,1.979.347,2.851-.376.175-.061.353-.078.536-.054.379.025.742.088.991.419.218.749-.252,1.227-.672,1.725-1.413.841-2.901.635-4.428.383-1.683-.278-2.311.216-2.471,1.742.014.325-.1.598-.314.838-2.358,1.066-4.716.272-7.002-.192-1.01-.205-1.251-1.593-1.471-2.627-.134-.628-.112-1.278-.066-1.919.077-2.275,1.469-4.435.6-6.793-.054-.749-.567-1.265-.921-1.872-.629-1.078-.683-2.041.796-2.473.849-.397,1.568.336,2.38.278Z"/>
    <path class="cls-131" d="M943.496,562.851c-1.208-2.043-1.237-4.392-1.706-6.625-.327-1.554-.591-3.122-.856-4.688-.196-1.155-.569-2.154-1.773-2.639-.249-.101-.42-.398-.626-.605,5.811.005,11.623.011,17.434.013.778,0,1.529.068,2.13.644.119.45.254.903-.23,1.242-2.419.28-4.795-.183-7.179-.454-1.201-.136-2.09.095-2.469,1.355-.632.804-.277,1.662-.187,2.531.145,1.413,1.09,2.773.327,4.255-1.598.681-1.725-.799-2.387-1.761-.574,1.735-.744,3.421-1.242,5.019-.221.708-.28,1.533-1.234,1.712Z"/>
    <path class="cls-116" d="M938.877,727.269c.908-.253,1.814-.511,2.723-.759.719-.197,1.147.033,1.184.827.022.474.084.941.346,1.355-.057,1.419.177,2.812.322,4.217.208,2.019-.17,2.464-2.156,2.487-2.824.033-5.62.586-8.452.412-.251-1.032.139-1.948.617-2.797.662-1.175,1.411-2.302,2.104-3.459.774-1.293,1.808-2.101,3.312-2.283Z"/>
    <path class="cls-98" d="M993.21,593.387c-.721.862-1.647,1.094-2.698.817-1.378-.363-2.736-.591-4.169-.213-.984.26-1.758-.273-2.163-1.136-.799-1.702-1.533-3.439-2.047-5.252-.262-.924-.087-1.215.871-1.275,1.02-.065,1.788-.292,2.242-1.334.272-.624,1.025-.431,1.593-.5,0,0-.019-.006-.019-.006.534.466,1.264-.048,1.808.362,1.214.069,2.403.264,3.54.713.065.848-.211,1.534-1.07,1.784-1.288.375-1.063,1.139-.859,2.181.36,1.843,1.809,2.71,2.971,3.859Z"/>
    <path class="cls-108" d="M1007.307,628.564c1.453.664,2.256,2.011,3.267,3.135,1.53,1.701,2.879,3.564,4.588,5.103.676.609,1.032.364,1.136-.464.98,3.141,2.043,6.264,2.136,9.603-.264.367-.487.786-1.028.793-1.957-.872-3.379-2.327-4.48-4.13-.058-.329.043-.679-.126-.994-1.605-3.741-3.213-7.481-4.81-11.226-.254-.595-.456-1.212-.682-1.819Z"/>
    <path class="cls-106" d="M993.21,593.387c-2.21-.055-2.551-.296-3.328-2.357-.33-.874-.699-1.736-.977-2.626-.363-1.162-.16-1.648.977-1.694,1.018-.041,1.529-.771,2.287-1.148,2.233.181,4.386.81,6.585,1.179.333.056.494.283.584.581-.186,1.776-1.504,3.099-1.919,4.785-1.2,1.099-2.772.968-4.21,1.279h.001Z"/>
    <path class="cls-82" d="M918.362,591.174c.497.168.955.343,1.527.148,3.559-1.212,7.126-2.397,10.611-3.814,1.644-.669,3.344-1.102,5.112-1.268.404-.134.821-.295.792.409-4.192,1.915-8.384,3.83-12.578,5.742-.214.098-.438.233-.662.243-1.822.084-2.89,1.126-3.519,2.732-.565,1.442-1.735,2.186-3.093,2.722-.681-1.692-.661-3.323.417-4.868.472-.677.929-1.364,1.393-2.046Z"/>
    <path class="cls-10" d="M978.223,575.928c.137.491.275.983.412,1.474-.208,1.554.536,3.154-.224,4.681-.309.405-.798.498-1.222.702-1.066-.157-2.005-.702-3.026-.997-.251-.081-.506-.156-.722-.316-.134-.106-.247-.235-.346-.373-2.496-1.862-5.189-3.359-8.139-4.381-.665-.216-1.498.115-2.004-.619-.573-1.041-1.336-2.046-.613-3.325.122-.162.278-.282.462-.364,1.684-.188,2.771,1.05,4.026,1.799.994.593,1.944.994,3.094.874,2.782.136,5.528.627,8.302.845Z"/>
    <path class="cls-130" d="M1006.673,604.797c-2.385-1.086-4.846-1.762-7.501-1.397-.076-.034-.152-.068-.229-.102-.198-.167-.346-.366-.403-.624-.016-.168.006-.332.062-.49.282-.802,1.959-.634,1.393-2.015-.119-.098-.218-.207-.321-.317-.309-.369-.641-.72-.865-1.154-.074-.167-.102-.341-.094-.522-.028-2.35,1.333-4.019,2.803-5.609.754-.816,1.212-.068,1.678.444l-.024-.027c.064.164.22.26.3.411.392.806.08,1.631-.101,2.377-.25,1.03.019,1.79.585,2.601,1.301,1.867,2.544,3.775,3.81,5.666-.187.513-.61.681-1.099.751l.005.007Z"/>
    <path class="cls-68" d="M978.223,575.928c-.362.642-.912.884-1.632.774-2.274-.345-4.585-.456-6.82-1.058-.702-.551-.51-1.529-1.036-2.165-.194-.617-.605-1.141-.758-1.77-.046-.123-.091-.251-.144-.373-.068-.107-.133-.219-.205-.327-.088-.1-.171-.202-.261-.303-.112-.096-.215-.195-.327-.29-.223-.197-.418-.409-.682-.561-1.613-.929-1.651-1.442-.227-2.664.09-.089.193-.172.289-.252.071-.082.165-.144.263-.19.072-.076.122-.166.137-.276.013-.183.014-.365.064-.547.04-.143.107-.268.195-.385.267-.327.646-.362,1.023-.403.441-.031.873-.135,1.316-.158.571.631.849,1.276.179,2.031-.815.918-.104,1.93-.114,2.893-.012,1.216.99,1.462,1.922,1.726.695.197,1.365.42,1.437,1.33.032.405.401.581.75.662,1.065.249,2.137.466,3.285.712-.131-.854-1.042-.863-1.057-1.586.394-.584,1.102-.593,1.687-.81.676-.251,1.118-.638,1.183-1.382.363.545.239,1.117.131,1.708-.223,1.218-.402,2.443-.599,3.666Z"/>
    <path class="cls-128" d="M1000.797,589.475c.606.721,1.212,1.442,1.626,2.299-.707,1.17-1.635,2.171-2.482,3.233-.795.996-1.358,2.038-.687,3.335l.007.006c.46.379.973.697,1.368,1.154l-.026-.039c.716.325.569.725.11,1.166-.502.482-1.013.935-1.785.825-.277-.062-.56-.104-.825-.211-.737-2.279-2.99-2.137-4.67-2.913-.765-1.277.109-2.235.714-3.178.381-.593.847-1.101.845-1.851.303-.624.894-.842,1.497-.999.682-.177,1.043-.628,1.246-1.257.069-.151.166-.282.279-.399.113-.108.235-.207.355-.308.299-.21.614-.402.915-.617.123-.093.261-.15.406-.194.366-.067.737-.087,1.109-.053Z"/>
    <path class="cls-25" d="M938.877,727.269c-.881.417-1.501,1.093-2.004,1.919-1.343,2.206-2.93,4.264-4.03,6.619-.262.02-.326-.162-.369-.364-.292-2.263-.587-4.526-.872-6.789-.073-.58-.116-1.164-.172-1.746,2.471.356,4.958.373,7.447.361Z"/>
    <path class="cls-110" d="M971.979,557.466c-.793.854-.497,1.847-.348,2.815.26,1.689.266,1.688-1.502,1.854-.116-.123-.178-.267-.178-.437.403-1.487.198-1.834-1.111-1.874-.533.377-.651,1.225-1.459,1.284-1.346-.479-2.606-2.144-2.459-3.764.11-1.221.073-2.261-.715-3.228-.143-.175-.047-.45.034-.674.251-.319.53-.5.905-.176,2.325,1.323,4.712,2.545,6.833,4.199Z"/>
    <path class="cls-4" d="M985.047,725.804c0-2.469,0-4.938,0-7.407.236-.002.472-.004.707-.007.018.353-.071.759.071,1.052,1.028,2.111.617,4.276.254,6.421-.362,2.142-.465,4.348-1.386,6.37-.657-2.186-.492-4.327.353-6.43Z"/>
    <path class="cls-115" d="M978.058,582.033c-.231-1.596-.158-3.154.577-4.63.717,1.655,1.434,3.311,2.15,4.966-.537,1.148-1.394.418-2.135.363-.245-.193-.549-.336-.592-.699Z"/>
    <path class="cls-108" d="M997.113,591.61c-.118-1.626.97-2.797,1.582-4.145.095-.209.41-.165.643-.143.443.396.754.884.98,1.429.424.614-.196,1.001-.324,1.495l.02-.018c-.528.191-.874.567-1.094,1.073l.016-.014c-.314.122-.581.331-.88.481-.323-.001-.671.149-.943-.158Z"/>
    <path class="cls-3" d="M965.146,553.266c-.235.123-.47.245-.705.368-1.366.848-2.296-.196-3.108-.918-.855-.761-1.752-1.374-2.762-1.863-.418-.279-.578-.671-.509-1.163-.111-.252-.148-.501.037-.738,2.348,1.44,4.803,2.704,7.047,4.314Z"/>
    <path class="cls-29" d="M985.047,725.804c.118,2.156-.557,4.269-.354,6.43-.116.241-.232.481-.347.722-.51-1.054-.324-2.186-.371-3.293-.054-1.28.198-2.59-.352-3.825.474-.011.949-.022,1.423-.034Z"/>
    <path class="cls-95" d="M1017.396,646.262c.346-.107.691-.214,1.037-.321.109.863-.048,1.715-.122,2.57-.079.906-.407,1.665-1.313,2.044-.108.122-.234.221-.378.297l.009.044c-.194.147-.363.123-.508-.074-.655-1.5-.122-3.407,1.275-4.561Z"/>
    <path class="cls-51" d="M999.254,598.342c-.923-1.438-.957-1.799-.047-2.885,1.046-1.249,1.942-2.632,3.217-3.682.288.392.697.709.772,1.235-.415-.15-.839-.584-1.259-.048-1.259,1.609-2.765,3.1-2.683,5.38Z"/>
    <path class="cls-83" d="M914.419,601.157c.385-.105.695-.053.815.391.103.38-.011.717-.317.933-.76.538-1.544,1.042-2.319,1.56.361-1.116,1.076-2.009,1.821-2.884Z"/>
    <path class="cls-43" d="M966.922,718.725c1.619-.656,3.308-.212,4.962-.317-1.62.647-3.309.197-4.962.317Z"/>
    <path class="cls-24" d="M988.628,584.85c-.632.024-1.264.053-1.808-.362.627-.002,1.255-.005,1.808.362Z"/>
    <path class="cls-106" d="M999.994,590.247c.108-.498.216-.997.324-1.495.16.241.32.482.48.723-.258.268-.412.643-.804.772Z"/>
    <path class="cls-108" d="M1015.947,634.929c-.334-.42-.381-.914-.366-1.425.318.424.388.913.366,1.425Z"/>
    <path class="cls-108" d="M1016.301,636.349c-.334-.424-.378-.921-.358-1.433.337.423.379.92.358,1.433Z"/>
    <path class="cls-31" d="M1010.584,612.912c-.24-.328-.325-.702-.317-1.102.287.315.334.699.317,1.102Z"/>
    <path class="cls-31" d="M1009.882,610.427c-.248-.346-.327-.737-.307-1.154.307.33.336.735.307,1.154Z"/>
    <path class="cls-31" d="M1009.513,609.005c-.236-.317-.323-.68-.321-1.068.297.299.351.671.321,1.068Z"/>
    <path class="cls-31" d="M1009.193,607.943c-.261-.343-.345-.736-.328-1.158.324.325.368.73.328,1.158Z"/>
    <path class="cls-31" d="M1010.195,611.488c-.087-.268-.174-.537-.26-.805.263.212.295.497.26.805Z"/>
    <path class="cls-31" d="M1010.903,613.973c-.09-.256-.181-.513-.271-.769.202.217.307.468.271.769Z"/>
    <path class="cls-31" d="M1011.272,615.396c-.089-.276-.178-.552-.267-.829.254.223.299.513.267.829Z"/>
    <path class="cls-31" d="M1011.976,617.881c-.092-.261-.183-.522-.275-.783.197.224.306.479.275.783Z"/>
    <path class="cls-31" d="M1011.583,616.454c-.081-.251-.163-.502-.244-.753.214.208.267.469.244.753Z"/>
    <path class="cls-110" d="M973.339,558.225c-.24-.126-.481-.251-.721-.377.288.035.529.16.721.377Z"/>
    <path class="cls-51" d="M1003.472,593.395c-.1-.137-.2-.274-.3-.411.194.069.29.209.3.411Z"/>
    <path class="cls-111" d="M1008.306,604.639s-.047-.048-.046-.046c.001.002.046.046.046.046Z"/>
    <path class="cls-110" d="M972.642,557.867c-.12-.088-.241-.177-.361-.265.12.088.241.177.361.265Z"/>
    <path class="cls-99" d="M1016.294,650.852c.113.008.224.023.335.044-.109.128-.219.256-.328.384-.035-.049-.07-.098-.105-.147-.058-.126-.03-.221.098-.281Z"/>
    <path class="cls-65" d="M1016.62,650.852c.126-.099.252-.198.378-.297-.126.099-.252.198-.378.297Z"/>
    <polygon class="cls-111" points="1008.643 605.367 1008.564 605.352 1008.595 605.278 1008.643 605.367"/>
    <path class="cls-74" d="M925.035,708.433c0-6.143.078-12.287-.021-18.429-.097-6.02.664-12.011.325-18.032.132,0,.264,0,.396,0,.009,5.64.018,11.28.027,16.921.851.673.832,1.633.839,2.578.029,3.941.133,7.885-.442,11.105.038-3.722,1.511-7.916,2.019-12.266.073-.628.356-1.127,1.1-1.149.994.895.349,2.248.912,3.261.605,1.231,1.927,1.489,2.977,2.007,3.548,1.749,7.128,3.439,10.806,4.917,1.132.455,2.31.33,3.427.665.783.329,1.588.339,2.404.16,1.875-.412,3.784-.568,5.687-.775.497-.169,1.014-.041,1.331.27,2.052,2.012,4.358,1.264,6.404.315,2.154-.999,3.842-.929,5.653.609,1.514,1.286,3.526,1.895,4.911,3.403.56.609,1.147,1.191,1.195,2.094-.046.213-.141.396-.283.56-.937.706-2.038.509-3.078.516-6.081.038-12.165.11-18.244-.006-8.149-.155-16.282.444-24.426.372-1.402-.012-2.618.584-3.919.905Z"/>
    <path class="cls-74" d="M995.042,672.216l-.402-1.061c.164-.454.539-.628.968-.733.419.02.857-.015,1.156.376-.103,4.234.229,8.472-.268,12.704-.185,1.572-.109,3.18-.083,4.771.078,4.833-.607,9.646-.368,14.482-.448,1.61.045,3.279-.271,4.907-5.34-1.614-10.781-.524-16.151-.833-1-.058-2.007.012-3.009-.048-.711-.042-1.436-.068-1.855-.796l-.034-.073c-.317-.787.244-1.224.716-1.64.95-.838,1.06-1.785.465-2.845-.403-.719-.576-1.416-.021-2.135.271-.24.612-.36.922-.533,4.219-1.905,8.382-3.928,12.541-5.959.683-.333,1.326-.795,2.088-.205,1.713,3,2.076,6.419,2.849,8.832.48-3.681-.081-8.213.389-12.729-.336-1.979.34-3.87.548-5.795.301-2.781.469-5.522-.173-8.269-.121-.52-.109-1.056.051-1.575.072-.286.077-.569-.058-.842Z"/>
    <path class="cls-140" d="M931.922,672.153c2.187,1.295,4.235,2.792,6.246,4.341.574,1.562,1.519,1.105,2.501.459,1.229-1.188,2.473-2.356,3.589-3.657,1.026-1.196,1.656-1.273,2.819-.244,1.433,1.268,3.258,2.166,4.022,4.096.053.436-.049.854-.374,1.129-1.977,1.669-3.691,3.614-5.628,5.324-.321.283-.751.319-1.136.457-.937.405-1.813.457-2.874.189-2.257-.571-4.55.045-6.812.313-1.29.153-2.564.267-3.858.17-.295-.057-.527-.223-.737-.427-.799-.094-1.083-.601-1.082-1.342.004-2.995-.034-5.99.026-8.983.026-1.307.441-1.641,1.715-1.75.526-.045,1.055-.051,1.583-.075Z"/>
    <path class="cls-47" d="M974.76,705.985c6.122-.011,12.244-.014,18.367-.04.987-.004,1.881.092,2.347,1.419.503-1.72-.158-3.251.573-4.609,0,1.183.023,2.366-.008,3.548-.04,1.52-.249,1.752-1.763,1.767-2.956.031-5.919-.112-8.868.033-12.583.623-25.181-.012-37.756.423-6.798.236-13.586.104-20.377.26-.761.017-1.547.104-2.239-.354.504-1.453,1.532-1.832,3.026-1.799,8.085.179,16.158-.506,24.248-.352,6.672.127,13.347.028,20.021.021.82,0,1.662.11,2.429-.317Z"/>
    <path class="cls-61" d="M929.271,689.258c-.577,1.034-.302,2.201-.504,3.299-.782,4.235-1.847,8.404-3.005,12.608,0-5.424,0-10.849,0-16.273,1.202-.082,2.514.386,3.516-.701.326.358.327.714-.007,1.068Z"/>
    <path class="cls-9" d="M996.765,670.798c-.357.119-.715.238-1.072.357-.698-1.069.962-1.547.631-2.524.263-2.558,1.289-3.288,4.299-3.057-.14.108-.275.223-.421.323-1.357.931-2.369,2.075-2.384,3.838-.114.117-.23.232-.347.346l-.007.007c-.114.118-.23.234-.348.348l-.007.007c-.114.117-.229.233-.343.35v.004Z"/>
    <path class="cls-27" d="M929.271,689.258c.002-.356.005-.712.007-1.067.438-1.265.367-2.582.402-3.888.229-.008.458-.015.687-.023.858.41.787,1.229.815,1.965.072,1.927-.264,3.819-.57,5.711-.256.598-.392,1.328-1.311,1.204-.01-1.3-.019-2.601-.029-3.901Z"/>
    <path class="cls-138" d="M926.05,726.33v9.314c-.056.001-.112.002-.169.004v-9.38c.056.021.112.042.169.063Z"/>
    <path class="cls-138" d="M925.638,719.859v2.662c-.036.005-.073.009-.109.014v-2.665c.036-.004.073-.007.109-.011Z"/>
    <path class="cls-117" d="M997.116,670.437c.116-.116.232-.232.348-.348-.116.116-.232.232-.348.348Z"/>
    <path class="cls-117" d="M996.765,670.794c.114-.117.229-.233.343-.35-.114.117-.229.233-.343.35Z"/>
    <path class="cls-117" d="M997.471,670.082c.116-.115.231-.231.347-.346-.116.116-.231.231-.347.346Z"/>
    <path class="cls-138" d="M917.6,661c.093.071.186.141.279.212-.093-.071-.186-.141-.279-.212Z"/>
    <path class="cls-84" d="M1006.365,613.967c.141,3.226-.118,6.441-.266,9.659-.032.703-.025,1.407-.036,2.112-.131,2.473-.323,4.944-.368,7.418-.026,1.415-.45,2.444-1.661,3.273-1.621,1.11-1.619.731-1.022,2.844.207.731.268,1.493.708,2.172.861,1.328.845,1.362-.1,2.539-1.621,2.02-3.089,4.192-5.36,5.591-1.031-.006-.608-.732-.631-1.254-.196-4.352.461-8.679.398-12.084-.135,3.69-.39,8.318-.532,12.95-.015.485-.055.937-.398,1.311-2.993,2.46-5.99,4.915-8.973,7.387-.382.316-.781.507-1.27.518-.163.099-.277.059-.341-.121-.621-.53-1.093-.433-1.592.236-.872,1.168-1.824,2.275-2.743,3.408-.117.138-.243.27-.302.447.033.074.044.151.031.232-.055,1.165-.435,2-1.832,1.797-.714-.288-.6-.866-.585-1.475.122-4.751.318-9.501.226-14.251.25-4.538.117-9.089.206-12.382-.283,2.46.218,6.197-.206,9.909-.014,3.776.026,7.548-.021,11.32-.362,1.88.023,3.794-.262,5.679-.083,1.033-.705,1.377-1.667,1.378-4.751.003-9.501.019-14.252-.011-.847-.005-1.522-.238-1.541-1.262-.26-1.659-.183-3.332-.189-5.002.268-4.309.159-8.624.178-12.936,0-1.367-.002-2.736.002-4.099,0-.184.006-.374.017-.558.339-1.811.05-3.644.163-5.12.124,3.123-.314,6.583-.182,10.058-.016,4.222.087,8.44-.178,12.652.01,1.676-.061,3.354.163,5.022,0,1.027-.673,1.235-1.514,1.252-1.164.024-2.329-.023-3.487.065-.942.288-1.721-.077-2.412-.668-.591-.506-1.218-.903-2.004-.992-1.22.24-2.348,1.456-3.694.357-1.319-.992-2.614-2.017-3.965-2.964-.863-.605-1.108-1.359-1.157-2.392-.243-5.19-.087-10.384-.252-15.574-.564-.995-.302-2.083-.303-3.126,0-1.331-.107-2.651-.191-3.591-.001,1.862.624,4.122-.182,6.346v16.396c-2.086-1.036-3.472-2.679-5.261-3.705-.456-.161-.993-.307-1.358,0-1.385,1.161-2.58.484-3.831-.244-1.874-1.09-3.832-2.032-5.658-3.209-.551-.355-1.119-.678-1.102-1.455-.015-.372-.023-.744-.013-1.115.036-4.53-.492-9.041-.453-13.533.204,2.318.073,4.602.093,6.885.015,1.641.076,3.268.31,4.9.117.817.336,1.771-.445,2.483-.565.375-1.132.219-1.68-.023-2.606-1.149-4.886-2.779-6.937-4.741-.395-.378-.654-.831-.587-1.411.05-1.232.074-2.461-.198-3.676.671-2.078.959-4.228,1.169-6.393-.544-.288-.641-.781-.658-1.34-.131-4.284-.273-8.567-.412-12.85-.311-1.454-.049-2.927-.145-4.387-.081-1.25.693-1.71,1.728-1.714,1.648-.006,3.298-.006,4.947.004,1.019.006,1.641.427,1.672,1.562.056,2.052.312,4.093.373,6.145.094,1.073.738,1.52,1.758,1.61,1.004.089,2.008.1,3.013.099,11.77-.01,23.541.004,35.311.002,9.93-.003,19.859-.001,29.789,0,1.252,0,2.498.013,3.44-1.014.919-.67.99-1.618,1.044-2.666.086-1.675-.425-3.418.464-5.021,2.444-.731,4.861-.97,7.204.341Z"/>
    <path class="cls-79" d="M916.496,643.463c2.236,2.599,5.173,4.193,8.177,5.689.569.045,1.101.162,1.399.728,2.544,1.698,5.309,3.01,7.946,4.547.578.337,1.09.331,1.642-.022.709-.453,1.336-.314,1.867.321-1.288.424-2.427,1.12-3.483,1.954-.787.622-1.631,1.113-2.618,1.334-.575.411-1.055-.018-1.412-.3-1.802-1.423-3.874-2.063-6.107-2.345-.974-.123-1.889-.494-2.78-.906-3.295-1.602-6.549-3.28-9.953-4.663-2.572-1.045-4.885-2.634-7.226-4.131-.243-.156-.493-.349-.649-.586-.599-.909-.286-4.209.469-5.05.75-.835,1.529-1.644,2.282-2.476.461-.51,1.058-.716,1.696-.89,2.509-.685,5.016-1.374,7.512-2.104.702-.205,1.589-.298,1.578-1.369.251.19.367.457.368.757.006,1.284-.009,2.568,0,3.852.004.688-.385,1.209-.697,1.765-.464,1.297-1.007,2.594-.01,3.894Z"/>
    <path class="cls-104" d="M925.325,620.98l.017-2.665c-.284-1.519-.067-3.052-.127-4.577-.038-.984.538-1.539,1.411-1.757,4.626-1.158,9.281-2.199,13.921-3.3,1.165-.276,1.786.104,1.725,1.437-.073,1.588-.017,3.183-.017,4.776.025,1.828.462,3.607.643,5.416.181,1.807-.127,2.183-1.979,2.189-4.648.015-9.296.017-13.944-.007-.71-.004-1.616.266-1.845-.849.013-.236.078-.457.194-.663Z"/>
    <path class="cls-56" d="M943.101,607.585c-.398-.708-.426-1.506-.263-2.236.4-1.791.236-3.627.553-5.429.212-1.2.084-2.461.107-3.694,2.864.077,5.731.152,8.59.288,1.32.063,2.537-.533,3.833-.28,1.387.278,2.81.101,4.2.328,1.355.432,2.026,1.367,1.962,2.783-.075,1.671.202,3.27.861,4.807-.084.69-.751,1.001-1.022,1.573-.338.851-1.079.972-1.856,1.03-5.033.381-10.082.408-15.12.7-.615.036-1.233.037-1.845.13Z"/>
    <path class="cls-58" d="M953.428,592.68c-4.243.047-8.487-.09-12.912.144.412-1.229,1.707-1.159,2.276-1.917.004-.083.007-.166.011-.249.023-.166.069-.325.133-.479,1.074-1.564,2.326-3.009,3.178-4.725.798-.748,1.88-.938,2.809-1.432,2.024-1.075,2.425-1.792,2.149-4.095-.131-1.089-.538-2.198.251-3.215.55-.393,1.031-.17,1.378.267.699.882,1.506.709,2.367.349.787-.265,1.565-.474,2.25.23.891,2.373.209,4.744-.186,7.064-.165.968-1.645,1.258-2.162,2.222-.61,1.482-.612,3.094-.987,4.627-.11.451-.051.948-.554,1.208Z"/>
    <path class="cls-97" d="M952.731,661.916c.803-.064,1.289.504,1.81.955.541.468,1.099.89,1.752,1.183.192.172.445.226.668.34,2.342,1.007,2.566,1.485,1.61,3.425-.078.142-.147.29-.197.445-.095.315-.119.645-.192.966-.207,1.205-1.228,1.832-1.926,2.681-1.305,1.588-2.554,3.227-4.039,4.657-.435.419-.832,1.093-1.624.589-1.418-1.223-2.845-2.437-4.251-3.674-.753-.662-1.358-.407-1.992.191-1.236,1.167-2.309,2.504-3.691,3.517-.21-.125-.222-.267-.036-.425,1.729-1.751,3.332-3.619,5.123-5.318,1.354-1.284,2.482-2.805,3.711-4.22.857-.927,1.692-1.827,1.806-3.216.074-.902.857-1.476,1.467-2.094Z"/>
    <path class="cls-45" d="M953.797,585.948c.153-.087.298-.199.461-.257,1.846-.66,2.635-1.879,2.447-3.906-.123-1.324.169-2.686.275-4.031.588-1.472,1.662-1.593,2.97-1.072.483.417.666.992.658,1.585-.039,2.864.598,5.772-.609,8.563-.342.791-.105,1.634.088,2.44.466,1.953,1.102,3.859,1.589,5.806.197.788.495,1.625-.302,2.298-.407.119-.811.18-1.194-.078-1.418-.002-2.836-.005-4.254-.007-.305-.23-.663-.183-1.004-.17-.921.033-1.797-.107-2.162-1.07-.389-1.027-.79-2.12.327-3.013.116-.004.231-.007.347-.01.398-1.721.072-3.467.188-5.197.042-.628-.167-1.281.175-1.881Z"/>
    <path class="cls-139" d="M953.087,593.037c.001.118.001.236.003.354.032,1.964.504,3.608,2.836,3.899-3.118,0-6.237-.006-9.355,0-1.151.002-2.231-.179-3.072-1.063q-.522-3.189,2.739-3.194c2.283-.002,4.566.003,6.849.004Z"/>
    <path class="cls-132" d="M921.191,656.653c.532,0,1.073.061,1.596-.011,1.894-.262,3.061,1.006,4.354,2.013.361.281.311.65-.01.901-1.119.876-2.048,2.223-3.817,1.562-.318-.119-.711-.112-1.057-.067-2.475.324-3.601-1.371-4.656-3.124-.466-.773-.216-1.191.752-1.263.941-.07,1.892-.015,2.838-.015v.003Z"/>
    <path class="cls-32" d="M925.373,621.433c.303.648.886.713,1.496.713,4.668,0,9.337.016,14.005-.014,1.292-.009,1.618-.329,1.424-1.432-.353-2.002-.15-4.009-.2-6.013.103-.238.199-.235.287.009.183.683-.062,1.453.422,2.075.884,1.091.27,2.833,1.627,3.716.78.825,1.804.772,2.808.79,4.54.081,9.083-.157,13.619.136.182.041.367.078.551.107.543.082,1.086.077,1.63-.016.607-.118,1.153-.055,1.532.51.128.298.096.575-.113.828-12.795.005-25.591.015-38.386.012-1.974,0-2.02-.072-2.097-2.121.611-.055.834.66,1.395.702Z"/>
    <path class="cls-53" d="M942.385,614.696c-.096-.003-.191-.006-.287-.009-.01-1.296-.006-2.593-.034-3.889-.035-1.62-.156-1.704-1.788-1.339-1.207.27-2.413.544-3.617.827-3.211.753-6.421,1.511-9.631,2.27-1.427.337-1.595.549-1.624,2.051-.024,1.236-.041,2.472-.061,3.708-.361-1.572-.273-3.177-.259-4.763.014-1.645.42-2.032,2.011-2.41,4.429-1.052,8.86-2.091,13.291-3.134.173-.041.347-.075.521-.107,1.379-.255,1.473-.221,1.497,1.12.034,1.891-.009,3.783-.018,5.675Z"/>
    <path class="cls-16" d="M943.101,607.585c.303-.79,1.01-.714,1.646-.742,2.892-.128,5.785-.235,8.678-.359,2.125-.091,4.248-.255,6.373-.271,1.081-.008,1.5-.463,1.515-1.459.225-.082.415-.033.572.149,1.012,2.502.846,2.744-2.392,3.491-4.069-.036-8.126.28-12.19.421-2.384.083-2.826.56-2.948,2.952-.079,1.553.421,3.193-.573,4.638-.183.142-.38.165-.591.07-.03-2.963-.059-5.927-.089-8.89Z"/>
    <path class="cls-105" d="M946.388,585.968c-.179,2.163-1.673,3.397-3.235,4.583-.113.126-.268.208-.364.352,0,0,.003.003.003.003-.539-1.744-.977-3.501-.721-5.352-.107-.149-.111-.298.002-.446.147-.089.3-.162.462-.218,1.223-.299,1.937-1.887,3.482-1.376.848.707.381,1.615.371,2.454Z"/>
    <path class="cls-26" d="M925.373,621.433c-.586.006-1.011-.307-1.396-.702-.012-1.944.008-3.885-.335-5.817-.151-.852-.52-1.27-1.372-1.27-1.71.001-3.422-.042-5.13.017-1.069.037-1.276.3-1.322,1.454-.052,1.295-.037,2.592-.052,3.889-.408-1.562-.361-3.164-.31-4.749.051-1.595.614-2.084,2.19-2.094,1.771-.011,3.543.008,5.313.063,1.168.036,1.28.147,1.346,1.365.115,2.121.073,4.249.325,6.363.057.476.024.981.695,1.027.016.151.032.302.048.453Z"/>
    <path class="cls-126" d="M919.67,606.869c.225.309.713.425.681,1.107-1.358.119-2.732.133-4.1-.015-.646-.07-2.039-1.625-2.016-2.229.031-.789.716-.562,1.186-.649.635-.019,1.222.215,1.828.348l-.023-.009c.588.339,1.177.336,1.767.002l-.022.01c.572-.117,1.228-.543,1.512.408l-.023.006c-.383.248-.92.377-.79,1.021Z"/>
    <path class="cls-50" d="M921.126,654.464c1.262.229,2.526.442,3.817.357.929-.061,1.672.364,2.431.829,1.333.818,2.475,1.968,4.053,2.364-.585.422-1.152.216-1.619-.158-1.196-.958-2.557-1.257-4.058-1.403-1.708-.166-3.241-.954-4.623-1.99Z"/>
    <path class="cls-120" d="M942.788,642.035c-.098-2.776-.212-5.552-.28-8.329-.015-.604-.208-1.311.467-1.772.595,1.066.756,4.648.488,10.473-.225-.124-.45-.248-.676-.372Z"/>
    <path class="cls-90" d="M930.821,594.566c.245-.018.478.011.594.263.333.724-.772,2.34-1.57,2.254-.585-.063-1.162-.215-1.737-.351-.403-.095-.866-.198-.884-.719-.022-.628.38-.963.962-1.088.288-.062.584-.086.877-.126.586-.079,1.172-.156,1.758-.234Z"/>
    <path class="cls-100" d="M952.731,661.916c-.532,2.115-1.158,4.172-3.273,5.31q1.195-2.245-.62-3.89c.851.033,1.612-.217,2.303-.709.481-.343,1.006-.596,1.59-.711Z"/>
    <path class="cls-122" d="M927.204,605.063c1.468.063,2.209.628,2.566,1.956.075.277.225.58-.074.802-.258.191-.588.176-.827,0-.755-.557-1.487-1.145-2.216-1.737-.233-.19-.418-.46-.235-.764.169-.281.486-.283.786-.257Z"/>
    <path class="cls-72" d="M940.623,676.764c.012.142.024.284.036.425-.86.503-1.383,1.429-2.318,1.836-.27.117-.562.238-.821.034-.293-.23-.154-.539-.02-.792.298-.565.68-1.094.669-1.775.778.456,1.567.813,2.455.27Z"/>
    <path class="cls-59" d="M942.429,585.213c-.061.043-.128.063-.203.058-.17.052-.319.154-.489.209-1.778.39-3.556.779-5.334,1.169-.264-.136-.528-.272-.792-.409,1.601-.556,3.255-.871,4.933-1.078.263-.102.561-.092.809-.245.225-.033.45-.066.676-.098.388-.127.475.051.4.394Z"/>
    <path class="cls-104" d="M943.19,616.475c.102.002.204,0,.306-.007,1.155,1.402,1.155,3.226-.001,4.625-.641-.308-.701-.89-.7-1.497.001-.942.008-1.883.012-2.825.128-.099.256-.197.384-.296Z"/>
    <path class="cls-139" d="M953.797,585.948c0,1.743.002,3.487,0,5.23,0,.639.028,1.285-.364,1.848,0-.116-.002-.232-.006-.347.001-1.63-.002-3.26.006-4.89.003-.634-.083-1.292.363-1.841Z"/>
    <path class="cls-42" d="M923.346,606.844c.022-.214.119-.361.327-.346.307.023.576.158.626.488.031.203-.166.292-.343.297-.312.009-.573-.082-.609-.44Z"/>
    <path class="cls-144" d="M920.483,605.842c-.453-.325-.983-.364-1.512-.408.44-.33.943-.486,1.463-.309.463.157.467.448.048.717Z"/>
    <path class="cls-144" d="M917.25,605.431c-.643.062-1.252-.056-1.828-.348.692-.319,1.266-.015,1.828.348Z"/>
    <path class="cls-144" d="M919.67,606.869c-.318-.79.234-.907.79-1.021-.263.341-.527.681-.79,1.021Z"/>
    <path class="cls-144" d="M918.994,605.424c-.589.469-1.178.457-1.767-.002.589,0,1.178.001,1.767.002Z"/>
    <path class="cls-102" d="M941.738,585.48c.162-.07.325-.139.488-.209-.051.095-.103.189-.156.283-.112-.021-.222-.045-.332-.074Z"/>
    <path class="cls-64" d="M957.765,668.045c1.107-1.671.08-2.683-1.125-3.639,2.211-.331,4.434-.175,6.654-.18,5.181-.012,10.362.036,15.543-.019.54-.006,1.618-.426.872.884-.676.852-1.353,1.704-2.029,2.556-.255.164-.591.366-.823.19-1.441-1.095-2.427-.428-3.479.681-.965,1.017-1.944,1.926-1.385,3.506.035.1-.032.23-.069.345-.325.706-.792,1.266-1.559,1.52-.373.089-.748.076-1.125.035-.187,0-.363-.051-.53-.13-3.382-1.179-6.545-2.864-9.816-4.304-.612-.27-1.088-.703-1.13-1.446Z"/>
    <path class="cls-38" d="M971.542,672.194c-1.324-1.657-1.316-1.649.185-3.18.898-.915,1.805-1.827,2.633-2.803.575-.678,1.045-.583,1.603-.044.544.526,1.04,1.109,1.718,1.481.089.153.139.363.271.45,2.902,1.918,4.072,5.316,6.521,7.618-1.18,2.106-2.987,3.666-4.657,5.348-1.923.12-2.325-1.695-3.394-2.664-1.287-1.431-2.568-2.87-3.933-4.229-.552-.549-1.075-1.105-.947-1.977Z"/>
    <path class="cls-13" d="M979.693,680.806c.981-2.272,2.597-3.947,4.779-5.09,1.262.971,1.927,2.505,3.241,3.488,1.638-1.103,2.662-2.862,4.364-3.838,1.114-.036,1.151.816,1.212,1.558.144,1.745.112,3.499.249,5.249.101,1.283-.617,1.949-1.953,1.811-1.038-.064-2.084.05-3.126-.173-1.247-.267-2.098.493-2.885,1.304-.801.826-1.655,1.303-2.769.569-.948-.874-1.749-1.887-2.624-2.83-.515-.555-.983-1.21-.489-2.048Z"/>
    <path class="cls-6" d="M991.059,683.233c1.812.039,1.824.037,1.56-1.677-.206-1.333-.084-2.671-.121-4.006-.021-.752.07-1.523-.421-2.184.988-1.05,1.976-2.1,2.965-3.15.217-.117.433-.234.65-.351.471,3.466.119,6.932-.09,10.387-.121,2.002.104,4.008-.182,6.001-1.341,1.81-2.973,1.06-4.581.522-.881-1.885-1.035-3.742.22-5.542Z"/>
    <path class="cls-65" d="M1016.294,650.852c-.026.097-.058.191-.098.282-2.756-.778-5.595-1.017-8.427-1.299-1.062-.77-.374-1.286.285-1.749.776-.544,1.687-.829,2.554-1.193,1.141-.479,1.841-1.215,1.692-2.564-.088-.799.14-1.518.835-2.019,1.396,1.343,3.024,2.436,4.261,3.951-.024,1.612-.955,3.007-1.102,4.59Z"/>
    <path class="cls-60" d="M1013.135,642.31c-.052.877-.024,1.743.134,2.617.243,1.346.139,1.548-1.142,2.192-1.095.55-2.244.991-3.347,1.526-.486.236-1.2.349-1.011,1.189-.939.045-1.427-.379-1.42-1.342.008-1.112.014-2.224.002-3.335-.009-.842.423-1.271,1.209-1.471,1.19-.303,2.369-.652,3.553-.977.681-.187,1.383-.337,1.686-1.101.112.234.224.468.336.701Z"/>
    <path class="cls-112" d="M997.096,650.498c.007-1.945-.115-3.9.049-5.832.33-3.88.321-7.761.327-11.646,0-.176.002-.357.039-.527.074-.341.141-.75.612-.691.368.046.388.417.389.699.008,2.121.194,4.266-.057,6.358-.325,2.71-.247,5.41-.263,8.114-.005.862-.426,1.75.067,2.601-.311.405-.72.686-1.163.924Z"/>
    <path class="cls-76" d="M979.71,665.091c.025-.335-.098-.597-.449-.633-.467-.047-.94-.05-1.411-.05-7.07-.003-14.14-.002-21.21-.002-.116-.118-.232-.235-.348-.353,1.236-.001,2.473-.002,3.709-.004.665-.001,1.313-.04,1.635-.771.165-.201.286-.48.633-.364.144.992.846,1.141,1.677,1.135,1.641-.011,3.282,0,4.923,0,2.813,0,5.626,0,8.439-.001.788,0,1.575-.01,1.7-1.068.61-.792.253-1.716.352-2.58.274-3.913.128-7.832.201-11.747.069-.254.229-.345.482-.274-.012,4.825-.018,9.65-.047,14.475-.003.478-.143.952.427,1.204.384.277.642.594.35,1.088-.355-.018-.709-.036-1.064-.054Z"/>
    <path class="cls-36" d="M980.774,665.145c-.117-.363-.233-.725-.35-1.088.494-.484.989-.968,1.483-1.453,1.262.861,2.529,1.714,3.782,2.588.234.163.474.397.358.734-.121.35-.462.324-.744.321-1.594-.014-3.204.024-4.528-1.103Z"/>
    <path class="cls-30" d="M986.511,658.282c.113.04.227.081.341.121,1.285.96,2.281,2.191,3.296,3.416,1.241,1.496,2.607,2.872,4.286,3.905.577.355,1.202.716,1.402,1.466-.176.069-.325.175-.376.14-2.123-1.465-4.316-2.837-5.96-4.896-.658-.825-1.46-1.535-2.138-2.346-.429-.514-1.086-.963-.851-1.806Z"/>
    <path class="cls-117" d="M996.324,668.631c.572.211.699.607.39,1.101-.309.494-.678.95-1.021,1.422-.351.172-.702.032-1.052,0-.205-.175-.297-.446-.131-.62.605-.634,1.013-1.459,1.814-1.903Z"/>
    <path class="cls-36" d="M981.875,662.373c.101-.149.201-.298.302-.447-.101.149-.201.298-.302.447Z"/>
    <path class="cls-12" d="M946.388,585.968c-.868-.588-.789-1.353-.406-2.175-.129-.693.566-.572.837-.854.208-.084-.082.065.132-.036-.055.017-.111.032-.173.05-1.203.416-2.182,1.467-3.6,1.224-.448-.562-.205-1.112.056-1.641.451-.913.475-1.809-.103-2.66-.652-.96-.51-1.823.124-2.741.495-.716.862-1.52,1.287-2.286.26-.383.643-.578,1.074-.696,1.5-1.316,3.255-1.094,5.018-.834,1.094.134,1.589.829,1.739,1.849.047.619-.115,1.148-.652,1.517-.313,1.431.208,2.805.345,4.198.186,1.894-.552,2.995-2.253,3.68-1.143.461-2.221,1.086-3.424,1.404Z"/>
    <path class="cls-88" d="M950.591,573.786c-1.664.048-3.296.531-4.975.368-.187-.878-.542-1.649-1.453-2.088.207-.255.327-.467.503-.609.99-.799,1.004-1.754.582-2.863-.482-1.267-.885-2.565-1.29-3.859-.193-.616-.31-1.255-.462-1.884.857-5.049,1.685-7.982,2.655-9.149.441.804.792,1.566.932,2.428.118.725.414,1.348,1.086,1.73,1.51-.174,1.771.772,1.772,1.956-.473.812,1.068.821.658,1.609-.122.123-.244.245-.366.368.102-.091.194-.193.294-.286.084-.078.181-.14.288-.189,1.28.348,1.307,1.364,1.203,2.379-.113,1.106-.859,1.6-1.912,1.697-.78.072-1.574.151-1.736,1.132-.173,1.052.041,1.93,1.024,2.587,1.511,1.009,2.016,3.153,1.197,4.674Z"/>
    <path class="cls-75" d="M967.305,560.714c.493-.52.674-1.165.749-1.854,1.642.25,2.01,1.44,2.094,2.839-.006.145-.013.291-.019.436-1.343.033-1.348.035-1.22,1.115.04.338.105.674.159,1.01.218.19.124.531.348.717,0,0,.002.002.002.002-.157.554-.339,1.07-1.093.727-.017-.076-.035-.153-.052-.229-.428-1.173-.784-2.371-1.269-3.523-.066-.224-.094-.452-.058-.684.052-.227.194-.399.359-.556Z"/>
    <path class="cls-110" d="M969.416,564.977c-.116-.239-.232-.478-.349-.717.116.239.232.478.349.717Z"/>
    <path class="cls-102" d="M947.038,583.074l-1.056.719c-1.184.473-2.369.947-3.553,1.42-.133-.131-.267-.263-.4-.394.383-.214.765-.427,1.148-.641,1.293-.503,2.586-1.006,3.879-1.509.102.095.134.186.095.274-.039.087-.076.13-.112.13Z"/>
    <path class="cls-102" d="M941.354,584.917c-.269.082-.538.163-.808.245.269-.082.539-.163.808-.245Z"/>
    <path class="cls-7" d="M998.161,600.795c.193.044.387.088.58.131.682.505-.096,1.143.155,1.687v.004c.211.206.147.528.316.751,0,0-.04.03-.041.031.72,2.358,1.447,4.713,2.158,7.074.169.561.285,1.138.425,1.708-.635,1.305-2.032.603-2.962,1.127-.172.052-.349.067-.527.047-.933-.677-1.836-1.423-3.072-1.472-.296-.184-.63-.204-.965-.222-.494-.068-.805-.321-.857-.84.046-.388.263-.657.592-.844.146-.083.294-.166.438-.253.241-.194.555-.26.781-.442.059-.118.071-.235-.038-.355-.441-.319-1.015-.404-1.34-.872-.071-.175-.077-.351-.023-.53,1.902-1.12,1.859-3.079,2.098-4.905.114-.872.092-1.776,1.009-2.283.553-.205.908.14,1.272.458Z"/>
    <path class="cls-111" d="M1006.667,604.79c1.17.539,1.203.549.807,1.798-.29.916.073,1.698.335,2.522.432,1.36.412,1.372-1.111,1.33-1.502-.393-1.862-1.936-2.857-2.839-.681-.875-1.226-1.857-2.168-2.513.945-.83,1.894-.907,2.91-.653.687.172,1.369.382,2.09.362,0,0-.005-.007-.005-.007Z"/>
    <path class="cls-70" d="M998.481,612.838c.214-.541.688-.573,1.166-.589.702-.025,1.405-.045,2.108-.067.756.027,1.52.137,2.266.063,1.345-.134,2.08.444,2.345,1.723-2.374-.003-4.747-.007-7.121-.01-.688-.077-.823-.532-.763-1.119Z"/>
    <path class="cls-14" d="M1003.841,607.601c1.214.683,1.657,2.142,2.857,2.839-.894.123-1.37-.476-1.796-1.094-.386-.559-.93-1.029-1.061-1.745Z"/>
    <path class="cls-142" d="M979.002,593.031c.008.942.004,1.884.029,2.825.019.723.32,1.291,1.102,1.365,1.753.164,3.51.296,5.268.394.329.018.67-.179,1.005-.277.066-.053.131-.106.197-.16,1.058-.106,1.329.871,1.532,1.456.583,1.676,1.705,2.315,3.358,2.296.439-.005.815.112,1.094.471.295,1.001-.288,1.443-1.123,1.615-.774.159-1.105.612-1.498,1.285-1.089,1.867-2.138,3.798-3.89,5.185-1.87.154-3.526-.774-5.312-1.041-.199-.034-.383-.104-.553-.213-.471-.651-.977-1.283-1.136-2.102-.885-2.865-1.055-5.823-1.151-8.793-.004-.215-.008-.429-.015-.643-.076-.807-.143-1.614-.013-2.417.103-.64.222-1.291,1.108-1.246Z"/>
    <path class="cls-113" d="M979.002,593.031c-.641,1.256-.236,2.608-.36,3.911-2.766,1.423-4.763.662-5.84-2.123-1.038-2.683-1.35-5.609-2.77-8.162-.215-.386-.125-.801.217-1.128,3.07-.631,6.13-1.037,9.107.405.193,2.381-.292,4.729-.353,7.097Z"/>
    <path class="cls-125" d="M979.355,585.933c-3.076-.001-6.151-.003-9.227-.004-1.316,1.058-2.253.947-3.635-.429-.287-.916.315-1.24,1.003-1.519.597-.243,1.23-.338,1.845-.497.18-.062.361-.127.538-.201.416-.253.893-.269,1.356-.336,1.884-.271,3.717-1.017,5.674-.614.409.002.841.089,1.148-.3.299.147.44.429.593.7-.596.049-.894.322-.585.915.405.775.858,1.525,1.29,2.286Z"/>
    <path class="cls-133" d="M995.293,593.296c.436.572.173,1.067-.123,1.603-.562,1.016-1.071,2.062-1.602,3.095-.392.909-1.23.835-1.965.791-1.793-.106-3.61-.217-4.936-1.705-.199.018-.389-.014-.572-.095-.335-.451-.585-.926-.046-1.382.634-.536.967-1.554,2.084-1.344.574.108,1.157.187,1.72.335,1.112.293,2.193.251,3.259-.18.721-.257,1.284-.786,1.952-1.136.076.006.152.011.229.017Z"/>
    <path class="cls-98" d="M997.113,591.61c.356-.018.711-.036,1.067-.053.147-.121.269-.095.37.061-.946.83-2.378.718-3.256,1.679,0,0,.032.006.032.006-.268.396-.605.293-.95.131-.389-.016-.778-.031-1.167-.047,1.219-.772,2.711-.945,3.904-1.776Z"/>
    <path class="cls-128" d="M994.375,593.434c.317-.043.633-.087.95-.131-.579.686-1.345,1.001-2.212,1.113.421-.327.841-.655,1.262-.982Z"/>
    <path class="cls-142" d="M986.096,596.986c.11.005.22.008.33.01.097.058.134.121.11.191-.025.073-.051.109-.081.109,0,0-.048.041-.049.041-.104-.117-.207-.234-.311-.352Z"/>
    <path class="cls-37" d="M949.577,559.983c-.308-.815-.768-1.528-1.408-2.123-.687-1.872-.898-3.859-1.386-5.78-.145-.571-.159-1.162.261-1.664,2.914-1.116,5.789-.649,8.655.206,1.361,2.771-.022,6.198-2.697,6.701-1.79.112-.402,1.484-.837,2.132-.114.355-.316.651-.59.902-.159.108-.334.175-.523.203-.462-.044-.951.017-1.337-.333-.046-.081-.093-.163-.139-.244Z"/>
    <path class="cls-66" d="M955.57,551.132c-2.829-.389-5.664-.718-8.526-.715,1.496-1.444,3.306-1.576,5.246-1.325,1.918.248,3.848.403,5.772.599.244.21.487.42.731.631.254.468,1.187.677.567,1.482-1.404.574-2.665.336-3.79-.671Z"/>
    <path class="cls-92" d="M961.255,597.288c-.448-2.754-1.48-5.355-2.124-8.059-.31-1.302-.568-2.525.392-3.701.427-.523.303-1.246.305-1.894.007-2.184.004-4.369.005-6.553.743-1.469,1.7-1.766,3.551-1.099.604.131,1.196-.454,1.804-.03.26.582.059,1.145-.065,1.713-.027.259-.068.515-.092.775.014,1.92-.66,3.739-.819,5.632-.029.445-.143.875-.248,1.306,1.223,3.693,1.196,7.79,3.621,11.09.378.514.29.991-.244,1.371-2.074.293-4.177.926-6.088-.55Z"/>
    <path class="cls-23" d="M963.02,572.809c-.123.012-.247.024-.37.035-.882,1.04-2.179.673-3.279.971-.911.149-1.829.143-2.749.118-.409-.036-.822-.055-1.175-.305-1.488-1.644.303-2.128,1.039-2.983.625-.761-.419-.904-.53-1.389-.702-1.887-.746-4.009-2.339-5.578-.617-.607-.244-1.492.607-1.855.583-.248,1.213-.459,1.88-.388,2.5.363,3.307,2.619,4.705,4.212.108.138.217.275.327.412.122.127.248.25.379.369.286.23.539.482.584.874.092,1.214.182,2.4.955,3.457.44.601.671,1.379-.035,2.048Z"/>
    <path class="cls-81" d="M959.168,572.812c1.161.011,2.321.021,3.482.032.245,1.046.49,2.091.735,3.137-1.184.366-2.367.733-3.551,1.099-.991.056-1.924.358-2.853.674-.699.128-1.398.256-2.096.384-.843.32-1.276-.173-1.4-.867-.23-1.28-.413-2.594.57-3.705.391-.569.997-.346,1.524-.412.357-.013.714-.025,1.072-.038.804-.393,1.715.098,2.518-.305Z"/>
    <path class="cls-55" d="M963.02,572.809c-.705-1.839-1.766-3.589-1.411-5.691.941-.773,2.013-1.385,2.827-2.315,1.702.568.863,1.834.594,2.732-.492,1.639-.602,1.609,1.126,1.869.228.034.463.01.693.043.694.8.607,1.956,1.289,2.778.337.407.515.968,1.204.589.672.863.35,1.877.428,2.83-1.577.126-2.967-.347-4.25-1.252-.805-.568-1.665-1.058-2.5-1.583Z"/>
    <path class="cls-121" d="M970.128,584.148c-.118,0-.236.002-.354.004-1.741-.709-2.267-2.549-1.274-4.446.163-.125.347-.211.547-.259.388-.066.755.055,1.124.142.682.077,1.304.361,1.943.584.484.283,1.036.317,1.569.425h-.002c.188.221.526.14.717.355.9.345,1.751.78,2.513,1.378-1.815.836-3.748,1.217-5.713,1.47-.286.332-.782.016-1.069.346Z"/>
    <path class="cls-62" d="M973.682,580.599c-.467.233-.935.4-1.415.029-.68-.305-1.34-.664-2.1-.746-1.918-.773-4.029-1.097-5.699-2.447.088-.568.27-1.091.72-1.483,2.886,1.449,5.765,2.91,8.493,4.647Z"/>
    <path class="cls-62" d="M974.397,580.954c-.239-.119-.478-.237-.717-.356.294.007.532.128.717.356Z"/>
    <path class="cls-31" d="M998.896,602.614c-.467-.525-.423-1.097-.153-1.688.5-.153,1.007-.293,1.503-.464.515-.178.504-.57.356-.999.76.144,1.096.378.65,1.269-.521,1.041-1.611,1.213-2.356,1.882Z"/>
    <path class="cls-51" d="M1000.628,599.502c-.587-.229-1.012-.651-1.368-1.154.671.13,1.115.529,1.368,1.154Z"/>
    <path class="cls-31" d="M999.213,603.369c-.235-.196-.307-.46-.316-.751.105.25.211.501.316.751Z"/>
    <path class="cls-75" d="M966.971,569.614c-.577.072-1.157.126-1.73.222-.585.098-1.163.123-1.732-.056-.509-.16-1.03-.339-1.084-.986-.057-.691.474-.803.976-1.02,1.345-.582,1.555-1.242.987-2.78-.531.104-.812-.224-1.062-.608-.268-.417-.296-.912-.445-1.369-.064-.138-.112-.281-.162-.424-.062-.287-.133-.575-.199-.863-.018-.147-.028-.295-.034-.443-.013-.381-.225-.702-.322-1.059-.03-.151-.063-.3-.103-.449-.07-.225-.149-.447-.212-.675-.027-.161-.037-.322-.035-.485.071-.715.411-1.082,1.169-.91.155.048.301.121.439.207.25.185.446.421.615.678.086.108.152.231.216.352.103.157.184.329.263.499.077.091.136.193.195.295.064.097.115.201.164.306.063.098.119.2.176.302.065.101.122.205.18.311.071.106.139.211.211.316.129.167.26.33.396.493.835,1.394,2.067,2.543,2.541,4.154,0,0-.051.083-.051.084-.398.007-.76.116-1.069.375-.244.563-.297,1.198-.642,1.723-.379.123-.829.211-.817.722.011.513.451.622.851.669.763.088,1.5.181,1.701,1.113-.774.393-1.091-.12-1.379-.694Z"/>
    <path class="cls-80" d="M966.971,569.614c.564.023.95.401,1.379.694,0,0,0-.002,0-.002.118.116.238.23.358.343l.011.011c.123.127.238.26.338.406-.214.633-.187,1.226.286,1.747-.129.558-.093,1.164-.589,1.836-.883-1.358-1.761-2.622-2.542-3.944-.44-.745.417-.783.759-1.091Z"/>
    <path class="cls-85" d="M966.615,567.804c-.043-.04-.085-.082-.129-.121-.397-.355-.916-.741-.659-1.314.278-.621.932-.264,1.43-.288,0,0,.003-.022.003-.022.321.161.575.39.722.724l-.017-.029c.487,1.119.042,1.389-1.008,1.106-.112-.034-.226-.052-.342-.055Z"/>
    <path class="cls-75" d="M966.957,567.859c.753.012.98-.457,1.009-1.106.245.349.447.723.101,1.103-.347.382-.739.207-1.11.003Z"/>
    <path class="cls-75" d="M967.982,566.782c-.241-.241-.481-.483-.722-.724.382.101.623.341.722.724Z"/>
    <path class="cls-75" d="M968.708,570.649c-.119-.114-.239-.229-.358-.343.119.114.239.229.358.343Z"/>
    <path class="cls-75" d="M969.057,571.066c-.113-.135-.225-.271-.338-.406.113.135.225.271.338.406Z"/>
    <path class="cls-137" d="M986.455,597.297c-.009-.1-.019-.2-.03-.3.163-.055.376-.205.483-.15,2.102,1.083,4.382,1.102,6.66,1.148.411.005.822-.005,1.232.019,2.37.139,2.69.406,3.36,2.782-.349-.104-.698-.208-1.047-.311-.08.011-.161.021-.241.032-.596.239-1.045.823-1.771.76-.639.045-1.297-.036-1.898.275-.246.062-.481-.003-.716-.062-1.238.66-2.504.18-3.755.073-.647-.056-.707-.656-.904-1.14-.429-1.053-.397-2.313-1.373-3.125Z"/>
    <path class="cls-106" d="M998.92,591.301c.084-.644.442-1.007,1.093-1.073-.229.496-.57.877-1.093,1.073Z"/>
    <path class="cls-106" d="M998.55,591.618c-.123-.02-.247-.04-.37-.061.252-.09.504-.18.756-.27-.065.185-.195.293-.386.33Z"/>
    <path class="cls-35" d="M964.079,563.936c.015.378.095.738.308,1.058-.004.351.058.719-.025,1.051-.286,1.146-.842,1.452-2.064,1.207-.23-.046-.46-.09-.69-.134-.249-.108-.498-.216-.747-.323-.002-4.042-.12-8.071-1.206-12.005-.3-1.085-.449-2.184-.177-3.303-.229-.388-.458-.777-.687-1.166,2.023.865,3.636,2.428,5.648,3.312.337.236.673.472,1.01.707.719.499,1.096,1.447.776,2.003-1.1,1.906.293,3.029,1.078,4.371.073.127.147.254.22.382.169.044.223.149.162.312.349.849.791,1.664.925,2.59.082.565.26,1.143-.236,1.624-.902-.334-1.519-.957-1.984-1.796-.415-.749-.905-1.462-1.538-2.058-.178-.106-.315-.245-.375-.45-.009-.091-.035-.177-.079-.257-.098-.124-.198-.247-.298-.37l.019.018c-.247-.181-.185-.514-.36-.731l.011.019c-.254-.176-.191-.513-.367-.728l.011.02c-.387-.253-.047-.782-.396-1.049l-.003-.005c-.173-.221-.342-.59-.667-.361-.412.29-.252.708-.044,1.08l-.003-.009c.228.191.17.518.348.732l-.011-.017c.367.545.442,1.209.723,1.789l-.007-.016c.372.271.053.782.372,1.071l-.003-.009c.411.409-.016,1.023.354,1.442Z"/>
    <path class="cls-39" d="M970.148,561.699c-1.187-.585-1.367-1.914-2.094-2.839,1.116-.982,1.213-.988,2.078-.088.53.551.96,1.145,1.039,1.951.079.8-.307,1.044-1.023.975Z"/>
    <path class="cls-109" d="M979.693,680.806c1.063,1.519,2.332,2.862,3.596,4.209.535,1.035.38,2.007-.207,2.978-2.056,3.396-3.65,7.066-6.056,10.256-.256.46-.491.934-.857,1.322-.074.829.527,1.396.814,2.084.736,1.763.657,2.053-.877,3.188-.468.346-.921.713-1.38,1.07-2.015-2.208-4.792-3.361-7.106-5.149-1.054-.814-2.021-1.065-3.207-.304-1.585,1.017-3.47,1.063-5.237,1.487-.651.156-1.131-.178-1.597-.562-.635-.523-1.28-1.035-1.921-1.552-.764.051-1.383-.274-1.912-.779-1.92-1.835-3.853-3.62-4.995-6.137-1.223-2.698-3.131-5.003-4.799-7.439-.523-.764-.771-1.457-.093-2.232.359-.043.7-.155.958-.408,1.93-1.889,3.852-3.787,5.776-5.681,2.04-2.346,4.077-4.696,6.125-7.035.359-.41.663-.824.656-1.395.17-.233.108-.58.376-.765,0,0,.015.085.015.086,3.77,1.743,7.541,3.486,11.311,5.229.847,2.489,3.345,4.289,5.942,4.232.666-.015,1.23.36,1.876.363.933.979,1.866,1.958,2.799,2.938Z"/>
    <path class="cls-107" d="M943.858,683.244c-.092.734.395,1.216.778,1.728,2.165,2.893,4.168,5.888,5.765,9.137.754,1.534,2.126,2.517,3.248,3.722.643.69,1.336,1.335,2.007,2-1.798.82-3.8.707-5.66,1.231-1.006.283-1.974.23-2.948-.093-4.273-2.05-8.635-3.913-12.857-6.066-1.49-.76-3.338-1.052-4.177-2.804-.148-2.619.55-5.199.352-7.821,1.032-.588,2.202-.34,3.301-.509,2.272-.349,4.573-.512,6.861-.754.303-.032.624-.028.848.169.822.722,1.647.412,2.482.058Z"/>
    <path class="cls-143" d="M930.014,692.1c.704.141,1.34.463,1.95.816,4.29,2.48,8.818,4.495,13.21,6.775.675.351,1.421.602,1.875,1.279-2.842-.658-5.409-2.027-8.064-3.161-2.821-1.204-5.594-2.519-8.394-3.773-.487-.218-.994-.388-1.291-.877.238-.353.476-.707.714-1.06Z"/>
    <path class="cls-40" d="M991.098,688.545c1.411-.08,2.858.255,4.224-.357.22.233.237.471.017.714-.016,5.22.144,10.447-.595,15.987-1.51-4.161-2.752-8.071-3.671-12.083-.431-.549-.19-1.277-.498-1.861.065-.823-.409-1.766.523-2.4Z"/>
    <path class="cls-5" d="M991.411,691.05c.026.612-.049,1.205-.338,1.756-3.606,1.497-7.107,3.216-10.606,4.944-1.157.571-2.236,1.362-3.59,1.459-.04-.08-.079-.16-.119-.24.06-.8.578-1.26,1.22-1.619,3.765-2.104,7.52-4.227,11.347-6.216.66-.343,1.36-.86,2.086-.084Z"/>
    <path class="cls-93" d="M995.339,688.902c-.005-.238-.011-.476-.016-.714-.204-5.449.485-10.877.37-16.323.427.633.328,1.356.363,2.06.223,4.551-.369,9.08-.367,13.624,0,.481-.084.94-.35,1.353Z"/>
    <path class="cls-5" d="M976.169,699.571c-.042-.527.011-1.034.316-1.488.503.241.212.759.389,1.114,0,0,.004.012.004.012-.236.121-.472.241-.708.362Z"/>
    <path class="cls-46" d="M964.46,622.84c0-.224,0-.448,0-.672.496-1.025,1.478-.836,2.316-.856,3.172-.077,6.346-.018,9.52-.037.945-.006,1.895-.003,2.635-.737.456-.535.787-1.21,1.545-1.416.21-.019.406.029.587.137.833,1.724,2.259,2.117,4.069,2.047,3.935-.152,7.878.117,11.812-.153.269-.053.541-.101.795-.207.166-.065.339-.09.516-.073.696.183.263.933.638,1.278-.202.512-.619.682-1.126.696-.472.013-.945.018-1.417.018-10.63-.007-21.26-.016-31.89-.024Z"/>
    <path class="cls-103" d="M961.639,645.291c-.009-3.901-.028-7.801-.014-11.702.002-.544-.23-1.472.511-1.476.75-.004.508.924.519,1.467.034,1.772.013,3.546.013,5.319,0,.594-.008,1.185-.33,1.717-.176-.019-.222.05-.141.208.043.085.079.129.114.129-.003,1.435-.006,2.87-.009,4.305-.213.182-.434.189-.663.032Z"/>
    <path class="cls-89" d="M926.072,649.879c-.52-.14-1-.356-1.399-.728.349-.52.428-1.116.306-1.695-.429-2.037-.254-4.097-.298-6.149-.047-2.228.041-4.453-.278-6.681-.135-.946-.532-2.144.629-2.891.47.549.37,1.219.349,1.851-.156,4.627.456,9.233.368,13.858-.009.471.004.942.329,1.333-.002.367-.004.735-.006,1.102Z"/>
    <path class="cls-8" d="M926.078,648.778c-.641-.316-.708-.908-.678-1.51.209-4.186-.404-8.347-.367-12.527.009-1.002,0-2.004-.002-3.005.664.295.695.89.701,1.493.007.708.036,1.417.003,2.123-.207,4.484.517,8.943.342,13.426Z"/>
    <path class="cls-86" d="M998.893,622.15l-.735-1.065c-.697.077-.99-.388-1.015-.937-.11-2.434.114-4.86.236-7.289.288-.195.571-.136.852.017.085-.001.168-.014.25-.038.254.373.509.746.763,1.119-.02,2.735.126,5.477-.351,8.193Z"/>
    <path class="cls-44" d="M961.639,645.291c.221-.011.442-.022.663-.033.032,4.376.076,8.752-.353,13.115-.087.249-.183.252-.286.009-.008-4.364-.016-8.728-.025-13.092Z"/>
    <path class="cls-136" d="M980.043,648.379c-.107.024-.215.043-.324.056-.435-.78.026-1.664-.285-2.458.414-4.597.04-9.224.561-13.833.471.965.369,1.995.305,2.997-.28,4.41-.169,8.826-.257,13.238Z"/>
    <path class="cls-57" d="M979.433,645.977c.41.783.242,1.632.285,2.458-.014,4.122-.028,8.245-.041,12.367-.974-.965-.394-2.096-.34-3.17.032-3.885.064-7.769.095-11.654Z"/>
    <path class="cls-11" d="M916.496,643.463c-.299-.264-.608-.517-.895-.793-.485-.468-.51-.986-.136-1.539.351-.518.694-1.042,1.04-1.563-.003,1.298-.007,2.596-.01,3.895Z"/>
    <path class="cls-118" d="M979.338,657.631c.169,1.051-.186,2.158.34,3.171-.085.768.364,1.701-.669,2.178.16-1.78-.206-3.592.33-5.348Z"/>
    <path class="cls-124" d="M961.663,658.383c.095.001.191-.002.286-.009.238,1.504-.025,3.043.321,4.54-.211.121-.422.243-.633.364-.096-1.632-.128-3.264.027-4.895Z"/>
    <path class="cls-18" d="M962.311,640.954c-.232-.329-.416-.669-.235-1.191.329.25.197.59.261.854-.016.112-.025.224-.026.337Z"/>
    <path class="cls-19" d="M961.255,597.288c2.129,0,4.258.002,6.388.003.474-.771,1.173-.81,1.947-.603,1.447,1.058,2.317,2.537,3.118,4.107.81,1.589,1.516,3.3,3.379,4.062.52.212.787.704.366,1.29-.529.473-1.143.395-1.776.311-3.518-.468-7.076-.509-10.591-1.009-.682-.097-1.441-.009-1.415-1.038-1.139-.664-1.582-1.641-1.433-2.953.079-.697-.027-1.414.019-2.117.061-.922-.262-1.602-1.077-2.043.358-.003.717-.006,1.075-.009Z"/>
    <path class="cls-63" d="M962.671,604.41c.665.518,1.472.333,2.215.42,1.927.227,3.863.369,5.791.592.743.086,1.367-.357,2.013-.383.538-.022.983.752,1.708.72.703-.031,1.409.023,2.114.039,1.183-.893,2.222-.539,3.198.368.258.576.515,1.152.773,1.728.644,1.046,1.083,2.159,1.136,3.403.042,2.009.075,4.018-.016,6.025-.034.748.026,1.581-.862,1.976-.083.004-.165.008-.248.014-1.029-1.63-.652-3.559-1.114-5.313-.188-.716-.127-1.499-.155-2.251-.095-3.091-.513-3.408-3.657-3.676-3.94-.336-7.881-.677-11.819-1.044-1.531-.143-1.652-1.26-2.096-2.238-.113-.013-.227-.025-.34-.037.349-.527.873-.356,1.358-.343Z"/>
    <path class="cls-87" d="M954.509,573.519c-.326,1.022-.393,2.072-.357,3.137.021.613.096,1.18.732,1.481-.05.028-.097.065-.151.082q-2.37.758-3.013-1.534c-.04-.483-.08-.965-.12-1.448-.181-.87-.331-1.806.642-2.259.807-.376,1.69-.383,2.267.54Z"/>
    <path class="cls-67" d="M942.789,590.904c.121-.117.243-.235.364-.352-.121.117-.243.235-.364.352Z"/>
    <path class="cls-64" d="M957.75,667.959c-.038.298-.164.553-.377.765.126-.255.251-.51.377-.765Z"/>
    <path class="cls-104" d="M961.652,604.791c1.261,1.254,1.262,1.238,3.127,1.4,4.147.359,8.305.634,12.435,1.137,3.06.373,2.848.018,2.868,3.137.002.352.01.705.016,1.057.219,3.202.308,6.404-.046,9.604-.083.837-.647,1.023-1.364,1.021-1.171-.003-2.342.006-3.513.008-3.572.005-7.144.01-10.715.014-.594-.007-1.189-.014-1.783-.022-.356-.135-.707.237-1.064.011v-.044c-.709-.499-.817-1.246-.846-2.029-.041-1.117-.08-2.237-.018-3.351.176-3.145-.156-6.208-1.307-9.159.104-.052.202-.127.312-.153q2.033-.48,1.899-2.631Z"/>
    <path class="cls-104" d="M959.441,607.575c.914-.007,1.214.459,1.504,1.344,1.101,3.358.502,6.789.655,10.183.045,1.002.01,2.008.011,3.012-5.408.011-10.816.027-16.224.029-.807,0-1.73.142-1.893-1.05,0-1.542,0-3.083.001-4.625-.005-2.233-.031-4.467-.006-6.699.017-1.564.217-1.815,1.695-1.808,4.757.021,9.496-.603,14.257-.385Z"/>
    <path class="cls-46" d="M961.613,622.157c.25-.22.286-.718.687-.699.357.016.308.422.377.688-.351.294-.706.299-1.064.011Z"/>
    <path class="cls-33" d="M976.894,677.868c-1.068.542-2.246.578-3.398.713-.533.062-1.076-.06-1.486-.417-1.234-1.075-2.392-2.226-3.272-3.622-.339-.537-.325-.992.338-1.268,0,0-.012-.003-.012-.003.361.276.714.294,1.057-.031.474-.349.947-.697,1.421-1.046,2.066,1.625,3.654,3.701,5.352,5.674Z"/>
    <path class="cls-109" d="M970.122,673.24c-.343.332-.696.335-1.057.031.352-.01.705-.021,1.057-.031Z"/>
    <path class="cls-41" d="M976.873,699.197c-.259-.326-.332-.717-.388-1.114.017-.557.286-1.01.589-1.451,2.173-3.163,3.778-6.65,5.687-9.964.295-.512.583-1.029.528-1.654.28.21.547.504.934.216.188-.141.393-.284.524-.473,1.334-1.926,3.115-2.312,5.256-1.592.323.109.703.05,1.057.068.012,1.771.025,3.542.038,5.313.177.826.394,1.646.314,2.505-2.487,1.061-4.741,2.563-7.147,3.781-2.144,1.085-4.21,2.321-6.315,3.484-.416.23-.808.478-1.076.883Z"/>
    <path class="cls-77" d="M954.509,573.519c-.349.001-.699-.014-1.047.007-1.495.091-1.52.118-1.862,1.712-.318-.498-.237-1.271-1.009-1.453-.184-.622-.438-1.232-.537-1.867-.163-1.036-.32-2.006-1.66-2.096-.151-.01-.314-.162-.433-.285-.719-.745-.777-4.268-.097-5.113.203-.253.458-.378.769-.284.337.102.651.294.992.365,1.099.229,1.724-.334,1.609-1.443-.062-.594-.261-1.148-.674-1.604l.009.009c-.722-.579-1.557-.337-2.362-.334-.244.001-.477-.087-.542-.348-.062-.248.08-.448.265-.605.504-.426,1.063-.416,1.647-.199,0,0-.042-.01-.042-.01.465.334.939.288,1.419.035.095-.028.191-.036.289-.023.224-.172.722-.2.361-.683-.141-.322-.305-.636-.418-.968-.726-2.117-.693-2.161,1.495-2.216,2.187,1.559,2.481,4.207,3.652,6.35-.587-.011-1.173-.033-1.76-.028-.241.002-.47.095-.545.359-.071.251.01.526.248.583,1.508.366,1.548,1.608,1.631,2.77.077,1.077.497,2.05.752,3.072-.068.047-.136.093-.204.141-1.074.069-1.41-.671-1.637-1.512-.146-.543-.042-1.178-.772-1.805-.206,1.713.169,2.909,1.356,3.894.594.493,1.444.548,1.915,1.211.019.08.037.161.055.241-.423.174-.86.32-1.264.529-.493.255-.863.604-.527,1.232-.356.122-.713.243-1.069.364Z"/>
    <path class="cls-71" d="M947.038,583.074c.006-.135.012-.27.018-.405.395-.304.791-.608,1.379-1.06-.132,1.048-.831,1.191-1.396,1.465Z"/>
    <path class="cls-73" d="M950.559,561.459c.027.526.079,1.053.072,1.579-.006.463,0,.989-.627,1.09-.529.086-1.656-.772-1.693-1.311-.038-.549.098-1.123.691-1.279.494-.13,1.041-.055,1.565-.07,0,0-.009-.009-.009-.009Z"/>
    <path class="cls-110" d="M967.687,561.408c-.075-.093-.129-.197-.162-.312.054.104.108.208.162.312Z"/>
    <path class="cls-28" d="M992.885,601.206c.56-.67,1.314-.81,2.13-.785.709-.146,1.415-.241,2.109.071,0,0-.01-.009-.01-.008-.534,1.509-.446,3.111-.666,4.666-.322,2.27-.244,2.281-2.464,2.518-.67-.151-.698-.842-1.061-1.252-.32-.601-.03-1.254-.158-1.872.303-1.102.264-2.218.12-3.338Z"/>
    <path class="cls-135" d="M998.231,612.877c-.251.025-.503.05-.754.075-.481.76-1.187.621-1.888.461-4.291-.979-8.574-1.994-12.856-3.01-.82-.195-1.556-.528-2.01-1.295-.135-.388-.226-.773.086-1.126,1.807.132,3.486.926,5.299,1.03,1.574-.887,2.963.009,4.397.453.481.105.965-.16,1.451-.01.633.392,1.561.454,1.648,1.461.32.192.669.203,1.026.168.257-.138.5-.156.715.08.494.171.979.376,1.484.505.681.174,1.125.585,1.404,1.208Z"/>
    <path class="cls-127" d="M993.602,610.915c-.677-.316-1.726-.04-1.883-1.184-.215-2.379.249-3.287,1.827-3.573.354.443.371.983.438,1.51.002.093.011.184.027.276.511.579.937,1.185.671,2.022-.102.158-.213.31-.334.455-.249.165-.498.33-.746.495Z"/>
    <path class="cls-145" d="M994.334,610.075c-.34-.675-.57-1.366-.323-2.131.685.009,1.369.018,2.053.027.688.921.423,1.708-.339,2.427-.358-.011-.716-.023-1.074-.034-.15-.047-.256-.144-.317-.289Z"/>
    <path class="cls-15" d="M999.414,606.585c.054.475-.004.839-.388.986-.476.182-.581-.262-.73-.55-.243-.467-.501-.938-.652-1.438-.132-.437.101-.846.52-.999.466-.17.819.147.955.551.168.495.215,1.03.295,1.45Z"/>
    <path class="cls-101" d="M995.724,610.398c.351-.776.321-1.604.339-2.427.715-.082,1.193.141.903.939-.224.617-.417,1.339-1.242,1.488Z"/>
    <path class="cls-127" d="M995.342,611.164c-.238-.027-.476-.053-.715-.08.26-.171.501-.163.715.08Z"/>
    <path class="cls-135" d="M994.334,610.075c.106.096.211.193.317.289-.1.022-.201.041-.303.056-.038-.113-.043-.228-.014-.344Z"/>
    <path class="cls-123" d="M979.709,606.166c-1.077-.031-2.152-.072-3.198-.368-1.927-.089-2.931-1.296-3.72-2.902-.935-1.902-2.008-3.736-3.021-5.6,1.332-.982,2.814-.443,4.244-.416,1.502.596,3.121-.108,4.629.417.355,2.956.711,5.912,1.066,8.868Z"/>
    <path class="cls-20" d="M978.643,597.298c-1.536-.003-3.073-.006-4.609-.009-.843-.368-1.731-.171-2.592-.155-1.307.023-2.068-.534-2.477-1.769-.462-1.395-.977-2.787-1.174-4.234-.327-2.406-1.407-4.142-3.772-4.952-.102-.181-.139-.373-.116-.58.083-.313.273-.547.531-.733.458-.294.951-.369,1.476-.222.296.103.509.305.666.572,1.08.757,2.312.754,3.551.712,1.005.44,1.419,1.256,1.662,2.296.561,2.394,1.289,4.744,2.113,7.062.531,1.494.694,1.608,2.28,1.645.819.019,1.639.008,2.459.01,0,.119,0,.238.001.357Z"/>
    <path class="cls-2" d="M990.665,610.053c-1.567-.139-3.08-.515-4.558-1.042.516-1.477,1.562-2.631,2.4-3.909.396-.604.844-1.119.555-1.926-.284-.793.277-.871.864-.907.913-.056,1.938.234,2.562-.779.133-.094.265-.189.398-.283,1.23,1.23,1.294,1.86.325,3.189-.058.044-.117.087-.175.131-.116.197-.151.42-.208.637-.534,1.128-1.037,2.265-1.229,3.512-.059.424-.395.699-.565,1.061-.104.128-.225.235-.368.318Z"/>
    <path class="cls-54" d="M980.808,607.981c.014.357.028.714.042,1.071.555.724.782,1.438-.068,2.118-.625-1.044-.289-2.175-.299-3.275.111.018.22.047.326.087Z"/>
    <path class="cls-94" d="M976.509,587.449c.016-.401-.048-.745.295-.866.364-.129.714.018.949.299.428.512.512,1.173.687,1.791.114.405-.028.691-.433.814-.376.115-.709.012-.914-.327-.337-.56-.525-1.174-.584-1.711Z"/>
    <path class="cls-34" d="M964.802,585.571c-.235.003-.47.006-.705.008-1.487.15-.785-.803-.721-1.433.108-2.085.675-4.087,1.097-6.116,1.803-.019,3.406.476,4.682,1.816-.846,1.586.016,2.927.618,4.305-.988.588-2.233.403-3.196,1.064-.235.003-.471.005-.706.008-.287.329-.784.013-1.069.347Z"/>
    <path class="cls-34" d="M970.128,584.148c.315-.243.679-.335,1.069-.346-.314.245-.678.336-1.069.346Z"/>
    <path class="cls-91" d="M956.332,562.467c-1.166-.319-1.799-1.018-2.103-2.256-.345-1.407-.739-2.842-1.549-4.094,1.377.377,1.381.379,1.88-.718.615-1.356,1.148-2.733,1.01-4.268,1.322-.087,2.618.113,3.91.356.463.333.618.808.71,1.353.244,1.441.388,2.923.838,4.301.863,2.641.585,5.322.576,8.002-.002.662-.041,1.304-.741,1.651,0,0,.024-.016.024-.016-.098-.162-.247-.268-.406-.362-.955-.788-1.552-1.869-2.294-2.828-.486-.629-1.017-1.109-1.855-1.121Z"/>
    <path class="cls-88" d="M950.954,560.007c-.482.363-.955.361-1.419-.035.473.012.946.023,1.419.035Z"/>
    <path class="cls-88" d="M951.604,559.302c.317.458.025.595-.361.683.12-.228.24-.455.361-.683Z"/>
    <path class="cls-78" d="M964.089,585.927c.294.009.59-.003.882.032,2.276.268,2.509.483,3.083,2.681.579,2.219,1.029,4.474,1.817,6.636.548,1.503.651,1.588,2.287,1.657.646.027,1.301-.023,1.878.357-1.421.002-2.843.005-4.264.007-.709-.002-1.418-.004-2.127-.006-1.334-.382-1.951-1.339-2.247-2.637-.431-1.89-.932-3.763-1.42-5.639-.25-.962-.394-1.964-.986-2.81-.227-.324-.182-.663.014-.991.236.429.707.501,1.085.714Z"/>
    <path class="cls-22" d="M969.155,579.847c-1.561-.605-3.122-1.211-4.682-1.816-.001-.199-.003-.397-.004-.596,2.157.216,3.969,1.387,5.928,2.148.216.33-.013.411-.267.478-.245.005-.496.035-.703-.143-.082-.058-.172-.081-.271-.071Z"/>
    <path class="cls-125" d="M964.089,585.927c-.504-.022-.903-.202-1.085-.714.04-.385.124-.754.372-1.067.019.589.058,1.168.721,1.433-.002.116-.005.232-.008.347Z"/>
    <path class="cls-77" d="M956.657,569.224c.329.126.653.266.987.375.47.153.613.512.638.951.038.648-.428.758-.913.843,0,0-.076-.103-.076-.103-.221-.674-1.515-.96-.723-2l.086-.067Z"/>
    <path class="cls-77" d="M959.168,572.812c-.799.434-1.665.32-2.518.305.795-.472,1.667-.302,2.518-.305Z"/>
    <path class="cls-35" d="M960.481,566.417c.135.12.27.241.406.361-.135-.12-.27-.241-.406-.361Z"/>
    <path class="cls-21" d="M970.092,579.954c.102-.124.204-.248.306-.371.709.194,1.359.496,1.87,1.045-.712-.127-1.423-.255-2.135-.382-.264-.062-.278-.159-.041-.292Z"/>
    <path class="cls-34" d="M970.092,579.954c.01.098.024.195.041.292-.235-.109-.471-.219-.706-.328.222.012.443.024.665.036Z"/>
    <path class="cls-96" d="M962.306,558.954c-.295-.396-.754-.833-.097-1.238.46-.283.696.094.808.519-.64-.16-.664.291-.711.719Z"/>
    <path class="cls-96" d="M963.362,561.448c-.444-.514-.66-1.12-.723-1.789.537.477.732,1.091.723,1.789Z"/>
    <path class="cls-96" d="M964.079,563.936c-.301-.436-.388-.924-.354-1.442.338.427.386.925.354,1.442Z"/>
    <path class="cls-96" d="M963.02,558.24c.264.3.387.653.396,1.049-.279-.294-.389-.652-.396-1.049Z"/>
    <path class="cls-96" d="M963.728,562.503c-.232-.32-.36-.675-.372-1.071.279.303.384.667.372,1.071Z"/>
    <path class="cls-96" d="M963.406,559.269c.222.193.338.438.367.728-.122-.243-.244-.485-.367-.728Z"/>
    <path class="cls-96" d="M962.651,559.677c-.223-.193-.321-.446-.348-.732.116.244.232.488.348.732Z"/>
    <path class="cls-96" d="M963.762,559.979c.212.198.318.449.359.731-.12-.243-.24-.487-.359-.731Z"/>
    <path class="cls-96" d="M964.48,561.318c.125.15.25.3.375.45-.125-.15-.25-.3-.375-.45Z"/>
    <path class="cls-96" d="M964.103,560.692c.1.123.199.247.298.37-.1-.123-.199-.247-.298-.37Z"/>
    <path class="cls-7" d="M997.124,600.492c-.704-.023-1.407-.047-2.11-.07.713-.241,1.426-.534,2.11.07Z"/>
    <path class="cls-104" d="M980.782,611.17c.023-.706.045-1.412.068-2.118,5.542,1.299,11.085,2.599,16.627,3.899,1.201,1.247.601,2.764.604,4.18.002,1.319-.31,2.642.078,3.955.003.115.005.23.007.345-.202.192-.119.525-.349.703-4.874.005-9.748.014-14.622.013-2.353,0-2.364-.02-2.43-2.32-.005-.176-.015-.352-.022-.528.013-2.71.027-5.419.04-8.129Z"/>
    <path class="cls-17" d="M980.052,621.124c.015-3.201.031-6.402.046-9.604.461.547.354,1.208.359,1.842.017,1.983.025,3.967.036,5.95-.137.606.132,1.311-.441,1.812Z"/>
    <path class="cls-86" d="M997.816,622.134c.116-.234.233-.469.349-.703-.116.234-.233.469-.349.703Z"/>
    <polygon class="cls-141" points="962.206 616.059 962.134 616.18 962.079 616.049 962.206 616.059"/>
    <path class="cls-134" d="M956.571,569.291c.175.449.55.727.888,1.034.453.412.179.694-.165.966-2.126.038-3.38-.871-3.991-2.893-.085-.28-.173-.56-.253-.842-.414-1.471.019-2.515,1.32-3.206.405-.215.693-.108.783.33.164.803.319,1.611.414,2.424.1.848.385,1.587,1.002,2.187Z"/>
    <path class="cls-52" d="M991.029,608.572c.177-.953.391-1.9.519-2.86.086-.645.542-.967.949-1.352.244-.168.482-.175.709.032,0,0,.005.004.005.004.342.544.446,1.133.335,1.763-.999.991-1.242,2.369-1.827,3.572-.29.309-.607.527-1.054.322.034-.117.068-.234.101-.351.243-.341.046-.783.263-1.13Z"/>
    <path class="cls-125" d="M964.802,585.571c.314-.247.678-.339,1.069-.347-.314.245-.678.338-1.069.347Z"/>
    <path class="cls-135" d="M991.029,608.572c.056.41-.022.789-.263,1.13-.061-.411.041-.785.263-1.13Z"/>
    <path class="cls-28" d="M993.206,604.391c-.236-.011-.473-.021-.709-.032.246-.204.482-.194.709.032Z"/>
  </g>
  <g>
    <path class="cls-119" d="M482.905,528.853c-14.321-2.697-24.85-6.317-31.588-10.866-5.982-4.043-13.31-11.833-21.985-23.375h-4.296v4.549h-4.549c-1.854-8.592-2.865-13.014-3.032-13.267-1.601-3.538-5.098-5.812-10.487-6.823-8.086-18.363-12.13-34.198-12.13-47.508,0-10.444,2.527-19.332,7.581-26.66,11.455-16.593,30.072-34.451,55.848-53.573,19.205-7.159,32.219-10.74,39.042-10.74,8.422,0,18.362,3.96,29.819,11.877.083,2.527.462,6.235,1.137,11.119-2.95,1.181-5.518,2.318-7.708,3.412-.252,5.644.294,11.119,1.643,16.426,1.684,5.224,3.327,10.445,4.928,15.667-2.527-.588-6.235-1.305-11.119-2.148v-4.422l-12.129,1.011c-4.466.337-8.551.717-12.256,1.137v8.971h-4.422v-4.548c-31.181,11.843-49.67,26.585-55.468,44.223h4.169v4.675h-4.169v-4.675h-4.507c-.774,4.077-1.502,9.342-2.189,15.794h4.296c-.505,5.812-.884,11.751-1.137,17.816,7.749,4.465,17.689,7.328,29.819,8.592,4.043.422,7.455.632,10.234.632,21.732,0,37.821-6.274,48.267-18.827,3.958-4.716,5.938-10.57,5.938-17.563,0-3.958-.632-8.254-1.896-12.888-6.57-.42-13.099-.799-19.584-1.137l-19.458-1.011c.252-1.264.715-3.115,1.39-5.56,16.003-7.833,30.072-13.056,42.202-15.667,1.179-.252,2.4-.379,3.664-.379,10.361,0,18.321,10.108,23.88,30.324-2.106,2.274-4.675,3.412-7.708,3.412-2.106-2.274-4.296-7.834-6.57-16.678-3.032-.421-6.023-.8-8.971-1.137l-8.845-1.011c8.254,14.91,12.382,26.787,12.382,35.631,0,5.307-1.433,9.476-4.296,12.509-7.751,8.339-24.512,15.584-50.288,21.732-7.329-.42-14.742-.8-22.238-1.137,2.862,7.751,10.361,11.498,22.49,11.245h17.31c4.296,0,8.087.042,11.372.123v4.3c-6.149.59-10.74,1.854-13.772,3.791-1.939,1.264-2.906,3.538-2.906,6.823,0,2.021.336,4.379,1.011,7.076-1.433-.17-4.339-.59-8.718-1.264ZM456.119,537.824c-7.414-2.106-11.794-3.538-13.141-4.296-2.697-1.516-5.771-4.886-9.224-10.108h6.696v4.296c4.549,1.431,11.246,3.747,20.09,6.949v4.296c-1.601-.59-3.076-.969-4.422-1.137ZM513.987,510.153c1.256-3.923,3.937-6.908,8.041-8.957,3.97-1.488,7.899-2.975,11.784-4.464-1.346,3.716-4.081,6.628-8.201,8.736-3.875,1.52-7.751,3.082-11.625,4.685Z"/>
    <path class="cls-119" d="M566.929,519.124c-3.37-14.404-5.013-29.693-4.928-45.866.083-16.173,1.39-31.335,3.917-45.486,2.357-1.852,5.727-4.085,10.108-6.697v28.935c.758-.253,2.527-.967,5.307-2.148,3.453-14.066,10.697-34.431,21.732-61.091,11.034-26.66,18.278-46.981,21.732-60.964,6.906-.253,17.267-.673,31.083-1.264,3.033,7.751,7.455,19.458,13.267,35.125,3.874,11.036,5.812,23.375,5.812,37.021l3.917,15.415c.841,3.455,2.104,8.677,3.791,15.667h-4.422c0,7.498.335,18.659,1.011,33.483-2.359.843-4.128,1.56-5.307,2.148-.59-2.189-1.39-5.475-2.401-9.855-1.516-.421-2.991-.8-4.422-1.137.505,6.74,1.263,14.112,2.274,22.115-2.278.337-4.977,1.392-8.098,3.161-3.459,1.854-5.988,2.991-7.591,3.412l-6.559-24.419c-1.54-5.386-3.765-13.506-6.673-24.362-7.668,1.517-12.894,2.95-15.673,4.296-5.058,2.527-8.302,6.529-9.733,12.003l-4.803,19.208-3.161,47.763c-16.343,0-29.736,1.181-40.18,3.538ZM620.375,423.476c4.211-1.179,8.718-2.316,13.52-3.412.252-1.684.379-3.242.379-4.675,0-7.076-3.159-11.792-9.477-14.151-1.011,4.971-2.485,12.382-4.422,22.238Z"/>
    <path class="cls-119" d="M718.479,520.008l-11.898-13.52c-3.966-4.464-6.624-9.982-7.974-16.552h-11.012c4.126-26.617,6.779-42.79,7.96-48.519,3.621-18.025,8.254-33.692,13.899-47.003,4.379,1.096,8.295,1.643,11.75,1.643,7.496,0,12.677-2.561,15.541-7.682,4.126-7.305,6.95-17.802,8.466-31.487h-4.422v-4.675h8.718v8.845h4.549c.335,2.697,1.137,6.402,2.4,11.119,7.244,3.117,12.465,7.54,15.667,13.267,1.852,3.455,3.958,10.151,6.318,20.09,4.801-3.115,9.729-7.749,14.783-13.899,2.779-3.538,7.076-8.801,12.888-15.794,4.043-4.716,9.265-8.675,15.667-11.877,4.379-2.189,9.771-3.285,16.173-3.285,2.274,0,4.717.126,7.329.379,1.431,3.285,3.579,10.025,6.444,20.216,2.357,8.424,5.011,15.036,7.96,19.837,0,1.769-1.263,5.686-3.787,11.75-3.115,7.414-4.797,11.625-5.048,12.635-1.264,10.614-2.399,21.312-3.41,32.093l-3.534.632c-.336.085-1.388.337-3.155.758-.423-9.35-.802-18.657-1.137-27.924l-1.009-27.797c-10.604,1.264-19.523,6.361-26.759,15.289-5.891,7.328-10.854,17.058-14.894,29.187-.926,2.95-4.081,13.311-9.466,31.083l-28.778-6.57-4.545-42.201h-6.689c-2.44,7.082-4.586,16.017-6.438,26.806-.934,6.065-2.461,15.117-4.584,27.16-4.642,23.999-10.633,35.996-17.974,35.996Z"/>
    <path class="cls-119" d="M877.374,521.272c-1.854-.758-5.56-2.483-11.119-5.181v-6.702c-6.403-2.274-9.603-8.809-9.603-19.601,0-19.304,4.969-43.583,14.91-72.837,4.211-12.477,7.202-20.949,8.971-25.418.588-3.202,1.517-8.007,2.78-14.416,1.179-5.479,2.906-9.989,5.181-13.531,4.884-.505,8.592-.841,11.119-1.011,5.054,7.498,10.993,13.772,17.815,18.826,4.632-.926,11.455-3.747,20.469-8.465,8.675-4.632,15.204-7.285,19.584-7.96-10.108,19.964-21.271,31-33.483,33.104-1.011,5.982-2.485,14.909-4.422,26.786,2.189-.673,5.516-1.643,9.981-2.906l10.108-2.906c.167,2.021.547,3.96,1.137,5.812-3.791,3.708-9.435,8.086-16.931,13.141-8.93,5.982-14.783,10.108-17.563,12.382-9.772,18.87-15.711,36.222-17.815,52.057,16.425-2.022,37.188-9.392,62.291-22.112-4.296,11.324-14.657,21.168-31.083,29.531-14.994,7.605-29.104,11.407-42.328,11.407Z"/>
    <path class="cls-119" d="M1095.077,517.86c-35.043-9.097-53.111-25.985-54.205-50.667-1.096-24.595,6.611-50.244,23.122-76.948,4.126-1.599,11.96-5.938,23.502-13.014,8.507-5.222,16.931-8.296,25.27-9.224,5.812,12.13,11.202,17.942,16.174,17.437,4.969-.505,12.929-.758,23.88-.758,12.383,9.94,18.783,15.121,19.205,15.542,6.318,6.149,10.276,13.184,11.877,21.101h-4.296c-1.18-4.632-1.979-8.381-2.4-11.246h-4.17v22.364c-2.443.843-4.38,1.56-5.812,2.148-1.517,4.802-2.823,9.224-3.917,13.267l-3.791,13.52h-8.844c-2.274,4.634-7.499,11.668-15.668,21.101-7.076,8.171-11.498,15.206-13.267,21.101h11.245v-4.548h6.57c-2.359,4.718-5.392,7.96-9.098,9.729-1.938.928-6.317,2.106-13.141,3.538-.59,1.181-1.307,3.033-2.147,5.56h-20.09ZM1059.445,432.447c3.285-.841,9.307-6.779,18.068-17.815,7.917-9.938,13.056-17.352,15.415-22.238-3.622-.253-6.781-.379-9.477-.379-6.992,0-11.203.758-12.635,2.274-1.938,2.106-6.866,8.888-14.783,20.342,1.011,5.812,2.148,11.75,3.411,17.815ZM1083.832,494.612c31.248-2.189,48.347-12.55,51.296-31.083,1.347-.42,2.821-.799,4.423-1.137l2.528-8.086c.421-1.264,2.527-2.61,6.318-4.043.505-3.368,2.4-9.518,5.686-18.448,2.862-7.749,4.296-13.898,4.296-18.447,0-3.791-.843-7.285-2.527-10.487-2.274-4.296-7.707-7.791-16.299-10.487,1.011,2.95,2.526,7.455,4.549,13.52-1.77.085-4.466.274-8.087.569-3.623.296-6.149,1.159-7.581,2.59,1.937.423,4.885,1.137,8.845,2.148.673,2.022,1.432,3.875,2.274,5.56-3.538-.841-6.908-1.264-10.108-1.264-6.234,0-11.668,1.643-16.299,4.928-13.226,9.435-21.985,25.397-26.281,47.887-1.938,10.193-2.95,18.953-3.032,26.281Z"/>
    <path class="cls-119" d="M1222.061,518.619c-11.624-14.487-19.249-38.62-22.869-72.399-1.602-14.572-2.401-28.471-2.401-41.696l-.126-35.884c1.517-1.599,2.736-2.484,3.664-2.653.926-.168,3.327,0,7.202.505,1.011,4.296,2.148,8.718,3.411,13.267,13.899,5.982,20.552,24.556,19.964,55.721-.253,12.635-1.137,25.481-2.653,38.537-1.181,10.025-1.769,18.826-1.769,26.407,0,2.106.041,4.087.126,5.938,9.771-2.695,17.311-10.361,22.617-22.996,3.452-8.254,6.273-19.332,8.465-33.23,1.179-8.675,3.074-21.647,5.687-38.917,2.441-15.077,6.443-27.418,12.003-37.021,2.61.506,5.264.928,7.96,1.264,2.863,13.646,4.296,24.007,4.296,31.083-7.498,7.498-13.184,18.068-17.057,31.714-2.022,8.003-5.055,19.922-9.098,35.757-3.538,13.478-7.625,23.545-12.256,30.198-6.74,9.603-15.794,14.404-27.166,14.404Z"/>
    <path class="cls-119" d="M1308.737,521.272c-1.854-.758-5.56-2.483-11.119-5.181v-6.702c-6.402-2.274-9.603-8.809-9.603-19.601,0-19.304,4.97-43.583,14.909-72.837,4.212-12.477,7.202-20.949,8.972-25.418.588-3.202,1.516-8.007,2.779-14.416,1.179-5.479,2.906-9.989,5.181-13.531,4.884-.505,8.592-.841,11.119-1.011,5.054,7.498,10.992,13.772,17.815,18.826,4.631-.926,11.454-3.747,20.469-8.465,8.675-4.632,15.203-7.285,19.584-7.96-10.107,19.964-21.271,31-33.482,33.104-1.011,5.982-2.486,14.909-4.423,26.786,2.189-.673,5.517-1.643,9.982-2.906l10.107-2.906c.168,2.021.547,3.96,1.138,5.812-3.791,3.708-9.436,8.086-16.932,13.141-8.929,5.982-14.783,10.108-17.562,12.382-9.772,18.87-15.711,36.222-17.815,52.057,16.426-2.022,37.188-9.392,62.291-22.112-4.296,11.324-14.656,21.168-31.082,29.531-14.995,7.605-29.104,11.407-42.328,11.407Z"/>
    <path class="cls-119" d="M1422.327,521.777c-4.296-3.453-8.592-6.949-12.888-10.487l-12.889-10.613c-2.273-9.35-3.411-18.953-3.411-28.808,0-5.475.379-11.202,1.138-17.184,4.211-33.356,18.194-59.468,41.948-78.337,11.707-9.35,25.564-14.91,41.569-16.679,2.61,3.455,9.392,10.319,20.343,20.595,8.76,8.256,14.613,15.794,17.562,22.617h4.296c-.505,4.043-1.958,9.855-4.358,17.437-2.401,7.581-3.897,13.267-4.485,17.057-4.297,1.434-9.477,3.285-15.542,5.56.253-2.695.589-5.307,1.011-7.834l1.264-7.707c-7.751,2.444-20.722,9.141-38.916,20.09-.59,2.274-.97,4.507-1.137,6.696,9.855,3.033,19.079,7.708,27.671,14.025,9.938,7.328,16.299,15.206,19.079,23.627-6.065.422-11.625-.632-16.679-3.159l-14.657-9.097-37.652-1.011c-1.264,10.278-2.4,20.639-3.411,31.083-2.527.843-4.423,1.56-5.687,2.148v10.993c-2.358-.675-3.749-1.011-4.169-1.011ZM1459.979,437.375c8.845,0,15.541-7.749,20.09-23.249-5.729,2.021-9.751,3.897-12.066,5.623-2.317,1.728-5.328,5.034-9.034,9.918,0,1.011.336,3.582,1.011,7.708Z"/>
  </g>
  <rect class="cls-49" width="1920" height="1080"/>
</svg>