<?xml version="1.0" encoding="UTF-8"?>
<svg id="_レイヤー_1" data-name="レイヤー 1" xmlns="http://www.w3.org/2000/svg" version="1.1" viewBox="0 0 1920 1920">
  <defs>
    <style>
      .cls-1 {
        fill: #814927;
      }

      .cls-1, .cls-2, .cls-3, .cls-4, .cls-5, .cls-6, .cls-7, .cls-8, .cls-9, .cls-10, .cls-11 {
        stroke-width: 0px;
      }

      .cls-2 {
        fill: #404650;
      }

      .cls-3 {
        fill: #9b572c;
      }

      .cls-4 {
        fill: none;
      }

      .cls-5 {
        fill: #373d4a;
      }

      .cls-6 {
        fill: #7c8e98;
      }

      .cls-7 {
        fill: #683c21;
      }

      .cls-8 {
        fill: #684d49;
      }

      .cls-9 {
        fill: #4c2f1d;
      }

      .cls-10 {
        fill: #94532a;
      }

      .cls-11 {
        fill: #ab5f2f;
      }
    </style>
  </defs>
  <g>
    <path class="cls-5" d="M587.562,547.147c-.009-.034-.015-.068-.022-.103-.005.034-.012.067-.017.101,0,0,0,.002,0,.002,0,0,.001,0,.002-.001.012,0,.024,0,.036.001Z"/>
    <path class="cls-11" d="M674.028,547.996c6.119.717,12.298,1.079,18.486,1.307-6.187-.548-12.408-.988-18.642-1.324.052.006.104.011.156.017Z"/>
    <path class="cls-11" d="M606.223,541.581c1.574.498,3.17,1.49,4.715,1.416,14.683-.7,29.191,1.723,43.796,2.396,18.23.841,36.516,1.177,54.665,3.46,2.304.29,4.653.369,6.977.327,65.901-1.167,131.743,3.045,197.643,2.106,17.976-.256,35.96-.002,53.94.018,52.918-.02,105.836-.208,158.752.086,10.381.058,20.459-2.701,30.798-2.092,47.179,2.776,94.411,1.937,141.626,1.83,6.029-.014,9.842,3.141,14.131,6.128,0,0,0,0,0,0v-.002c.26-1.387.521-2.775.782-4.163-.187-.537-.235-1.087-.145-1.649,0,0,0,0,0,0l-.638-.704c-.45-.611-.79-1.277-1.019-2-2.579-7.675-8.613-10.517-16.026-11.142-3.96-.334-7.962-.159-11.944-.26-30.509-.773-61.054-.888-91.519-2.51-37.484-1.996-74.966-1.616-112.456-1.843-.995-.006-1.989-.09-2.983-.195-.765,1.178-1.749,2.252-2.89,3.255-6.991,2.476-14.007,2.32-21.046.201-1.36-.777-2.247-1.96-3.036-3.223-1.71.017-3.374-.332-4.942-1.448-8.467-.055-16.935-.11-25.403-.164-.372.626-.799,1.242-1.297,1.843-10.804,4.377-21.717,3.439-32.665.707-.428-.432-.817-.878-1.185-1.331-3.788,3.995-8.513,3.015-13.348,1.479-.443-.373-.849-.751-1.234-1.132-1.609,1.843-3.885,2.519-6.387,2.571-19.829.412-39.673,1.719-59.448-.824-1.81-1.124-2.92-2.319-3.501-3.547-11.625.633-23.251.954-34.886.241-8.487,1.817-17.094,1.661-25.703,1.657-22.135-.01-44.269.043-66.405.077-2.059,1.438-4.142,2.846-6.28,4.19-7.156.191-14.574,2.336-20.921-2.995-.04-.062-.069-.125-.108-.186-1.861.958-3.734.713-5.62-.696-.022-.026-.041-.052-.063-.078-3.598.051-7.196.102-10.794.153,0,0,0,0,0,0-1.989,1.366-4.158,1.409-6.406.874,0,0,0,0,0,0-5.303.109-10.607.219-15.91.328-3.471,2.981-8.52,3.337-13.819.285-5.287.109-10.575.218-15.862.327-.349.536-.694,1.101-1.034,1.729-1.241,1.169-2.686,1.962-4.3,2.48-4.859,1.336-9.823,1.827-14.854,1.703-3.865.126-7.765-.356-11.576.652-4.752,1.013-9.55-1.081-14.299.196-3.55.227-7.108.126-10.654.147-2.639-.015-5.051-.156-7.387-1.192-2.617.132-5.281-.049-7.834.512h0Z"/>
    <path class="cls-11" d="M621.444,542.261c3.546-.021,7.104.08,10.654-.147,4.749-1.277,9.547.817,14.299-.196,3.811-1.008,7.711-.526,11.576-.652,5.032.124,9.995-.368,14.854-1.703,1.614-.518,3.059-1.311,4.3-2.48.339-.628.685-1.193,1.034-1.729-.735.015-1.469.03-2.204.045,0,0,0,0,0,0-1.087.027-2.173.054-3.26.082-4.666,2.398-9.667,1.509-14.579,1.479,0,0,.001,0,.002,0,0,0,0,0,0,0-3.864.653-7.743.938-11.652.477-4.578,2.438-9.507,1.565-14.348,1.518,0,0,.001,0,.002,0h0c-3.865.645-7.746.93-11.657.49-2.039,1.185-4.206,1.516-6.406,1.627,2.336,1.036,4.748,1.177,7.387,1.192Z"/>
    <path class="cls-11" d="M707.842,534.741l-13.819.285c5.299,3.052,10.348,2.696,13.819-.285Z"/>
    <path class="cls-11" d="M1050.348,533.023c.789,1.262,1.676,2.446,3.036,3.223,7.039,2.119,14.055,2.274,21.046-.201,1.141-1.003,2.125-2.077,2.89-3.255-.984-.104-1.968-.227-2.951-.316,0,0,0,0,0,0-6.86.736-13.727.584-20.595.147,0,0,0,0,0,0-1.154.225-2.3.391-3.427.402Z"/>
    <path class="cls-11" d="M984.857,532.629c.368.453.757.899,1.185,1.331,10.948,2.732,21.861,3.67,32.665-.707.498-.601.925-1.216,1.297-1.843-.714-.005-1.427-.009-2.14-.014,0,0,0,0,0,0,0,0,0,0,0,0-10.655.658-21.31.672-31.964-.007,0,0,0,0,0,0h0c-.337.465-.686.866-1.04,1.24Z"/>
    <path class="cls-11" d="M970.275,532.977c.385.381.791.759,1.234,1.132,4.835,1.536,9.56,2.516,13.348-1.479-.277-.341-.546-.686-.791-1.038-4.247.39-8.497.259-12.745-.124-.001,0-.002,0-.003,0h0c-.3.583-.658,1.07-1.042,1.51Z"/>
    <path class="cls-11" d="M985.897,531.39h0c-.61.078-1.221.145-1.832.201.246.352.514.697.791,1.038.354-.374.703-.775,1.04-1.24Z"/>
    <path class="cls-11" d="M769.857,533.157s-.002,0-.003.002c-7.336.502-14.671.994-22.018.234h-.001s0,0,0,0c-.399.32-.798.562-1.198.768.038.062.067.125.108.186,6.347,5.331,13.765,3.187,20.921,2.995,2.138-1.344,4.221-2.752,6.28-4.19-1.363.002-2.726.005-4.09.007,0,0,.001-.001.002-.002Z"/>
    <path class="cls-11" d="M968.945,531.516c-22.351.504-44.7.245-67.048-.388,0,0,0,0,0,0-.319.018-.638.033-.958.05.581,1.228,1.69,2.423,3.501,3.547,19.775,2.543,39.62,1.235,59.448.824,2.502-.052,4.778-.729,6.387-2.571-.486-.481-.93-.968-1.33-1.461Z"/>
    <path class="cls-11" d="M970.275,532.977c.384-.44.742-.926,1.042-1.51h0c-.791.02-1.581.031-2.372.049.4.493.843.98,1.33,1.461Z"/>
    <path class="cls-11" d="M742.02,533.372c-.355.005-.711.01-1.066.015.022.026.041.052.063.078,1.886,1.408,3.759,1.654,5.62.696-.159-.256-.31-.513-.439-.774-1.392-.005-2.785-.01-4.178-.015Z"/>
    <path class="cls-11" d="M747.835,533.393c-.545-.002-1.092-.004-1.637-.006.129.26.28.518.439.774.4-.206.799-.448,1.198-.768,0,0,0,0,0,0Z"/>
    <path class="cls-1" d="M682.495,553.092c11.234.537,22.31,3.128,33.638,2.328,2.246-.159,5.06.106,3.739,3.858.01,1.315.02,2.631.03,3.946-.316.266-.515.569-.647.895.191-.306.4-.607.647-.894,1.587,4.049,4.819,3.911,7.977,4.356,73.887-2.41,147.801-.729,221.7-.933,32.5,5.278,65.275,3.256,97.962,3.609,2.89.031,5.819-.156,8.584.99,1.164-.016,2.328-.033,3.493-.046.002,0,.002.002.004.002,0,0,0-.001,0-.002.548-3.499-1.172-6.614-1.689-9.932,0,0,0,0-.001,0-3.064-1.478-6.317-2.098-9.695-1.977-33.295,1.193-66.472-2.376-99.77-2.26-38.247.133-76.52-1.234-114.741-2.369-23.935-.711-48.013.592-71.765-1.833-.357-.036-.714-.064-1.071-.099-19.065-.238-38.128-.524-57.185-.977-30.101-.715-60.222-3.919-90.363-5.576-1.984-.109-3.976-.216-5.569-1.186-2.374.006-4.751.058-7.13.178-1.802.091-3.535-.238-5.14-1-.495.346-.999.682-1.483,1.042-.787.514-1.613.954-2.472,1.331-.468.242-.943.468-1.423.685,18.627.538,37.18,2.186,55.76,3.56,12.184.901,24.403,1.721,36.609,2.305Z"/>
    <path class="cls-1" d="M587.562,547.147c.855.02,1.709.055,2.564.08.48-.217.955-.443,1.423-.685.859-.377,1.686-.817,2.472-1.331.484-.359.988-.696,1.483-1.042-.144-.069-.286-.146-.428-.222-.378-.062-.729-.273-1.054-.629,0,0,0,0,0,0-.607-.184-1.22-.345-1.837-.487.002,0,.004-.002.006-.003-.001,0-.003,0-.004,0-.66.157-1.32.315-1.98.472-.745.619-1.49,1.238-2.234,1.856.744-.618,1.489-1.237,2.234-1.856-.794.559-1.485,1.242-2.234,1.855l-.127.064c-.108.608-.209,1.216-.305,1.826.007.034.013.069.022.103Z"/>
    <path class="cls-1" d="M718.04,569.003c-2.558.226-5.117.452-7.669.681-.009.193-.053.377-.134.553,2.202.16,4.4.448,6.59.922,77.696-1.2,155.391.62,233.087.292h-.001c32.582-.039,65.161-.075,97.74-.124,2.825-.004,5.65-.044,8.474-.083-2.764-1.146-5.693-.959-8.584-.99-32.687-.353-65.462,1.669-97.962-3.609-73.899.204-147.813-1.477-221.7.933,1.439.203,2.864.527,4.11,1.424h-13.951Z"/>
    <path class="cls-1" d="M709.182,571.278c2.548-.046,5.096-.079,7.645-.119-2.19-.473-4.387-.761-6.59-.922-.179.388-.525.736-1.055,1.04Z"/>
    <path class="cls-1" d="M710.371,569.685c-.046.004-.093.008-.139.012,0,.001-.001.002-.002.004-.048.186-.115.358-.192.524.066.005.133.008.199.013.081-.176.125-.36.134-.553Z"/>
    <path class="cls-1" d="M710.237,570.238c-.066-.005-.133-.009-.199-.013-.193.412-.476.765-.856,1.053.53-.304.876-.653,1.055-1.04Z"/>
    <path class="cls-1" d="M692.514,549.304c-6.188-.229-12.367-.59-18.486-1.307-.052-.006-.104-.011-.156-.017-6.8-.367-13.614-.617-20.416-.734-15.245-.263-30.422-2.293-45.682-2.255,1.593.97,3.585,1.077,5.569,1.186,30.141,1.658,60.262,4.861,90.363,5.576,19.057.453,38.12.739,57.185.977-20.556-1.983-41.12-.708-61.672-2.793-2.23-.226-4.466-.434-6.705-.633Z"/>
    <path class="cls-5" d="M587.54,547.044c.096-.61.197-1.218.305-1.826-.331.637-.427,1.245-.305,1.826Z"/>
    <path class="cls-5" d="M595.076,543.946c-.357-.19-.711-.394-1.054-.629.324.356.675.567,1.054.629Z"/>
    <path class="cls-5" d="M596.106,541.444s-.232-.244-.232-.244c0,0,0,0,0,0,.074.095.148.19.222.285.003-.014.007-.028.01-.042Z"/>
    <path class="cls-8" d="M1058.12,573.223c.538-.39,1.094-.75,1.666-1.084-.007-.088-.004-.176-.016-.263-.879.008-1.758.018-2.637.026.421.375.74.822.987,1.321Z"/>
    <path class="cls-8" d="M1057.133,571.902c.879-.008,1.758-.019,2.637-.026-.031-.227-.08-.452-.147-.674-.002,0-.003-.002-.004-.002-1.164.013-2.328.03-3.493.046.072.03.145.05.216.082.291.172.554.364.79.575Z"/>
    <path class="cls-8" d="M949.912,571.451h.001s0,0,.001,0c35.737,1.532,71.482.781,107.219.45-.236-.211-.499-.403-.79-.575-.072-.032-.145-.052-.216-.082-2.825.039-5.65.078-8.474.083-32.579.049-65.159.084-97.74.123Z"/>
    <path class="cls-8" d="M1059.811,572.555c.002-.14-.014-.278-.025-.416-.572.334-1.128.694-1.666,1.084.008.017.019.032.027.049.555-.239,1.109-.478,1.663-.717Z"/>
    <path class="cls-8" d="M1058.148,573.271c-.008-.017-.019-.032-.027-.049-.08.058-.166.106-.245.165h0c.091-.039.181-.078.271-.117Z"/>
    <path class="cls-9" d="M711.171,568.193c1.432-1.688,3.49-1.985,5.861-1.568.38.181.762.331,1.143.482.015-.098.029-.197.047-.294-.569-.349-1.132-.769-1.68-1.293-1.363-.829-2.478-1.929-3.633-3.002-1.804-1.506-3.711-2.587-5.681-3.393-17.355-.463-34.646-1.98-51.941-3.59-10.233-.953-20.556-1.202-30.801-1.754-12.195-.657-24.319-2.565-36.545-2.664.01.675.024,1.35.1,2.019.187.821.724,1.486,1.337,2.117,1.648.402,3.303.689,4.971.716,25.572,3.536,51.36,4.317,77.037,6.346,10.207.807,20.345,2.495,30.62,2.551,2.988.016,5.935.654,7.872,3.373.043,0,.087,0,.13,0,.388-.016.776-.028,1.164-.044Z"/>
    <path class="cls-9" d="M710.007,568.237c-.043,0-.087,0-.13,0,.006.008.013.014.018.022.28.422.428.813.467,1.178.241-.478.51-.894.808-1.245-.388.016-.776.028-1.164.044Z"/>
    <path class="cls-9" d="M709.878,568.237c-1.937-2.719-4.884-3.356-7.872-3.373-10.275-.056-20.413-1.744-30.62-2.551-25.677-2.029-51.465-2.81-77.037-6.346-1.668-.027-3.323-.313-4.971-.716,1.45,1.493,3.332,2.793,2.06,5.487,33.082,2.496,66.162,4.991,99.24,7.485,6.4-.026,12.8.022,19.2.013Z"/>
    <path class="cls-9" d="M710.232,569.697c.042-.091.087-.173.131-.26-.039-.365-.187-.756-.467-1.178-.006-.008-.013-.014-.018-.022-6.4.009-12.8-.039-19.2-.013,6.515.491,13.031.983,19.546,1.474.003,0,.006,0,.009,0Z"/>
    <path class="cls-9" d="M712.909,562.517c1.156,1.073,2.27,2.172,3.633,3.002.549.524,1.111.944,1.68,1.293.178-.951.509-1.854,1.034-2.694.132-.325.331-.629.647-.895-.01-1.315-.02-2.631-.03-3.946-4.22.028-8.434-.04-12.645-.153,1.97.806,3.877,1.887,5.681,3.393Z"/>
    <path class="cls-9" d="M717.032,566.624c-2.37-.417-4.428-.12-5.861,1.568,2.303-.095,4.606-.176,6.909-.263.021-.278.053-.552.095-.824-.381-.15-.763-.301-1.143-.482Z"/>
    <path class="cls-9" d="M710.371,569.685c2.552-.229,5.11-.455,7.669-.681-.003-.363.013-.72.04-1.073-2.303.087-4.606.167-6.909.263-.298.351-.568.767-.808,1.245.009.084.012.166.008.247Z"/>
    <path class="cls-9" d="M710.363,569.437c-.044.087-.089.169-.131.26.046-.004.093-.008.139-.012.004-.081,0-.163-.008-.247Z"/>
    <path class="cls-9" d="M588.04,553.135c-.075-.669-.09-1.344-.1-2.019-1.4-.011-2.8-.005-4.203.036,0,0,.001-.002.002-.003-.001,0-.002.001-.003.002-.441.782-.772,1.509-1.005,2.189,2.215.619,4.425,1.37,6.646,1.912-.613-.631-1.15-1.296-1.337-2.117Z"/>
    <path class="cls-9" d="M589.377,555.252c-2.221-.542-4.431-1.294-6.646-1.912-1.157,3.371.293,5.474,4.984,6.111,1.276.173,2.483.846,3.722,1.288,1.272-2.694-.61-3.994-2.06-5.487Z"/>
    <path class="cls-3" d="M1034.616,554.475c-4.625-.105-9.249-.196-13.874-.277,1.068.09,2.136.189,3.205.304,3.49.374,7.066.145,10.669-.027Z"/>
    <path class="cls-3" d="M1060.255,571.883c.301-.165.594-.342.905-.492,12.296-4.996,25.536-4.517,38.178-4.494,34.559.064,69.054-1.895,103.543-2.967,31.484-.979,63.051-.792,94.505-3.291,5.43-.431,11.443-1.07,16.013,3.528.035.049.061.1.094.149-.06-1.873-.119-3.747-.179-5.619-.19.093-.382.184-.591.261-33.329-5.751-66.945-2.047-100.426-2.77-13.989-.302-27.909-1.092-41.848-2.066-17.001-1.188-33.825,2.106-50.837,2.068-24.861-.056-49.711-.837-74.563-1.464,1.096.167,2.19.392,3.279.705,1.332.383,2.724.655,4.04,1.047,2.599.335,5.039,1.102,7.247,2.789,3.448,4.035,4.444,8.122.553,12.31.072.096.092.199.087.305Z"/>
    <path class="cls-3" d="M1020.741,554.198c4.625.081,9.25.171,13.874.277,3.471-.166,6.966-.275,10.434.252,24.852.627,49.702,1.409,74.563,1.464,17.012.038,33.836-3.256,50.837-2.068,13.938.974,27.859,1.764,41.848,2.066,33.48.724,67.097-2.981,100.426,2.77.209-.077.401-.167.591-.261-.015-.481-.031-.962-.046-1.442,0,0,0,0,0,0-4.289-2.986-8.102-6.142-14.131-6.128-47.215.107-94.446.946-141.626-1.83-10.339-.608-20.417,2.15-30.798,2.092-52.916-.294-105.834-.106-158.752-.086,3.207,2.262,6.905,1.826,10.518,1.958,14.076.516,28.137-.26,42.263.935Z"/>
    <path class="cls-3" d="M1059.615,559.269c-2.208-1.687-4.647-2.454-7.247-2.789,2.395.714,4.532,1.832,5.566,4.788,0,0,0,0-.001,0,0,0,0,0,.001,0,.517,3.318,2.237,6.433,1.689,9.932,0,0,0,.001,0,.002.261.114.442.24.545.377,3.89-4.188,2.895-8.275-.553-12.31Z"/>
    <path class="cls-3" d="M1222.433,567.482c30.26-1.182,60.55-1.616,90.826-2.383.002,0,.003-.001.005-.001-.003-.003.23-.706.23-.706h0c0-.024-.001-.049-.002-.073-.033-.05-.059-.1-.094-.149-4.569-4.599-10.583-3.96-16.013-3.528-31.454,2.499-63.021,2.312-94.505,3.291-34.489,1.072-68.984,3.03-103.543,2.967-12.642-.023-25.883-.502-38.178,4.494-.31.15-.604.327-.905.492-.002.05,0,.098-.018.15-.128.347-.269.521-.426.521,1.323.06,2.645.088,3.967.11,3.274-.804,6.576-.813,9.905-.105,8.013-.271,16.015-.871,24.025-1.051,41.591-.932,83.158-2.404,124.726-4.027Z"/>
    <path class="cls-3" d="M1063.778,572.665c3.304.054,6.606.007,9.905-.105-3.329-.708-6.631-.7-9.905.105Z"/>
    <path class="cls-3" d="M1060.255,571.883c.005-.107-.015-.21-.087-.305-.092.099-.172.197-.269.296-.043,0-.086,0-.129.001.012.087.009.176.016.263.154-.09.313-.17.469-.255Z"/>
    <path class="cls-3" d="M1059.899,571.874c.097-.099.178-.197.269-.296-.103-.137-.284-.262-.545-.377.067.222.116.447.147.674.043,0,.086,0,.129-.001Z"/>
    <path class="cls-3" d="M1060.237,572.034c.019-.052.016-.101.018-.15-.156.086-.316.166-.469.255.011.138.027.276.025.416.156,0,.298-.174.426-.521Z"/>
    <path class="cls-10" d="M967.903,554.253c-.189,0-.377.001-.566.001.596.01,1.192.021,1.788.032-.027-.019-.055-.036-.081-.056-.38.009-.761.013-1.141.023Z"/>
    <path class="cls-10" d="M605.929,541.814c-1.326,1.087-2.845,1.358-4.42,1.388,1.578.137,3.157.266,4.737.385-.208-.282-.405-.59-.581-.941.078-.301.168-.574.264-.831Z"/>
    <path class="cls-10" d="M597.2,542.8c.268.026.537.051.806.077-.217-.069-.43-.149-.64-.241-.054.057-.111.109-.166.164Z"/>
    <path class="cls-10" d="M597.366,542.636c-.141-.062-.279-.136-.418-.208-.136.08-.273.161-.409.241,0,.023-.007.045-.009.068.223.022.446.042.67.064.055-.055.112-.108.166-.164Z"/>
    <path class="cls-10" d="M692.514,549.304c6.717.248,13.445.338,20.122.535,32.553.961,65.2.605,97.728,1.756,52.326,1.852,104.659,1.758,156.974,2.659.189,0,.377-.001.566-.001.38-.01.761-.014,1.141-.023-.753-.586-1.208-1.531-1.085-2.925-17.98-.02-35.964-.274-53.94-.018-65.9.939-131.743-3.273-197.643-2.106-2.324.041-4.673-.038-6.977-.327-18.15-2.283-36.435-2.618-54.665-3.46-14.605-.674-29.113-3.096-43.796-2.396-1.545.074-3.142-.918-4.715-1.416-.095.089-.197.153-.294.233-.097.258-.186.531-.264.831.176.351.373.659.581.941,22.519,1.702,45.144,1.77,67.626,4.392,6.234.337,12.455.776,18.642,1.324Z"/>
    <path class="cls-10" d="M1030.622,556.783c-19.718.249-39.349-2.053-59.064-1.808-.922.012-1.778-.214-2.432-.689-.596-.011-1.192-.021-1.788-.032-36.72.007-73.452.642-110.153-.158-32.096-.7-64.198-.966-96.294-1.367.357.034.714.062,1.071.099,23.752,2.424,47.83,1.122,71.765,1.833,38.221,1.135,76.494,2.502,114.741,2.369,33.298-.116,66.475,3.453,99.77,2.26,3.378-.121,6.631.5,9.695,1.977-8.284-6.44-17.989-4.601-27.311-4.483Z"/>
    <path class="cls-10" d="M600.644,545.168c2.379-.121,4.755-.173,7.13-.178-.566-.345-1.082-.799-1.528-1.403-1.579-.119-3.158-.248-4.737-.385-.678.013-1.364-.01-2.05-.032-.502-.044-.986-.143-1.454-.293-.269-.026-.537-.05-.806-.077-.299.297-.618.571-.952.827-.018.03-.023.06-.042.09-.069.037-.137.064-.204.092-.164.121-.329.241-.497.358,1.605.762,3.337,1.092,5.14,1Z"/>
    <polygon class="cls-10" points="594.022 543.316 594.022 543.317 594.022 543.316 594.022 543.316"/>
    <path class="cls-10" d="M595.076,543.946c.142.076.284.154.428.222.168-.117.333-.237.497-.358-.326.138-.634.184-.925.136Z"/>
    <path class="cls-10" d="M596.248,543.627c.334-.256.653-.531.952-.827-.223-.022-.446-.041-.67-.064-.018.294-.107.59-.282.891Z"/>
    <path class="cls-10" d="M967.337,554.254c-52.314-.901-104.648-.807-156.974-2.659-32.528-1.151-65.174-.796-97.728-1.756-6.676-.197-13.405-.287-20.122-.535,2.24.198,4.476.406,6.705.633,20.551,2.085,41.115.81,61.672,2.793,32.095.401,64.198.667,96.294,1.367,36.701.8,73.433.165,110.153.158Z"/>
    <path class="cls-10" d="M673.872,547.979c-22.482-2.623-45.107-2.69-67.626-4.392.446.604.962,1.058,1.528,1.403,15.261-.038,30.438,1.992,45.682,2.255,6.803.117,13.617.367,20.416.734Z"/>
    <path class="cls-10" d="M598.005,542.877c1.168.112,2.336.224,3.504.325,1.575-.03,3.094-.3,4.42-1.388.03-.079.063-.149.095-.225-2.696.114-5.392.228-8.088.342-.177.25-.365.487-.57.705.21.092.423.172.64.241Z"/>
    <path class="cls-10" d="M597.366,542.636c.206-.217.393-.455.57-.705-.052.002-.103.004-.155.007-.277.163-.555.327-.833.49.138.073.276.146.418.208Z"/>
    <path class="cls-10" d="M606.222,541.581c-.066.003-.132.006-.198.008-.031.075-.065.146-.095.225.097-.08.199-.144.294-.233,0,0,0,0,0,0Z"/>
    <path class="cls-10" d="M599.459,543.17c.686.022,1.372.045,2.05.032-1.168-.101-2.336-.213-3.504-.325.468.15.953.249,1.454.293Z"/>
    <path class="cls-10" d="M596.438,542.728c.031.003.061.006.092.009.001-.023.008-.045.009-.068-.034.02-.067.039-.101.059Z"/>
    <path class="cls-10" d="M596.206,543.718c.019-.03.025-.06.042-.09-.081.062-.164.122-.247.183.068-.029.135-.055.204-.092Z"/>
    <path class="cls-10" d="M596.001,543.81c.082-.061.166-.12.247-.183.175-.301.264-.597.282-.891-.031-.003-.061-.006-.092-.009-.251.147-.501.295-.752.443v-.003s-.001.002-.002.002c-.561-.034-1.116.014-1.663.146h0s0,0,0,0h0c.343.235.696.439,1.054.629.291.048.6.002.925-.136Z"/>
    <path class="cls-10" d="M1045.049,554.727c-3.478-.088-6.956-.173-10.434-.252-3.603.172-7.179.4-10.669.027-1.069-.114-2.137-.213-3.205-.304-17.228-.3-34.459-.387-51.697.032.026.02.054.037.081.056,7.161.126,14.321.271,21.481.443,19.531.471,39.114,1.05,58.675,1.523,1.052.025,2.081.097,3.088.226-1.316-.392-2.708-.664-4.04-1.047-1.089-.313-2.183-.539-3.279-.705Z"/>
    <path class="cls-10" d="M1034.616,554.475c3.478.079,6.956.164,10.434.252-3.468-.527-6.963-.418-10.434-.252Z"/>
    <path class="cls-10" d="M969.045,554.23c17.237-.419,34.468-.332,51.697-.032-14.126-1.196-28.187-.42-42.263-.935-3.613-.132-7.311.304-10.518-1.958-.123,1.394.332,2.339,1.085,2.925Z"/>
    <path class="cls-10" d="M1052.369,556.479c-1.007-.13-2.036-.201-3.088-.226-19.56-.473-39.144-1.053-58.675-1.523-7.16-.173-14.32-.317-21.481-.443.654.475,1.51.701,2.432.689,19.715-.245,39.346,2.057,59.064,1.808,9.322-.118,19.027-1.956,27.311,4.483,0,0,0,0,.001,0-1.033-2.956-3.171-4.074-5.566-4.788Z"/>
    <path class="cls-6" d="M1313.541,564.395c-.015-.001-.031-.003-.046-.005h0s0,0,0,0c0,0-.233.703-.23.706.2-.037.382-.099.562-.163-.077-.181-.173-.361-.285-.539Z"/>
    <path class="cls-2" d="M1313.527,564.373c-.011-.018-.022-.036-.034-.055,0,.024.002.048.002.072.012-.006.021-.012.032-.017Z"/>
    <path class="cls-2" d="M1313.495,564.391c.015.001.031.003.046.005-.005-.008-.009-.015-.014-.023-.011.006-.02.012-.032.017h0Z"/>
    <path class="cls-7" d="M588.245,548.371c-.129-.144-.236-.291-.332-.438-.064.011-.127.029-.191.038.097.514.148,1.031.175,1.55.545-.12,1.094-.211,1.645-.278-.451-.25-.887-.537-1.298-.872Z"/>
    <path class="cls-7" d="M587.913,547.933c-.166-.256-.283-.518-.351-.786-.012,0-.024,0-.036-.001,0,0-.001,0-.002.001.084.273.147.548.199.824.064-.01.127-.028.191-.038Z"/>
    <path class="cls-7" d="M587.913,547.933c.096.148.203.295.332.438.41.335.846.622,1.298.872,2.594-.315,5.25-.101,7.84.105,39.319,3.128,78.664,5.845,118.046,8.033,1.716.095,3.256.577,4.444,1.896,1.32-3.752-1.493-4.017-3.739-3.858-11.328.8-22.404-1.79-33.638-2.328-12.207-.584-24.426-1.404-36.609-2.305-18.58-1.374-37.133-3.022-55.76-3.56-.373.169-.747.333-1.126.489-.359.093-.723.157-1.087.217Z"/>
    <path class="cls-7" d="M589,547.715c.379-.155.753-.32,1.126-.489-.855-.025-1.709-.06-2.564-.08.069.268.185.53.351.786.364-.06.728-.124,1.087-.217Z"/>
    <path class="cls-7" d="M583.739,551.149c1.344-.802,2.738-1.314,4.158-1.628-.027-.519-.078-1.037-.175-1.55-.493.074-.99.124-1.492.139-.022-.004-.043-.006-.065-.01-.999.836-1.8,1.859-2.426,3.048Z"/>
    <path class="cls-7" d="M587.722,547.971c-.052-.276-.115-.551-.199-.824-.496.277-.94.603-1.358.953.022.004.043.006.065.01.502-.016.999-.065,1.492-.139Z"/>
    <path class="cls-7" d="M624.485,553.78c10.245.552,20.568.801,30.801,1.754,17.295,1.611,34.586,3.127,51.941,3.59-6.83-2.792-14.467-2.09-21.631-2.678-31.226-2.565-62.505-4.476-93.775-6.484-.825-.053-1.576-.33-2.279-.719-.552.067-1.1.158-1.645.278.028.531.035,1.063.043,1.595,12.225.1,24.35,2.008,36.545,2.664Z"/>
    <path class="cls-7" d="M685.597,556.446c7.164.588,14.801-.114,21.631,2.678,4.211.112,8.425.181,12.645.153-1.188-1.319-2.728-1.801-4.444-1.896-39.382-2.187-78.727-4.905-118.046-8.033-2.59-.206-5.246-.42-7.84-.105.703.39,1.454.666,2.279.719,31.269,2.008,62.549,3.919,93.775,6.484Z"/>
    <path class="cls-7" d="M587.941,551.116c-.008-.532-.015-1.064-.043-1.595-1.421.314-2.814.825-4.158,1.628,0,0-.001.002-.002.003,1.403-.041,2.803-.047,4.203-.036Z"/>
    <path class="cls-7" d="M720.448,567.84c.032-.001.065-.003.097-.004-.524-.151-1.048-.35-1.57-.607-.006.055-.015.11-.024.165.502.172,1.001.321,1.496.446Z"/>
    <path class="cls-7" d="M727.958,568.139c-1.974.002-4.675.487-7.413-.303-.032.001-.065.003-.097.004,2.867.722,5.571.695,7.51.3Z"/>
    <path class="cls-7" d="M718.826,567.901c.541-.02,1.081-.042,1.622-.062-.495-.125-.994-.274-1.496-.446-.028.174-.07.343-.126.508Z"/>
    <path class="cls-7" d="M718.952,567.393c.009-.055.017-.109.024-.165-.252-.124-.503-.264-.753-.417-.018.097-.032.196-.047.294.26.102.518.198.777.287Z"/>
    <path class="cls-1" d="M596.753,542.331c-.174-.224-.348-.447-.522-.671.168.271.277.544.303.821.078-.049.158-.096.24-.14-.007-.004-.014-.006-.02-.01Z"/>
    <path class="cls-1" d="M596.231,541.66c.174.224.348.447.522.671.007.004.014.006.02.01.314-.171.647-.31,1.007-.403-.547-.201-1.105-.365-1.675-.494,0,0,0,0,0,0h.001c.054.072.08.144.125.216Z"/>
    <path class="cls-1" d="M596.207,542.706c.105-.081.215-.154.327-.225-.026-.277-.135-.55-.303-.821-.045-.058-.09-.116-.136-.174-.099.399-.195.799-.291,1.199.07.003.14-.002.21.003.064.007.129.012.193.018Z"/>
    <path class="cls-1" d="M596.014,542.687c-.07-.004-.14,0-.21-.003-.039.161-.079.321-.117.482.163-.171.338-.322.52-.462-.064-.007-.129-.012-.193-.018Z"/>
    <path class="cls-1" d="M596.107,541.445h-.001c-.003.013-.007.027-.01.04.045.058.09.116.136.174-.044-.071-.07-.144-.125-.215Z"/>
    <path class="cls-1" d="M596.539,542.669c.136-.08.273-.161.409-.241-.058-.03-.117-.055-.174-.087-.081.044-.161.091-.24.14.006.062.006.125.005.188Z"/>
    <path class="cls-1" d="M596.948,542.428c.277-.163.555-.327.833-.49-.36.094-.693.232-1.007.403.057.032.117.057.174.087Z"/>
    <path class="cls-1" d="M596.534,542.481c-.112.07-.221.144-.327.225.077.008.154.014.231.022.034-.02.067-.039.101-.059.001-.063.001-.125-.005-.188Z"/>
    <path class="cls-1" d="M596.438,542.728c-.077-.008-.154-.014-.231-.022-.182.14-.357.291-.52.462v.003c.25-.147.501-.295.751-.443Z"/>
  </g>
  <rect class="cls-4" width="1920" height="1920"/>
</svg>