<?xml version="1.0" encoding="UTF-8"?>
<svg id="_レイヤー_1" data-name="レイヤー 1" xmlns="http://www.w3.org/2000/svg" version="1.1" viewBox="0 0 1920 1920">
  <defs>
    <style>
      .cls-1 {
        fill: #404650;
      }

      .cls-1, .cls-2, .cls-3, .cls-4, .cls-5, .cls-6 {
        stroke-width: 0px;
      }

      .cls-2 {
        fill: #9b572c;
      }

      .cls-3 {
        fill: none;
      }

      .cls-4 {
        fill: #7c8e98;
      }

      .cls-5 {
        fill: #683c21;
      }

      .cls-6 {
        fill: #ab5f2f;
      }
    </style>
  </defs>
  <g>
    <path class="cls-4" d="M1313.541,564.395c-.015-.001-.031-.003-.046-.005h0s0,0,0,0c0,0-.233.703-.23.706.2-.037.382-.099.562-.163-.077-.181-.173-.361-.285-.539Z"/>
    <path class="cls-1" d="M1313.527,564.373c-.011-.018-.022-.036-.034-.055,0,.024.002.048.002.072.012-.006.021-.012.032-.017Z"/>
    <path class="cls-1" d="M1313.495,564.391c.015.001.031.003.046.005-.005-.008-.009-.015-.014-.023-.011.006-.02.012-.032.017h0Z"/>
  </g>
  <g>
    <path class="cls-5" d="M1337.108,719.477c-10.637-17.484-35.701-154.201-35.701-154.201l-21.456.909s2.436,167.694,15.24,193.918,14.769,49.861,24.615,62.745c9.542,12.487,8.115,93.496,8.115,93.496,0,0-5.665,233.363-4.106,258.1s-26.427,148.793-26.427,148.793c0,0-11.406,97.059-18.268,118.627s-25.49,49.02-25.49,49.02c0,0-35.294,25.49-58.847,39.216s-40.535,50-40.535,50c21.207,7.843,43.955-8.824,43.955-8.824,0,0,21.113-14.706,47.583-34.314,26.471-19.608,50.481-62.271,50.481-62.271,0,0,10.303-33.807,14.154-53.646s6.943-72.318,6.943-72.318l-2.82-9.242c4.834-8.28,8.753-33.243,12.614-41.738,4.902-10.784,15.706-180.747,18.627-226.471,2.922-45.723.271-230.792,8.597-257.4s-6.636-76.914-17.273-94.398Z"/>
    <path class="cls-2" d="M1371.275,757.549c0-8.824-3.769-150.017-1.778-158.318,1.991-8.301-34.031-39.49-34.031-39.49l-55.514-5.094c-7.441,13.692,10.122,116.28,10.122,116.28,0,0,5.711,51.105,10.613,63.85,4.902,12.745,9.46,50.318,12.335,66.14s32.763,35.064,26.88,72.319c-5.882,37.255-2.941,87.255-4.902,117.647s-1.961,75.49-2.941,96.078c-.98,20.588-.98,77.451-.98,105.882s-4.902,56.863-5.882,66.667c-.98,9.804-14.628,73.547-14.628,73.547l-.148,8.842c-3.612,21.684-3.364,64.832-4.009,67.611-1.138,4.902-23.372,44.118-29.481,53.922s-23.303,29.412-33.107,38.235c-9.804,8.824-52.857,40.393-52.857,40.393,0,0-.084,33.136,9.719,39.999s35.294-6.863,52.941-17.647c17.647-10.784,21.569-44.118,37.255-66.667s24.51-40.196,26.48-53.619c1.97-13.423,2.728-115.541,2.728-115.543,5.36-7.922,11.432-17.948,13.929-25.937,4.902-15.686,23.379-91.176,23.379-91.176,0,0,8.974-164.706,8.974-211.765s4.259-99.922,7.487-122.939c3.228-23.018-2.585-110.394-2.585-119.217Z"/>
    <path class="cls-6" d="M1533.197,1474.689l-96.357-42.457s-78.31-30.566-80.271-57.036c-.942-12.717,2.19-28.368,5.704-41.813,3.151-3.018,5.971-6.147,8.074-9.167,8.876-12.745,21.516-142.157,23.477-159.804,1.961-17.647-.98-167.647.031-243.197s-9.835-162.685-6.894-222.489c2.941-59.804-8.991-103.452-8.991-103.452,0,0,2.093-31.184-3.023-42.962-5.116-11.778-73.077-12.454-73.077-12.454-9.15.82,11.657,24.516,11.657,24.516,0,0,21.031,20.081,26.193,27.304,5.162,7.223,10.576,88.867,10.576,88.867,0,0,3.331,176.025,2.306,187.77-1.025,11.744-15.642,214.726-15.642,214.726,0,0,0,108.824-12.831,145.577s-13.71,113.283-13.71,113.283c0,0-2.763,30.182-.835,31.185-9.103,15.531,10.365,31.695-2.069,73.21-12.779,42.666-36.241,42.628-53.451,82.824-17.21,40.196-48.476,22.549-99.819,50.98s25.852,30.392,45.175,79.412c19.323,49.02,31.658,31.373,154.207,27.451,122.549-3.922,131.373-69.608,172.643-105.882,41.271-36.274,6.926-106.389,6.926-106.389Z"/>
  </g>
  <rect class="cls-3" width="1920" height="1920"/>
</svg>